SplineFontDB: 3.0
FontName: Scada-Regular
FullName: Scada Regular
FamilyName: Scada
Weight: Normal
Copyright: Copyright 2012 The Scada Project Authors \\(lemonad@jovanny.ru\\)
Version: 001.001
ItalicAngle: 0
UnderlinePosition: -150
UnderlineWidth: 50
Ascent: 800
Descent: 200
InvalidEm: 0
sfntRevision: 0x00040000
LayerCount: 2
Layer: 0 0 "Back" 1
Layer: 1 0 "Fore" 0
XUID: [1021 1017 285194369 21795]
StyleMap: 0x0040
FSType: 0
OS2Version: 3
OS2_WeightWidthSlopeOnly: 0
OS2_UseTypoMetrics: 0
CreationTime: 1481797557
ModificationTime: 1487943501
PfmFamily: 81
TTFWeight: 400
TTFWidth: 5
LineGap: 0
VLineGap: 0
Panose: 0 0 5 0 0 0 0 0 0 0
OS2TypoAscent: 955
OS2TypoAOffset: 0
OS2TypoDescent: -289
OS2TypoDOffset: 0
OS2TypoLinegap: 0
OS2WinAscent: 955
OS2WinAOffset: 0
OS2WinDescent: 289
OS2WinDOffset: 0
HheadAscent: 955
HheadAOffset: 0
HheadDescent: -289
HheadDOffset: 0
OS2SubXSize: 650
OS2SubYSize: 600
OS2SubXOff: 0
OS2SubYOff: 75
OS2SupXSize: 650
OS2SupYSize: 600
OS2SupXOff: 0
OS2SupYOff: 350
OS2StrikeYSize: 50
OS2StrikeYPos: 300
OS2CapHeight: 700
OS2XHeight: 500
OS2Vendor: 'PYRS'
OS2CodePages: 20000097.00000000
OS2UnicodeRanges: 00000207.00000000.00000000.00000000
Lookup: 1 0 0 "'locl' Localized Forms in Cyrillic lookup 34" { "'locl' Localized Forms in Cyrillic lookup 34-1" ("loclSRB") } ['locl' ('cyrl' <'SRB ' > ) ]
Lookup: 1 0 0 "'locl' Localized Forms in Cyrillic lookup 35" { "'locl' Localized Forms in Cyrillic lookup 35-1" ("loclSRB") } ['locl' ('cyrl' <'MKD ' > ) ]
Lookup: 1 0 0 "'ss02' Style Set 2 lookup 36" { "'ss02' Style Set 2 lookup 36-1" ("loclSRB") } ['ss02' ('DFLT' <'dflt' > 'cyrl' <'BGR ' 'MKD ' 'SRB ' 'dflt' > 'latn' <'CAT ' 'MOL ' 'ROM ' 'dflt' > ) ]
Lookup: 1 0 0 "'ss03' Style Set 3 lookup 37" { "'ss03' Style Set 3 lookup 37-1" ("loclSRB") } ['ss03' ('DFLT' <'dflt' > 'cyrl' <'BGR ' 'MKD ' 'SRB ' 'dflt' > 'latn' <'CAT ' 'MOL ' 'ROM ' 'dflt' > ) ]

StartChar: brevecombcy
Encoding: 65537 -1 1
Width: 0
Flags: MW
HStem: 550 60<-220 -180 -220 -150>
VStem: -350 90<654.5 680 654.5 680> -140 90<654.5 680>
LayerCount: 2
Fore
SplineSet
-200 550 m 0
 -300 550 -350 600 -350 680 c 1
 -260 680 l 1
 -260 629 -240 610 -200 610 c 0
 -160 610 -140 629 -140 680 c 1
 -50 680 l 1
 -50 600 -100 550 -200 550 c 0
EndSplineSet
Substitution2: "'case' Case-Sensitive Forms in Latin lookup 26 subtable" brevecombcy.case
Substitution2: "'case' Case-Sensitive Forms in Latin lookup 25 subtable" brevecombcy.case
Substitution2: "'case' Case-Sensitive Forms in Latin lookup 24 subtable" brevecombcy.case
Substitution2: "'case' Case-Sensitive Forms in Cyrillic lookup 23 subtable" brevecombcy.case
Substitution2: "'case' Case-Sensitive Forms lookup 22 subtable" brevecombcy.case
Substitution2: "'aalt' Access All Alternates lookup 0 subtable" brevecombcy.case
EndChar

StartChar: brevecombcy.case
Encoding: 65538 -1 2
Width: 0
Flags: MW
HStem: 750 60<-220 -180 -220 -150>
VStem: -350 90<854.5 880 854.5 880> -140 90<854.5 880>
LayerCount: 2
Fore
SplineSet
-200 750 m 0
 -300 750 -350 800 -350 880 c 1
 -260 880 l 1
 -260 829 -240 810 -200 810 c 0
 -160 810 -140 829 -140 880 c 1
 -50 880 l 1
 -50 800 -100 750 -200 750 c 0
EndSplineSet
EndChar

StartChar: exclam
Encoding: 33 33 4
Width: 290
Flags: MW
HStem: -10 120<127.5 162.5> 680 20G<85 205 205 205>
VStem: 95 100
LayerCount: 2
Fore
SplineSet
105 180 m 1
 85 700 l 1
 205 700 l 1
 185 180 l 1
 105 180 l 1
145 -10 m 0xe0
 110 -10 85 15 85 50 c 0
 85 85 110 110 145 110 c 0
 180 110 205 85 205 50 c 0
 205 15 180 -10 145 -10 c 0xe0
EndSplineSet
EndChar

StartChar: quotedbl
Encoding: 34 34 5
Width: 340
Flags: MW
HStem: 460 240<60 60 60 125 215 280 215 215>
VStem: 40 260<700 700>
LayerCount: 2
Fore
SplineSet
60 460 m 1
 40 700 l 1
 145 700 l 1
 125 460 l 1
 60 460 l 1
215 460 m 1
 195 700 l 1
 300 700 l 1
 280 460 l 1
 215 460 l 1
EndSplineSet
EndChar

StartChar: numbersign
Encoding: 35 35 6
Width: 660
Flags: MW
HStem: 0 21G<80 80 80 180 320 320 320 420> 180 70<20 121 20 137 237 361 477 580> 450 70<80 183 80 199 299 423 539 640> 680 20G<240 340 340 340 480 580 580 580>
VStem: 20 620<180 520 250 520>
LayerCount: 2
Fore
SplineSet
80 0 m 1
 121 180 l 1
 20 180 l 1
 20 250 l 1
 137 250 l 1
 183 450 l 1
 80 450 l 1
 80 520 l 1
 199 520 l 1
 240 700 l 1
 340 700 l 1
 299 520 l 1
 439 520 l 1
 480 700 l 1
 580 700 l 1
 539 520 l 1
 640 520 l 1
 640 450 l 1
 523 450 l 1
 477 250 l 1
 580 250 l 1
 580 180 l 1
 461 180 l 1
 420 0 l 1
 320 0 l 1
 361 180 l 1
 221 180 l 1
 180 0 l 1
 80 0 l 1
237 250 m 1
 377 250 l 1
 423 450 l 1
 283 450 l 1
 237 250 l 1
EndSplineSet
EndChar

StartChar: dollar
Encoding: 36 36 7
Width: 495
Flags: MW
HStem: -70 130<190 270.5 202.5 270.5 202.5 295> -7 67<190 270.5> 640 68<227.5 295> 640 130<227.5 287.5> 683 20G<190 190>
VStem: 40 100<450 559.5 450 566> 190 105<-70 -7 -7 -7 708 770> 365 100<144.5 260>
LayerCount: 2
Fore
SplineSet
190 -70 m 1x00
 190 -7 l 1
 139 -2 99 11 72 23 c 0
 56 30 42 38 30 45 c 1
 65 105 l 1
 75 105 l 1
 87 96 101 89 116 82 c 0
 143 71 180 60 225 60 c 0
 316 60 365 109 365 180 c 0
 365 340 40 300 40 520 c 0
 40 612 94 680 190 703 c 1x57
 190 770 l 1
 295 770 l 1x67
 295 708 l 1
 346 703 384 690 411 678 c 0
 426 671 439 663 450 655 c 1
 415 595 l 1
 405 595 l 1
 395 603 383 610 369 617 c 0
 345 628 310 640 265 640 c 0
 190 640 140 589 140 530 c 0
 140 370 465 410 465 190 c 0
 465 86 407 14 295 -5 c 1x8f
 295 -70 l 1
 190 -70 l 1x00
EndSplineSet
EndChar

StartChar: percent
Encoding: 37 37 8
Width: 800
Flags: MW
HStem: -10 60<590 630 590 658> 0 21G<110 110 110 220> 350 60<170 210 170 238> 650 60<170 210> 680 20G<580 690 690 690>
VStem: 30 90<484.5 574.5 484.5 588> 260 90<484.5 574.5> 450 90<124.5 214.5 124.5 228> 680 90<124.5 214.5>
LayerCount: 2
Fore
SplineSet
190 350 m 0x00
 94 350 30 414 30 530 c 0
 30 646 94 710 190 710 c 0
 286 710 350 646 350 530 c 0
 350 414 286 350 190 350 c 0x00
110 0 m 1xb780
 580 700 l 1
 690 700 l 1
 220 0 l 1
 110 0 l 1xb780
190 410 m 0
 230 410 260 439 260 530 c 0
 260 619 230 650 190 650 c 0x6f80
 150 650 120 619 120 530 c 0
 120 439 150 410 190 410 c 0
610 -10 m 0xb780
 514 -10 450 54 450 170 c 0
 450 286 514 350 610 350 c 0
 706 350 770 286 770 170 c 0
 770 54 706 -10 610 -10 c 0xb780
610 50 m 0
 650 50 680 79 680 170 c 0
 680 259 650 290 610 290 c 0
 570 290 540 259 540 170 c 0
 540 79 570 50 610 50 c 0
EndSplineSet
EndChar

StartChar: ampersand
Encoding: 38 38 9
Width: 615
Flags: MW
HStem: -10 70<220 278> 0 21G<490 610 490 490> 0 125<505 505 505 610 490 505> 645 65<242.5 285>
VStem: 30 100<144.5 207.5 144.5 225.5> 90 100<536 582.5 536 598> 335 100<542.5 588> 470 90<294.5 320>
LayerCount: 2
Fore
SplineSet
240 -10 m 0x00
 109 -10 30 70 30 180 c 0x37
 30 271 100 329 175 380 c 1
 158 396 144 413 132 431 c 0
 111 462 90 505 90 550 c 0
 90 646 154 710 265 710 c 0
 369 710 435 645 435 560 c 0
 435 504 402 459 367 424 c 0
 347 404 325 386 300 370 c 1
 450 190 l 1
 465 225 470 269 470 320 c 1
 560 320 l 1
 560 244 540 181 505 125 c 1x5b
 610 0 l 1
 490 0 l 1x9b
 440 60 l 1
 384 15 316 -10 240 -10 c 0x00
250 435 m 1x9b
 266 446 280 458 292 471 c 0
 313 494 335 525 335 560 c 0
 335 616 305 645 265 645 c 0
 220 645 190 615 190 550 c 0
 190 522 205 495 220 472 c 0
 229 459 239 447 250 435 c 1x9b
260 60 m 0
 316 60 360 75 395 110 c 1
 225 315 l 1
 170 275 130 235 130 180 c 0x97
 130 109 180 60 260 60 c 0
EndSplineSet
EndChar

StartChar: quotesingle
Encoding: 39 39 10
Width: 185
Flags: MW
HStem: 680 20G<40 145 145 145>
VStem: 40 105<700 700>
LayerCount: 2
Fore
SplineSet
60 460 m 1
 40 700 l 1
 145 700 l 1
 125 460 l 1
 60 460 l 1
EndSplineSet
EndChar

StartChar: parenleft
Encoding: 40 40 11
Width: 285
Flags: MW
HStem: -175 910<245 245>
VStem: 55 100<194.5 365.5>
LayerCount: 2
Fore
SplineSet
245 -175 m 1
 120 -60 55 109 55 280 c 0
 55 451 120 620 245 735 c 1
 285 695 l 1
 205 579 155 451 155 280 c 0
 155 109 205 -19 285 -135 c 1
 245 -175 l 1
EndSplineSet
EndChar

StartChar: parenright
Encoding: 41 41 12
Width: 285
Flags: MW
HStem: -175 910<40 40>
VStem: 130 100<194.5 365.5>
LayerCount: 2
Fore
SplineSet
40 -175 m 1
 0 -135 l 1
 80 -19 130 109 130 280 c 0
 130 451 80 579 0 695 c 1
 40 735 l 1
 165 620 230 451 230 280 c 0
 230 109 165 -60 40 -175 c 1
EndSplineSet
EndChar

StartChar: asterisk
Encoding: 42 42 13
Width: 410
Flags: MW
HStem: 680 20G<170 240 240 240>
VStem: 170 70<340 460 340 460 580 700>
LayerCount: 2
Fore
SplineSet
170 340 m 1
 170 460 l 1
 65 400 l 1
 30 460 l 1
 135 520 l 1
 30 580 l 1
 65 640 l 1
 170 580 l 1
 170 700 l 1
 240 700 l 1
 240 580 l 1
 345 640 l 1
 380 580 l 1
 275 520 l 1
 380 460 l 1
 345 400 l 1
 240 460 l 1
 240 340 l 1
 170 340 l 1
EndSplineSet
EndChar

StartChar: plus
Encoding: 43 43 14
Width: 470
Flags: MW
HStem: 290 80<30 195 30 195 275 440>
VStem: 195 80<125 290 125 290 370 535>
LayerCount: 2
Fore
SplineSet
195 125 m 1
 195 290 l 1
 30 290 l 1
 30 370 l 1
 195 370 l 1
 195 535 l 1
 275 535 l 1
 275 370 l 1
 440 370 l 1
 440 290 l 1
 275 290 l 1
 275 125 l 1
 195 125 l 1
EndSplineSet
EndChar

StartChar: comma
Encoding: 44 44 15
Width: 200
Flags: MW
HStem: -10 21G<79.5 95>
VStem: 40 120<-95 62.5 32.5 62.5 10.5 67.5>
LayerCount: 2
Fore
SplineSet
70 -130 m 1
 40 -95 l 1
 50 -87 59 -78 67 -69 c 0
 82 -53 95 -33 95 -10 c 1
 64 -10 40 15 40 50 c 0
 40 85 64 110 95 110 c 0
 135 110 160 85 160 40 c 0xc0
 160 -19 138 -60 115 -88 c 0
 102 -105 87 -119 70 -130 c 1
EndSplineSet
EndChar

StartChar: hyphen
Encoding: 45 45 16
Width: 440
Flags: MW
HStem: 290 80<30 410 30 410>
VStem: 30 380<290 370 290 370>
LayerCount: 2
Fore
SplineSet
30 290 m 1
 30 370 l 1
 410 370 l 1
 410 290 l 1
 30 290 l 1
EndSplineSet
EndChar

StartChar: period
Encoding: 46 46 17
Width: 200
Flags: MW
HStem: -10 120<82.5 117.5>
VStem: 40 120<32.5 67.5>
LayerCount: 2
Fore
SplineSet
100 -10 m 0
 65 -10 40 15 40 50 c 0
 40 85 65 110 100 110 c 0
 135 110 160 85 160 50 c 0
 160 15 135 -10 100 -10 c 0
EndSplineSet
EndChar

StartChar: slash
Encoding: 47 47 18
Width: 410
Flags: MW
HStem: 0 21G<0 0 0 100> 680 20G<310 410 410 410>
VStem: 0 410
LayerCount: 2
Fore
SplineSet
0 0 m 1
 310 700 l 1
 410 700 l 1
 100 0 l 1
 0 0 l 1
EndSplineSet
EndChar

StartChar: zero
Encoding: 48 48 19
Width: 580
Flags: MW
HStem: -10 70<252.5 327.5 252.5 358> 640 70<252.5 327.5>
VStem: 55 100<235.5 464.5 235.5 480> 425 100<235.5 464.5>
LayerCount: 2
Fore
SplineSet
290 -10 m 0
 154 -10 55 90 55 350 c 0
 55 610 154 710 290 710 c 0
 426 710 525 610 525 350 c 0
 525 90 426 -10 290 -10 c 0
290 60 m 0
 365 60 425 121 425 350 c 0
 425 579 365 640 290 640 c 0
 215 640 155 579 155 350 c 0
 155 121 215 60 290 60 c 0
EndSplineSet
EndChar

StartChar: one
Encoding: 49 49 20
Width: 390
Flags: MW
HStem: 0 70<50 160 50 160 260 370> 680 20G<170 260 260 260>
VStem: 160 100<70 590 590 590>
LayerCount: 2
Fore
SplineSet
50 0 m 1
 50 70 l 1
 160 70 l 1
 160 590 l 1
 60 525 l 1
 20 580 l 1
 170 700 l 1
 260 700 l 1
 260 70 l 1
 370 70 l 1
 370 0 l 1
 50 0 l 1
EndSplineSet
Substitution2: "'sups' Superscript in Latin lookup 14 subtable" uni00B9
Substitution2: "'sups' Superscript in Latin lookup 13 subtable" uni00B9
Substitution2: "'sups' Superscript in Latin lookup 12 subtable" uni00B9
Substitution2: "'sups' Superscript in Cyrillic lookup 11 subtable" uni00B9
Substitution2: "'sups' Superscript lookup 10 subtable" uni00B9
Substitution2: "'aalt' Access All Alternates lookup 0 subtable" uni00B9
EndChar

StartChar: two
Encoding: 50 50 21
Width: 500
Flags: MW
HStem: 0 70<30 30 130 455> 640 70<197.5 262.5>
VStem: 30 100<0 140 70 140 70 169.5> 355 100<445 560>
LayerCount: 2
Fore
SplineSet
30 0 m 1
 30 70 l 2
 30 269 355 360 355 530 c 0
 355 590 305 640 220 640 c 0
 175 640 140 628 116 617 c 0
 102 610 90 603 80 595 c 1
 70 595 l 1
 35 655 l 1
 48 665 65 674 84 682 c 0
 116 697 165 710 230 710 c 0
 374 710 455 630 455 520 c 0
 455 320 130 210 130 70 c 1
 455 70 l 1
 455 0 l 1
 30 0 l 1
EndSplineSet
Substitution2: "'sups' Superscript in Latin lookup 14 subtable" uni00B2
Substitution2: "'sups' Superscript in Latin lookup 13 subtable" uni00B2
Substitution2: "'sups' Superscript in Latin lookup 12 subtable" uni00B2
Substitution2: "'sups' Superscript in Cyrillic lookup 11 subtable" uni00B2
Substitution2: "'sups' Superscript lookup 10 subtable" uni00B2
Substitution2: "'aalt' Access All Alternates lookup 0 subtable" uni00B2
EndChar

StartChar: three
Encoding: 51 51 22
Width: 500
Flags: MW
HStem: -10 70<177.5 255.5 177.5 295.5> 340 70<95 200 95 95> 630 70<30 320 30 440 30 440>
VStem: 360 100<154.5 245.5>
LayerCount: 2
Fore
SplineSet
210 -10 m 0
 145 -10 96 2 64 17 c 0
 45 25 28 34 15 45 c 1
 50 105 l 1
 60 105 l 1
 70 96 82 89 96 82 c 0
 120 71 155 60 200 60 c 0
 311 60 360 109 360 200 c 0
 360 291 311 340 200 340 c 2
 95 340 l 1
 95 410 l 1
 320 630 l 1
 30 630 l 1
 30 700 l 1
 440 700 l 1
 440 630 l 1
 215 410 l 1
 380 410 460 329 460 200 c 0
 460 69 381 -10 210 -10 c 0
EndSplineSet
Substitution2: "'sups' Superscript in Latin lookup 14 subtable" uni00B3
Substitution2: "'sups' Superscript in Latin lookup 13 subtable" uni00B3
Substitution2: "'sups' Superscript in Latin lookup 12 subtable" uni00B3
Substitution2: "'sups' Superscript in Cyrillic lookup 11 subtable" uni00B3
Substitution2: "'sups' Superscript lookup 10 subtable" uni00B3
Substitution2: "'aalt' Access All Alternates lookup 0 subtable" uni00B3
EndChar

StartChar: four
Encoding: 52 52 23
Width: 540
Flags: MW
HStem: 0 21G<340 340 340 440> 170 70<120 340 10 10 440 520> 680 20G<340 440 440 440>
VStem: 340 100<0 170 0 170 240 500 500 506>
LayerCount: 2
Fore
SplineSet
340 0 m 1
 340 170 l 1
 10 170 l 1
 10 240 l 1
 340 700 l 1
 440 700 l 1
 440 240 l 1
 520 240 l 1
 520 170 l 1
 440 170 l 1
 440 0 l 1
 340 0 l 1
120 240 m 1
 340 240 l 1
 340 500 l 2
 340 512 341 529 344 544 c 2
 348 570 l 1
 344 570 l 1
 339 561 335 552 330 544 c 0
 322 529 313 512 305 500 c 2xf0
 120 240 l 1
EndSplineSet
EndChar

StartChar: five
Encoding: 53 53 24
Width: 505
Flags: MW
HStem: -10 70<187.5 261.5 187.5 303.5> 360 70<160 210> 630 70<160 439 160 160>
VStem: 60 100<430 630 430 700 430 700> 365 100<160 260>
LayerCount: 2
Fore
SplineSet
220 -10 m 0
 155 -10 106 2 74 17 c 0
 55 25 38 34 25 45 c 1
 60 105 l 1
 70 105 l 1
 80 96 92 89 106 82 c 0
 130 71 165 60 210 60 c 0
 313 60 365 110 365 210 c 0
 365 310 313 360 210 360 c 2
 90 360 l 1
 60 390 l 1
 60 700 l 1
 439 700 l 1
 439 630 l 1
 160 630 l 1
 160 430 l 1
 225 430 l 2
 386 430 465 351 465 210 c 0
 465 69 387 -10 220 -10 c 0
EndSplineSet
EndChar

StartChar: six
Encoding: 54 54 25
Width: 535
Flags: MW
HStem: -10 70<242.5 312.5 242.5 348.5> 380 70<265 305> 640 70<257.5 318.5>
VStem: 55 100<230 340 410 495.5> 395 100<170 280>
LayerCount: 2
Fore
SplineSet
281 -10 m 0
 134 -10 55 69 55 230 c 2
 55 410 l 2
 55 619 145 710 290 710 c 0
 347 710 392 697 423 682 c 0
 441 674 457 665 470 655 c 1
 435 595 l 1
 425 595 l 1
 415 603 404 610 391 617 c 0
 368 628 337 640 300 640 c 0
 215 640 155 581 155 410 c 1
 165 417 177 424 190 430 c 0
 213 441 245 450 285 450 c 0
 416 450 495 371 495 230 c 0
 495 69 416 -10 281 -10 c 0
280 60 m 0
 345 60 395 110 395 230 c 0
 395 330 345 380 265 380 c 0
 230 380 203 371 184 360 c 0
 173 354 163 347 155 340 c 1
 155 230 l 2
 155 110 205 60 280 60 c 0
EndSplineSet
EndChar

StartChar: seven
Encoding: 55 55 26
Width: 440
Flags: MW
HStem: 0 21G<140 140 140 240> 630 70<0 320 0 430 0 430>
VStem: 140 100<0 90 0 204.5>
LayerCount: 2
Fore
SplineSet
140 0 m 1
 140 90 l 2
 140 319 230 521 320 630 c 1
 0 630 l 1
 0 700 l 1
 430 700 l 1
 430 630 l 1
 339 520 240 320 240 90 c 2
 240 0 l 1
 140 0 l 1
EndSplineSet
EndChar

StartChar: eight
Encoding: 56 56 27
Width: 560
Flags: MW
HStem: -10 70<234.5 325.5 234.5 354.5> 640 70<249.5 309.5>
VStem: 40 100<144.5 218.5> 70 100<502.5 563 501 582.5> 390 100<502.5 563> 420 100<144.5 219 130 220>
LayerCount: 2
Fore
SplineSet
280 -10 m 0x00
 131 -10 40 80 40 180 c 0
 40 257 78 305 117 333 c 0xd8
 140 350 166 362 195 370 c 1
 171 378 150 389 132 404 c 0
 101 429 70 470 70 535 c 0
 70 630 149 710 280 710 c 0
 411 710 490 630 490 535 c 0
 490 470 458 429 427 404 c 0xe4
 409 389 388 378 365 370 c 1
 394 362 419 350 442 333 c 0
 482 304 520 258 520 180 c 0
 520 80 429 -10 280 -10 c 0x00
280 410 m 1xe4
 339 429 390 467 390 535 c 0
 390 591 339 640 280 640 c 0
 219 640 170 591 170 535 c 0
 170 467 219 429 280 410 c 1xe4
280 60 m 0xd8
 371 60 420 109 420 180 c 0
 420 260 355 301 280 330 c 1
 205 301 140 260 140 180 c 0
 140 109 189 60 280 60 c 0xd8
EndSplineSet
EndChar

StartChar: nine
Encoding: 57 57 28
Width: 535
Flags: MW
HStem: -10 70<215.5 277.5 215.5 317> 250 70<230 270> 640 70<222.5 292.5>
VStem: 40 100<420 530 420 550.5> 380 100<204.5 290 360 470>
LayerCount: 2
Fore
SplineSet
245 -10 m 0
 186 -10 143 2 112 17 c 0
 94 25 78 34 65 45 c 1
 100 105 l 1
 110 105 l 1
 120 96 131 89 144 82 c 0
 167 71 196 60 235 60 c 0
 320 60 380 119 380 290 c 1
 369 283 358 276 345 270 c 0
 322 259 290 250 250 250 c 0
 119 250 40 329 40 470 c 0
 40 631 119 710 254 710 c 0
 401 710 480 631 480 470 c 2
 480 290 l 2
 480 80 389 -10 245 -10 c 0
270 320 m 0
 305 320 332 329 351 340 c 0
 362 346 372 353 380 360 c 1
 380 470 l 2
 380 590 330 640 255 640 c 0
 190 640 140 590 140 470 c 0
 140 370 190 320 270 320 c 0
EndSplineSet
EndChar

StartChar: colon
Encoding: 58 58 29
Width: 200
Flags: MW
HStem: -10 120<82.5 117.5> 390 120<82.5 117.5>
VStem: 40 120<32.5 67.5 432.5 467.5>
LayerCount: 2
Fore
SplineSet
100 390 m 0
 65 390 40 415 40 450 c 0
 40 485 65 510 100 510 c 0
 135 510 160 485 160 450 c 0
 160 415 135 390 100 390 c 0
100 -10 m 0
 65 -10 40 15 40 50 c 0
 40 85 65 110 100 110 c 0
 135 110 160 85 160 50 c 0
 160 15 135 -10 100 -10 c 0
EndSplineSet
EndChar

StartChar: semicolon
Encoding: 59 59 30
Width: 200
Flags: MW
HStem: -10 21G<79.5 95> 390 120<82.5 117.5>
VStem: 40 120<-95 62.5 32.5 62.5 10.5 67.5 432.5 467.5>
LayerCount: 2
Fore
SplineSet
100 390 m 0
 65 390 40 415 40 450 c 0
 40 485 65 510 100 510 c 0
 135 510 160 485 160 450 c 0
 160 415 135 390 100 390 c 0
70 -130 m 1
 40 -95 l 1
 50 -87 59 -78 67 -69 c 0
 82 -53 95 -33 95 -10 c 1
 64 -10 40 15 40 50 c 0
 40 85 64 110 95 110 c 0
 135 110 160 85 160 40 c 0xe0
 160 -19 138 -60 115 -88 c 0
 102 -105 87 -119 70 -130 c 1
EndSplineSet
EndChar

StartChar: less
Encoding: 60 60 31
Width: 470
Flags: MW
HStem: 0 21G<430 430> 480 20G<430 430>
VStem: 40 390<0 285 0 285>
LayerCount: 2
Fore
SplineSet
430 0 m 1
 40 215 l 1
 40 285 l 1
 430 500 l 1
 430 405 l 1
 150 250 l 1
 430 95 l 1
 430 0 l 1
EndSplineSet
EndChar

StartChar: equal
Encoding: 61 61 32
Width: 470
Flags: MW
HStem: 200 80<35 435 35 435> 380 80<35 435 35 435>
VStem: 35 400<200 280 200 280 380 460 200 460>
LayerCount: 2
Fore
SplineSet
35 380 m 1
 35 460 l 1
 435 460 l 1
 435 380 l 1
 35 380 l 1
35 200 m 1
 35 280 l 1
 435 280 l 1
 435 200 l 1
 35 200 l 1
EndSplineSet
EndChar

StartChar: greater
Encoding: 62 62 33
Width: 445
Flags: MW
HStem: 0 21G<35 35> 480 20G<35 35>
VStem: 35 390<0 285 95 285 215 500 215 500>
LayerCount: 2
Fore
SplineSet
35 0 m 1
 35 95 l 1
 315 250 l 1
 35 405 l 1
 35 500 l 1
 425 285 l 1
 425 215 l 1
 35 0 l 1
EndSplineSet
EndChar

StartChar: question
Encoding: 63 63 34
Width: 460
Flags: MW
HStem: -10 120<163.5 198.5> 640 70<162.5 227.5>
VStem: 136 90<180 220 180 305> 320 100<460 560>
LayerCount: 2
Fore
SplineSet
136 180 m 1
 136 220 l 2
 136 390 320 390 320 530 c 0
 320 590 270 640 185 640 c 0
 140 640 105 628 81 617 c 0
 67 610 55 603 45 595 c 1
 35 595 l 1
 0 655 l 1
 13 665 30 674 49 682 c 0
 81 697 130 710 195 710 c 0
 339 710 420 630 420 520 c 0
 420 349 226 350 226 220 c 2
 226 180 l 1
 136 180 l 1
181 -10 m 0xf0
 146 -10 121 15 121 50 c 0
 121 85 146 110 181 110 c 0
 216 110 241 85 241 50 c 0
 241 15 216 -10 181 -10 c 0xf0
EndSplineSet
EndChar

StartChar: at
Encoding: 64 64 35
Width: 930
Flags: MW
HStem: -120 70<370.5 490.5 370.5 490.5> 55 65<688.5 717 688.5 755> 55 75<432.5 455> 460 75<432.5 456.5 385 472.5> 650 70<370.5 559.5>
VStem: 45 90<194.5 405.5 194.5 420> 260 100<235 355 235 377> 550 100<175 405 405 405> 795 90<232 405.5>
LayerCount: 2
Fore
SplineSet
455 -120 m 0x00
 225 -120 45 60 45 300 c 0
 45 540 225 720 465 720 c 0
 705 720 885 540 885 300 c 0
 885 135 805 55 705 55 c 0
 654 55 621 67 600 82 c 0
 588 90 578 99 570 110 c 1
 565 110 l 1xbf80
 554 99 543 90 530 82 c 0
 507 67 475 55 435 55 c 0xdf80
 335 55 260 131 260 295 c 0
 260 459 335 535 435 535 c 0
 478 535 509 518 532 502 c 0
 545 493 556 482 565 470 c 1
 570 470 l 1
 580 525 l 1
 650 525 l 1
 650 140 l 1
 654 136 658 133 663 130 c 0
 671 125 682 120 695 120 c 0
 739 120 795 164 795 300 c 0
 795 511 654 650 465 650 c 0
 276 650 135 511 135 300 c 0
 135 89 276 -50 465 -50 c 0
 516 -50 554 -39 582 -28 c 0
 598 -21 612 -14 625 -5 c 1
 635 -5 l 1
 670 -65 l 1
 655 -76 636 -85 615 -93 c 0
 579 -108 526 -120 455 -120 c 0x00
460 130 m 0xdf80
 485 130 508 141 524 152 c 0
 533 159 542 166 550 175 c 1
 550 405 l 1
 542 415 533 424 524 432 c 0
 508 447 485 460 460 460 c 0
 405 460 360 415 360 295 c 0
 360 175 405 130 460 130 c 0xdf80
EndSplineSet
EndChar

StartChar: A
Encoding: 65 65 36
Width: 570
Flags: MW
HStem: 0 21G<15 15 15 115 455 455 455 555> 180 70<190 380 190 400 170 380> 595 105<283 287 283 283>
VStem: 15 540<0 0>
LayerCount: 2
Fore
SplineSet
15 0 m 1
 220 700 l 1
 350 700 l 1
 555 0 l 1
 455 0 l 1
 400 180 l 1
 170 180 l 1
 115 0 l 1
 15 0 l 1
190 250 m 1
 380 250 l 1
 300 525 l 2
 295 540 293 557 290 572 c 2
 287 595 l 1
 283 595 l 1
 280 571 l 2
 277 556 274 540 270 525 c 2
 190 250 l 1
EndSplineSet
Substitution2: "Single Substitution lookup 33 subtable" ordfeminine
EndChar

StartChar: B
Encoding: 66 66 37
Width: 575
Flags: MW
HStem: 0 70<190 280 190 280> 330 70<190 280 190 280> 630 70<190 280 190 190>
VStem: 90 100<70 70 70 330 400 630> 400 100<492.5 550.5> 425 100<157.5 228.5 132.5 242.5>
LayerCount: 2
Fore
SplineSet
90 0 m 1x00
 90 700 l 1
 280 700 l 2
 425 700 500 625 500 525 c 0
 500 460 471 422 442 399 c 0xf4
 425 386 406 376 385 370 c 1
 411 364 434 353 455 338 c 0
 490 311 525 267 525 190 c 0
 525 75 450 0 280 0 c 2
 90 0 l 1x00
190 400 m 1
 280 400 l 2
 356 400 400 444 400 515 c 0
 400 586 356 630 280 630 c 2
 190 630 l 1
 190 400 l 1
190 70 m 1
 280 70 l 2
 380 70 425 115 425 200 c 0xf8
 425 285 380 330 280 330 c 2
 190 330 l 1
 190 70 l 1
EndSplineSet
EndChar

StartChar: C
Encoding: 67 67 38
Width: 515
Flags: MW
HStem: -10 70<275 342.5 275 343> 640 70<270 332.5>
VStem: 55 100<240 460 240 480>
LayerCount: 2
Fore
SplineSet
315 -10 m 0
 155 -10 55 90 55 350 c 0
 55 610 156 710 305 710 c 0
 361 710 403 697 434 682 c 0
 451 674 467 665 480 655 c 1
 445 595 l 1
 435 595 l 1
 424 603 413 610 401 617 c 0
 380 628 350 640 315 640 c 0
 225 640 155 570 155 350 c 0
 155 130 225 60 325 60 c 0
 360 60 390 71 411 82 c 0
 423 89 434 96 445 105 c 1
 455 105 l 1
 490 45 l 1
 477 34 461 25 444 17 c 0
 413 2 371 -10 315 -10 c 0
EndSplineSet
EndChar

StartChar: D
Encoding: 68 68 39
Width: 585
Flags: MW
HStem: 0 70<190 240 190 240> 630 70<190 240 190 190>
VStem: 90 100<70 70 70 630> 430 100<244.5 455.5>
LayerCount: 2
Fore
SplineSet
90 0 m 1
 90 700 l 1
 240 700 l 2
 430 700 530 601 530 350 c 0
 530 99 430 0 240 0 c 2
 90 0 l 1
190 70 m 1
 240 70 l 2
 360 70 430 139 430 350 c 0
 430 561 360 630 240 630 c 2
 190 630 l 1
 190 70 l 1
EndSplineSet
EndChar

StartChar: E
Encoding: 69 69 40
Width: 510
Flags: MW
HStem: 0 70<190 480 190 480> 330 70<190 420 190 420> 630 70<190 480 190 190>
VStem: 90 100<70 330 400 630>
LayerCount: 2
Fore
SplineSet
90 0 m 1
 90 700 l 1
 480 700 l 1
 480 630 l 1
 190 630 l 1
 190 400 l 1
 420 400 l 1
 420 330 l 1
 190 330 l 1
 190 70 l 1
 480 70 l 1
 480 0 l 1
 90 0 l 1
EndSplineSet
EndChar

StartChar: F
Encoding: 70 70 41
Width: 500
Flags: MW
HStem: 0 21G<90 90 90 190> 320 70<190 420 190 420> 630 70<190 480 190 190>
VStem: 90 100<0 320 390 630>
LayerCount: 2
Fore
SplineSet
90 0 m 1
 90 700 l 1
 480 700 l 1
 480 630 l 1
 190 630 l 1
 190 390 l 1
 420 390 l 1
 420 320 l 1
 190 320 l 1
 190 0 l 1
 90 0 l 1
EndSplineSet
EndChar

StartChar: G
Encoding: 71 71 42
Width: 565
Flags: MW
HStem: -10 70<275 325 275 343.5> 310 70<285 400 285 470> 640 70<270 332.5>
VStem: 55 100<240 460 240 475.5> 400 100<80 310 310 310>
LayerCount: 2
Fore
SplineSet
315 -10 m 0
 165 -10 55 99 55 350 c 0
 55 601 165 710 305 710 c 0
 361 710 403 697 434 682 c 0
 451 674 467 665 480 655 c 1
 445 595 l 1
 435 595 l 1
 424 603 413 610 401 617 c 0
 380 628 350 640 315 640 c 0
 225 640 155 570 155 350 c 0
 155 130 225 60 325 60 c 0
 365 61 400 80 400 80 c 1
 400 310 l 1
 285 310 l 1
 285 380 l 1
 470 380 l 1
 500 350 l 1
 500 45 l 1
 486 34 470 25 451 17 c 0
 419 2 372 -10 315 -10 c 0
EndSplineSet
EndChar

StartChar: H
Encoding: 72 72 43
Width: 630
Flags: MW
HStem: 0 21G<90 90 90 190 440 440 440 540> 320 70<190 440 190 440> 680 20G<90 190 190 190 440 540 540 540>
VStem: 90 100<0 320 390 700> 440 100<0 320 320 320 390 700 0 700>
LayerCount: 2
Fore
SplineSet
90 0 m 1
 90 700 l 1
 190 700 l 1
 190 390 l 1
 440 390 l 1
 440 700 l 1
 540 700 l 1
 540 0 l 1
 440 0 l 1
 440 320 l 1
 190 320 l 1
 190 0 l 1
 90 0 l 1
EndSplineSet
EndChar

StartChar: I
Encoding: 73 73 44
Width: 280
Flags: MW
HStem: 0 21G<90 90 90 190> 680 20G<90 190 190 190>
VStem: 90 100<0 700 0 700>
LayerCount: 2
Fore
SplineSet
90 0 m 1
 90 700 l 1
 190 700 l 1
 190 0 l 1
 90 0 l 1
EndSplineSet
EndChar

StartChar: J
Encoding: 74 74 45
Width: 425
Flags: MW
HStem: -10 70<115 163 113.5 203> 680 20G<240 340 340 340>
VStem: 240 100<190 700>
LayerCount: 2
Fore
SplineSet
135 -10 m 0
 95 -10 61 1 37 12 c 0
 23 19 11 26 0 35 c 1
 30 100 l 1
 40 100 l 1
 48 93 57 86 66 80 c 0
 82 69 102 60 125 60 c 0
 201 60 240 99 240 190 c 2
 240 700 l 1
 340 700 l 1
 340 190 l 2
 340 59 271 -10 135 -10 c 0
EndSplineSet
EndChar

StartChar: K
Encoding: 75 75 46
Width: 555
Flags: MW
HStem: 0 21G<90 90 90 190 425 425 425 540> 680 20G<90 190 190 190 415 530 530 530>
VStem: 90 100<0 350 370 700>
LayerCount: 2
Fore
SplineSet
90 0 m 1
 90 700 l 1
 190 700 l 1
 190 370 l 1
 415 700 l 1
 530 700 l 1
 300 360 l 1
 540 0 l 1
 425 0 l 1
 190 350 l 1
 190 0 l 1
 90 0 l 1
EndSplineSet
EndChar

StartChar: L
Encoding: 76 76 47
Width: 490
Flags: MW
HStem: 0 70<190 480 190 480> 680 20G<90 190 190 190>
VStem: 90 100<70 700 70 700 70 700>
LayerCount: 2
Fore
SplineSet
90 0 m 1
 90 700 l 1
 190 700 l 1
 190 70 l 1
 480 70 l 1
 480 0 l 1
 90 0 l 1
EndSplineSet
EndChar

StartChar: M
Encoding: 77 77 48
Width: 840
Flags: MW
HStem: 0 21G<90 90 90 190 650 650 650 750> 125 100<418 422 418 460 380 422> 680 20G<90 190 190 190 650 750 750 750>
VStem: 90 100<0 440 0 525 0 700> 650 100<0 440 440 447.5 525 525 0 700>
LayerCount: 2
Fore
SplineSet
90 0 m 1
 90 700 l 1
 190 700 l 1
 400 275 l 2
 405 267 410 255 413 244 c 0
 415 237 417 231 418 225 c 1
 422 225 l 1
 423 231 425 237 427 244 c 0
 430 255 435 267 440 275 c 2
 650 700 l 1
 750 700 l 1
 750 0 l 1
 650 0 l 1
 650 440 l 2
 650 455 651 475 652 494 c 2
 654 525 l 1
 650 525 l 1
 641 494 l 2
 634 475 628 455 620 440 c 2
 460 125 l 1
 380 125 l 1
 220 440 l 2
 212 455 206 475 199 494 c 2
 190 525 l 1
 186 525 l 1
 188 494 l 2
 189 475 190 455 190 440 c 2xf8
 190 0 l 1
 90 0 l 1
EndSplineSet
EndChar

StartChar: N
Encoding: 78 78 49
Width: 630
Flags: MW
HStem: 0 21G<90 90 90 190 430 430 430 540> 550 150<186 190 186 186> 680 20G<90 200 200 200 440 540 540 540>
VStem: 90 100<0 465 0 550 0 700> 440 100<150 150 235 700 0 700>
LayerCount: 2
Fore
SplineSet
90 0 m 1x00
 90 700 l 1
 200 700 l 1
 410 235 l 2
 417 220 423 198 430 181 c 0
 433 170 437 160 440 150 c 1
 444 150 l 1
 442 181 l 2
 441 198 440 220 440 235 c 2xd8
 440 700 l 1
 540 700 l 1
 540 0 l 1
 430 0 l 1
 220 465 l 2
 213 480 206 500 200 519 c 0
 197 529 193 539 190 550 c 1
 186 550 l 1
 188 519 l 2
 189 500 190 480 190 465 c 2xb8
 190 0 l 1
 90 0 l 1x00
EndSplineSet
EndChar

StartChar: O
Encoding: 79 79 50
Width: 600
Flags: MW
HStem: -10 70<262.5 337.5 262.5 372.5> 640 70<262.5 337.5>
VStem: 55 100<240 460 240 480> 445 100<240 460>
LayerCount: 2
Fore
SplineSet
300 -10 m 0
 155 -10 55 90 55 350 c 0
 55 610 155 710 300 710 c 0
 445 710 545 610 545 350 c 0
 545 90 445 -10 300 -10 c 0
300 60 m 0
 375 60 445 130 445 350 c 0
 445 570 375 640 300 640 c 0
 225 640 155 570 155 350 c 0
 155 130 225 60 300 60 c 0
EndSplineSet
Substitution2: "Single Substitution lookup 33 subtable" ordmasculine
EndChar

StartChar: P
Encoding: 80 80 51
Width: 565
Flags: MW
HStem: 0 21G<90 90 90 190> 240 70<190 270 190 270> 630 70<190 270 190 190>
VStem: 90 100<0 240 310 630> 420 100<414.5 525.5>
LayerCount: 2
Fore
SplineSet
90 0 m 1
 90 700 l 1
 270 700 l 2
 441 700 520 621 520 470 c 0
 520 319 441 240 270 240 c 2
 190 240 l 1
 190 0 l 1
 90 0 l 1
190 310 m 1
 270 310 l 2
 370 310 420 359 420 470 c 0
 420 581 370 630 270 630 c 2
 190 630 l 1
 190 310 l 1
EndSplineSet
EndChar

StartChar: Q
Encoding: 81 81 52
Width: 600
Flags: MW
HStem: -155 70<395 415> -5 21G 640 70<262.5 337.5>
VStem: 55 100<240 460 240 480> 250 100<-33 -5 -33 -5> 445 100<240 460>
CounterMasks: 1 1c
LayerCount: 2
Fore
SplineSet
405 -155 m 0
 309 -155 250 -96 250 -5 c 1
 135 14 55 121 55 350 c 0
 55 610 155 710 300 710 c 0
 445 710 545 610 545 350 c 0
 545 121 465 14 350 -5 c 1
 350 -61 375 -85 415 -85 c 0
 425 -85 433 -83 440 -80 c 2
 450 -75 l 1
 460 -75 l 1
 480 -140 l 1
 473 -143 465 -145 457 -148 c 0
 442 -152 425 -155 405 -155 c 0
300 60 m 0xfc
 375 60 445 130 445 350 c 0
 445 570 375 640 300 640 c 0
 225 640 155 570 155 350 c 0
 155 130 225 60 300 60 c 0xfc
EndSplineSet
EndChar

StartChar: R
Encoding: 82 82 53
Width: 575
Flags: MW
HStem: 0 21G<90 90 90 190 425 425 425 540> 260 70<190 260 260 270 190 260> 630 70<190 260 190 190>
VStem: 90 100<0 260 330 630> 410 100<430 530>
LayerCount: 2
Fore
SplineSet
90 0 m 1
 90 700 l 1
 260 700 l 2
 431 700 510 621 510 480 c 0
 510 373 464 305 373 275 c 1
 540 0 l 1
 425 0 l 1
 270 260 l 1
 190 260 l 1
 190 0 l 1
 90 0 l 1
190 330 m 1
 260 330 l 2
 360 330 410 380 410 480 c 0
 410 580 360 630 260 630 c 2
 190 630 l 1
 190 330 l 1
EndSplineSet
EndChar

StartChar: S
Encoding: 83 83 54
Width: 505
Flags: MW
HStem: -10 70<207.5 275.5 207.5 314.5> 640 70<230.5 287.5>
VStem: 45 100<450 559.5 450 575> 370 100<144.5 260>
LayerCount: 2
Fore
SplineSet
240 -10 m 0
 175 -10 124 2 89 17 c 0
 68 25 50 34 35 45 c 1
 70 105 l 1
 80 105 l 1
 92 96 106 89 121 82 c 0
 148 71 185 60 230 60 c 0
 321 60 370 109 370 180 c 0
 370 340 45 300 45 520 c 0
 45 630 124 710 255 710 c 0
 320 710 368 697 401 682 c 0
 420 674 436 665 450 655 c 1
 415 595 l 1
 405 595 l 1
 395 603 383 610 369 617 c 0
 345 628 310 640 265 640 c 0
 196 640 145 589 145 530 c 0
 145 370 470 410 470 190 c 0
 470 70 389 -10 240 -10 c 0
EndSplineSet
EndChar

StartChar: T
Encoding: 84 84 55
Width: 480
Flags: MW
HStem: 0 21G<190 190 190 290> 630 70<10 190 10 470 290 290 290 470>
VStem: 190 100<0 630 0 630>
LayerCount: 2
Fore
SplineSet
190 0 m 1
 190 630 l 1
 10 630 l 1
 10 700 l 1
 470 700 l 1
 470 630 l 1
 290 630 l 1
 290 0 l 1
 190 0 l 1
EndSplineSet
EndChar

StartChar: U
Encoding: 85 85 56
Width: 620
Flags: MW
HStem: -10 70<272 348 272 382.5> 680 20G<85 185 185 185 435 535 535 535>
VStem: 85 100<220 700> 435 100<220 700>
LayerCount: 2
Fore
SplineSet
310 -10 m 0
 165 -10 85 69 85 220 c 2
 85 700 l 1
 185 700 l 1
 185 220 l 2
 185 109 234 60 310 60 c 0
 386 60 435 109 435 220 c 2
 435 700 l 1
 535 700 l 1
 535 220 l 2
 535 69 455 -10 310 -10 c 0
EndSplineSet
EndChar

StartChar: V
Encoding: 86 86 57
Width: 523
Flags: MW
HStem: 0 105<210 267 263 267 263 313> 680 20G<15 105 105 105 425 508 508 508>
VStem: 15 493<700 700>
LayerCount: 2
Fore
SplineSet
210 0 m 1
 15 700 l 1
 105 700 l 1
 250 175 l 2
 254 160 256 144 259 129 c 2
 263 105 l 1
 267 105 l 1
 270 129 l 2
 273 144 276 160 280 175 c 2
 425 700 l 1
 508 700 l 1
 313 0 l 1
 210 0 l 1
EndSplineSet
EndChar

StartChar: W
Encoding: 87 87 58
Width: 817
Flags: MW
HStem: 0 130<180 234 230 234 230 276 583 587> 680 20G<15 105 105 105 360 457 457 457 712 802 802 802>
VStem: 15 787<700 700>
LayerCount: 2
Fore
SplineSet
180 0 m 1
 15 700 l 1
 105 700 l 1
 220 210 l 2
 223 195 226 175 228 159 c 0
 229 150 230 140 230 130 c 1
 234 130 l 1
 237 159 l 2
 240 175 241 195 245 210 c 2
 360 700 l 1
 457 700 l 1
 572 210 l 2
 575 195 577 175 580 159 c 2
 583 130 l 1
 587 130 l 1
 587 140 587 150 589 159 c 0
 593 175 593 195 597 210 c 2
 712 700 l 1
 802 700 l 1
 637 0 l 1
 536 0 l 1
 421 490 l 2
 417 505 415 525 412 541 c 2
 408 570 l 1
 404 570 l 1
 400 541 l 1
 391 490 l 1xe0
 276 0 l 1
 180 0 l 1
EndSplineSet
EndChar

StartChar: X
Encoding: 88 88 59
Width: 530
Flags: MW
HStem: 0 21G<15 15 15 125 405 405 405 515> 680 20G<20 130 130 130 400 510 510 510>
VStem: 15 500<0 0>
LayerCount: 2
Fore
SplineSet
15 0 m 1
 200 355 l 1
 20 700 l 1
 130 700 l 1
 245 475 l 2
 249 466 254 455 257 446 c 2
 263 430 l 1
 267 430 l 1
 273 446 l 2
 276 455 280 466 285 475 c 2
 400 700 l 1
 510 700 l 1
 330 355 l 1
 515 0 l 1
 405 0 l 1
 285 235 l 2
 280 243 276 255 273 264 c 2
 267 280 l 1
 263 280 l 1
 257 264 l 2
 254 254 250 244 245 235 c 2
 125 0 l 1
 15 0 l 1
EndSplineSet
EndChar

StartChar: Y
Encoding: 89 89 60
Width: 530
Flags: MW
HStem: 0 21G<215 215 215 315> 680 20G<0 105 105 105 440 530 530 530>
VStem: 215 100<0 230 0 230>
LayerCount: 2
Fore
SplineSet
215 0 m 1
 215 230 l 1
 0 700 l 1
 105 700 l 1
 250 365 l 2
 255 352 260 338 263 326 c 0
 265 319 267 312 268 305 c 1
 272 305 l 1
 273 312 275 319 277 326 c 0
 280 338 283 352 290 365 c 2
 440 700 l 1
 530 700 l 1
 315 230 l 1
 315 0 l 1
 215 0 l 1
EndSplineSet
EndChar

StartChar: Z
Encoding: 90 90 61
Width: 485
Flags: MW
HStem: 0 70<145 460 145 460> 630 70<25 335 25 455>
VStem: 25 435<0 70 0 75 0 75>
LayerCount: 2
Fore
SplineSet
25 0 m 1
 25 75 l 1
 335 630 l 1
 25 630 l 1
 25 700 l 1
 455 700 l 1
 455 625 l 1
 145 70 l 1
 460 70 l 1
 460 0 l 1
 25 0 l 1
EndSplineSet
EndChar

StartChar: bracketleft
Encoding: 91 91 62
Width: 310
Flags: MW
HStem: -170 70<190 290 190 290> 660 70<190 290 190 190>
VStem: 90 100<-100 660 -100 730 -100 730>
LayerCount: 2
Fore
SplineSet
90 -170 m 1
 90 730 l 1
 290 730 l 1
 290 660 l 1
 190 660 l 1
 190 -100 l 1
 290 -100 l 1
 290 -170 l 1
 90 -170 l 1
EndSplineSet
EndChar

StartChar: backslash
Encoding: 92 92 63
Width: 410
Flags: MW
HStem: 0 21G<310 310 310 410> 680 20G<0 100 100 100>
VStem: 0 410
LayerCount: 2
Fore
SplineSet
310 0 m 1
 0 700 l 1
 100 700 l 1
 410 0 l 1
 310 0 l 1
EndSplineSet
EndChar

StartChar: bracketright
Encoding: 93 93 64
Width: 310
Flags: MW
HStem: -170 70<20 120 20 120 20 220> 660 70<20 120 20 220>
VStem: 120 100<-100 660 660 660>
LayerCount: 2
Fore
SplineSet
20 -170 m 1
 20 -100 l 1
 120 -100 l 1
 120 660 l 1
 20 660 l 1
 20 730 l 1
 220 730 l 1
 220 -170 l 1
 20 -170 l 1
EndSplineSet
EndChar

StartChar: asciicircum
Encoding: 94 94 65
Width: 430
Flags: MW
HStem: 440 280<0 250 0 250 180 330 180 430>
VStem: 0 430<440 440>
LayerCount: 2
Fore
SplineSet
0 440 m 1
 180 720 l 1
 250 720 l 1
 430 440 l 1
 330 440 l 1
 215 620 l 1
 100 440 l 1
 0 440 l 1
EndSplineSet
EndChar

StartChar: underscore
Encoding: 95 95 66
Width: 380
Flags: MW
HStem: -130 80<0 380 0 380>
VStem: 0 380<-130 -50 -130 -50>
LayerCount: 2
Fore
SplineSet
0 -130 m 1
 0 -50 l 1
 380 -50 l 1
 380 -130 l 1
 0 -130 l 1
EndSplineSet
EndChar

StartChar: grave
Encoding: 96 96 67
Width: 175
Flags: MW
HStem: 550 150<100 100 100 120 10 165>
VStem: 10 155<550 700>
LayerCount: 2
Fore
SplineSet
100 550 m 1
 10 700 l 1
 120 700 l 1
 165 550 l 1
 100 550 l 1
EndSplineSet
EndChar

StartChar: a
Encoding: 97 97 68
Width: 510
Flags: MW
HStem: -10 75<205 235.5> 225 70<220 340 260 340> 440 70<219.5 267.5>
VStem: 45 100<119.5 167.5 119.5 190> 340 100<125 225 225 225 295 320 0 360>
LayerCount: 2
Fore
SplineSet
210 -10 m 0
 105 -10 45 49 45 145 c 0
 45 235 105 295 260 295 c 2
 340 295 l 1
 340 320 l 2
 340 400 300 440 235 440 c 0
 204 440 177 428 157 417 c 0
 145 410 134 403 125 395 c 1
 115 395 l 1
 80 455 l 1
 93 465 108 474 125 482 c 0
 154 497 194 510 245 510 c 0
 360 510 440 430 440 320 c 2
 440 0 l 1
 370 0 l 1
 360 60 l 1
 355 60 l 1xf8
 346 47 334 35 320 25 c 0
 296 6 261 -10 210 -10 c 0
235 65 m 0
 266 65 291 80 310 95 c 0
 321 104 331 114 340 125 c 1
 340 225 l 1
 260 225 l 2
 180 225 145 190 145 145 c 0
 145 94 175 65 235 65 c 0
EndSplineSet
Substitution2: "Single Substitution lookup 33 subtable" ordfeminine
EndChar

StartChar: b
Encoding: 98 98 69
Width: 535
Flags: MW
HStem: -10 75<279.5 308 264.5 352.5> 0 21G<75 145 75 75> 440 70<269.5 302> 680 20G<105 175 175 175>
VStem: 75 100<125 420 480 670 670 670> 385 100<182.5 320>
LayerCount: 2
Fore
SplineSet
305 -10 m 0x00
 254 -10 219 6 195 25 c 0
 181 35 169 47 160 60 c 1
 155 60 l 1x7c
 145 0 l 1
 75 0 l 1xbc
 75 670 l 1
 105 700 l 1
 175 700 l 1
 175 480 l 1
 184 485 195 490 207 495 c 0
 227 502 254 510 285 510 c 0
 400 510 485 425 485 250 c 0
 485 75 400 -10 305 -10 c 0x00
280 65 m 0
 336 65 385 115 385 250 c 0
 385 390 334 440 270 440 c 0
 242 440 219 435 202 430 c 0
 192 427 183 424 175 420 c 1
 175 125 l 1
 184 114 194 104 205 95 c 0
 224 80 249 65 280 65 c 0
EndSplineSet
EndChar

StartChar: c
Encoding: 99 99 70
Width: 455
Flags: MW
HStem: -10 70<240 295.5 240 295.5> 440 70<235.5 285.5>
VStem: 50 100<180 320 180 337.5>
LayerCount: 2
Fore
SplineSet
270 -10 m 0
 135 -10 50 75 50 250 c 0
 50 425 135 510 260 510 c 0
 311 510 351 497 380 482 c 0
 397 474 412 465 425 455 c 1
 390 395 l 1
 380 395 l 1
 370 403 359 410 347 417 c 0
 327 428 301 440 270 440 c 0
 201 440 150 390 150 250 c 0
 150 110 200 60 280 60 c 0
 311 60 337 71 357 82 c 0
 369 89 380 96 390 105 c 1
 400 105 l 1
 435 45 l 1
 422 34 407 25 390 17 c 0
 361 2 321 -10 270 -10 c 0
EndSplineSet
EndChar

StartChar: d
Encoding: 100 100 71
Width: 535
Flags: MW
HStem: -10 75<227 255.5> 440 70<233 265.5 192.5 278.5> 680 20G<390 460 460 460>
VStem: 50 100<182.5 320 182.5 337.5> 360 100<125 420 420 420 480 670 670 670>
LayerCount: 2
Fore
SplineSet
230 -10 m 0
 135 -10 50 75 50 250 c 0
 50 425 135 510 250 510 c 0
 281 510 307 502 327 495 c 2
 360 480 l 1
 360 670 l 1
 390 700 l 1
 460 700 l 1
 460 0 l 1
 390 0 l 1
 380 60 l 1
 375 60 l 1xf8
 366 47 354 35 340 25 c 0
 316 6 281 -10 230 -10 c 0
255 65 m 0
 286 65 311 80 330 95 c 0
 341 104 351 114 360 125 c 1
 360 420 l 1
 352 424 343 427 333 430 c 0
 316 435 292 440 265 440 c 0
 201 440 150 390 150 250 c 0
 150 115 199 65 255 65 c 0
EndSplineSet
EndChar

StartChar: e
Encoding: 101 101 72
Width: 505
Flags: MW
HStem: -10 70<240 295.5 240 295.5> 215 70<150 360 150 440 150 360> 440 70<225 285>
VStem: 50 100<162.5 215 285 337.5> 360 100<235 340.5>
CounterMasks: 1 e0
LayerCount: 2
Fore
SplineSet
270 -10 m 0
 135 -10 50 75 50 250 c 0
 50 425 135 510 255 510 c 0
 375 510 460 425 460 250 c 2
 460 235 l 1
 440 215 l 1
 150 215 l 1
 150 110 200 60 280 60 c 0
 311 60 337 71 357 82 c 0
 369 89 380 96 390 105 c 1
 400 105 l 1
 435 45 l 1
 422 34 407 25 390 17 c 0
 361 2 321 -10 270 -10 c 0
150 285 m 1
 360 285 l 1
 360 396 315 440 255 440 c 0
 195 440 150 396 150 285 c 1
EndSplineSet
EndChar

StartChar: f
Encoding: 102 102 73
Width: 340
Flags: MW
HStem: 0 21G<85 85 85 185> 430 70<20 85 20 85 185 320> 640 70<237.5 271.5>
VStem: 85 100<0 430 0 430 500 550>
LayerCount: 2
Fore
SplineSet
85 0 m 1
 85 430 l 1
 20 430 l 1
 20 500 l 1
 85 500 l 1
 85 550 l 2
 85 646 150 710 250 710 c 0
 293 710 327 697 354 682 c 0
 369 674 383 665 395 655 c 1
 360 595 l 1
 350 595 l 1
 341 603 332 610 322 617 c 0
 305 628 283 640 260 640 c 0
 215 640 185 610 185 550 c 2
 185 500 l 1
 320 500 l 1
 320 430 l 1
 185 430 l 1
 185 0 l 1
 85 0 l 1
EndSplineSet
EndChar

StartChar: g
Encoding: 103 103 74
Width: 535
Flags: MW
HStem: -210 70<219.5 277.5 219.5 312.5> -10 70<233 265.5> 435 75<227 255.5 182.5 270.5> 480 20G<390 460 460 460>
VStem: 50 100<180 317.5 180 337.5> 360 100<-10 20 20 20 80 375 375 375>
LayerCount: 2
Fore
SplineSet
245 -210 m 0x00
 194 -210 154 -198 125 -183 c 0
 108 -175 93 -166 80 -155 c 1
 115 -95 l 1
 125 -95 l 1
 134 -104 145 -111 157 -118 c 0
 177 -129 204 -140 235 -140 c 0
 320 -140 360 -101 360 -10 c 2
 360 20 l 1
 350 14 339 9 327 5 c 0
 307 -3 281 -10 250 -10 c 0
 135 -10 50 75 50 250 c 0
 50 425 135 510 230 510 c 0
 281 510 316 492 340 475 c 0
 354 464 366 453 375 440 c 1
 380 440 l 1xdc
 390 500 l 1
 460 500 l 1xec
 460 -10 l 2
 460 -130 380 -210 245 -210 c 0x00
265 60 m 0
 292 60 316 65 333 70 c 0
 343 73 352 76 360 80 c 1
 360 375 l 1
 351 386 341 396 330 405 c 0
 311 420 286 435 255 435 c 0
 199 435 150 385 150 250 c 0
 150 110 201 60 265 60 c 0
EndSplineSet
EndChar

StartChar: h
Encoding: 104 104 75
Width: 545
Flags: MW
HStem: 0 21G<75 75 75 175 375 375 375 475> 435 75<283.5 308> 680 20G<105 175 175 175>
VStem: 75 100<0 375 460 670 670 670> 375 100<0 340 0 368>
LayerCount: 2
Fore
SplineSet
75 0 m 1
 75 670 l 1
 105 700 l 1
 175 700 l 1
 175 460 l 1
 184 469 195 478 208 485 c 0
 231 497 262 510 305 510 c 0
 405 510 475 440 475 340 c 2
 475 0 l 1
 375 0 l 1
 375 340 l 2
 375 396 336 435 280 435 c 0
 249 435 224 420 205 405 c 0
 194 396 184 386 175 375 c 1
 175 0 l 1
 75 0 l 1
EndSplineSet
EndChar

StartChar: i
Encoding: 105 105 76
Width: 250
Flags: MW
HStem: 0 21G<75 75 75 175> 480 20G<75 175 175 175> 580 120<107.5 142.5>
VStem: 65 120<622.5 657.5>
LayerCount: 2
Fore
SplineSet
125 580 m 0
 90 580 65 605 65 640 c 0
 65 675 90 700 125 700 c 0
 160 700 185 675 185 640 c 0
 185 605 160 580 125 580 c 0
75 0 m 1
 75 500 l 1
 175 500 l 1
 175 0 l 1
 75 0 l 1
EndSplineSet
EndChar

StartChar: j
Encoding: 106 106 77
Width: 250
Flags: MW
HStem: -200 70<-5.5 22.5 -7.5 60> 480 20G<75 175 175 175> 580 120<107.5 142.5>
VStem: 65 120<622.5 657.5>
LayerCount: 2
Fore
SplineSet
125 580 m 0
 90 580 65 605 65 640 c 0
 65 675 90 700 125 700 c 0
 160 700 185 675 185 640 c 0
 185 605 160 580 125 580 c 0
10 -200 m 0
 -21 -200 -46 -193 -63 -185 c 0
 -74 -181 -83 -176 -90 -170 c 1
 -65 -105 l 1
 -55 -105 l 1
 -50 -110 -45 -115 -39 -118 c 0
 -28 -125 -15 -130 0 -130 c 0
 45 -130 75 -100 75 -40 c 2
 75 500 l 1
 175 500 l 1
 175 -40 l 2xf0
 175 -136 110 -200 10 -200 c 0
EndSplineSet
EndChar

StartChar: k
Encoding: 107 107 78
Width: 480
Flags: MW
HStem: 0 21G<75 75 75 175 355 355 355 470> 480 20G<345 460 460 460> 680 20G<105 175 175 175>
VStem: 75 100<0 250 270 670 670 670>
LayerCount: 2
Fore
SplineSet
75 0 m 1
 75 670 l 1
 105 700 l 1
 175 700 l 1
 175 270 l 1
 345 500 l 1
 460 500 l 1
 280 260 l 1
 470 0 l 1
 355 0 l 1
 175 250 l 1
 175 0 l 1
 75 0 l 1
EndSplineSet
EndChar

StartChar: l
Encoding: 108 108 79
Width: 250
Flags: MW
HStem: 0 21G<75 75 75 175> 680 20G<105 175 175 175>
VStem: 75 100<0 670 670 670>
LayerCount: 2
Fore
SplineSet
75 0 m 1
 75 670 l 1
 105 700 l 1
 175 700 l 1
 175 0 l 1
 75 0 l 1
EndSplineSet
EndChar

StartChar: m
Encoding: 109 109 80
Width: 805
Flags: MW
HStem: 0 21G<75 75 75 175 355 355 355 455 635 635 635 735> 435 75<273.5 292.5 552.5 572.5>
VStem: 75 100<0 375 0 500> 355 100<0 340 340 368> 635 100<0 340 0 368>
CounterMasks: 1 38
LayerCount: 2
Fore
SplineSet
75 0 m 1
 75 500 l 1
 145 500 l 1
 155 440 l 1
 160 440 l 1xf8
 171 453 183 464 196 475 c 0
 219 492 252 510 295 510 c 0
 342 510 375 492 396 475 c 0
 408 464 418 453 425 440 c 1
 437 453 451 464 466 475 c 0
 493 492 530 510 575 510 c 0
 665 510 735 440 735 340 c 2
 735 0 l 1
 635 0 l 1
 635 340 l 2
 635 396 595 435 550 435 c 0
 525 435 501 422 484 410 c 0
 473 403 464 394 455 385 c 1
 455 0 l 1
 355 0 l 1
 355 340 l 2
 355 396 315 435 270 435 c 0
 245 435 221 420 204 405 c 0
 193 396 184 386 175 375 c 1
 175 0 l 1
 75 0 l 1
EndSplineSet
EndChar

StartChar: n
Encoding: 110 110 81
Width: 545
Flags: MW
HStem: 0 21G<75 75 75 175 375 375 375 475> 435 75<279.5 308>
VStem: 75 100<0 375 0 500> 375 100<0 340 0 368>
LayerCount: 2
Fore
SplineSet
75 0 m 1
 75 500 l 1
 145 500 l 1
 155 440 l 1
 160 440 l 1xf0
 169 453 181 464 195 475 c 0
 219 492 254 510 305 510 c 0
 405 510 475 440 475 340 c 2
 475 0 l 1
 375 0 l 1
 375 340 l 2
 375 396 336 435 280 435 c 0
 249 435 224 420 205 405 c 0
 194 396 184 386 175 375 c 1
 175 0 l 1
 75 0 l 1
EndSplineSet
EndChar

StartChar: o
Encoding: 111 111 82
Width: 530
Flags: MW
HStem: -10 70<233 297 233 330> 440 70<233 297>
VStem: 50 100<180 320 180 337.5> 380 100<180 320>
LayerCount: 2
Fore
SplineSet
265 -10 m 0
 134 -10 50 75 50 250 c 0
 50 425 134 510 265 510 c 0
 395 510 480 425 480 250 c 0
 480 75 395 -10 265 -10 c 0
265 60 m 0
 329 60 380 110 380 250 c 0
 380 390 329 440 265 440 c 0
 201 440 150 390 150 250 c 0
 150 110 201 60 265 60 c 0
EndSplineSet
Substitution2: "Single Substitution lookup 33 subtable" ordmasculine
EndChar

StartChar: p
Encoding: 112 112 83
Width: 535
Flags: MW
HStem: -10 70<269.5 302 256 342.5> 435 75<279.5 308> 480 20G<75 145 145 145>
VStem: 75 100<-170 20 -170 80 80 375> 385 100<180 317.5>
LayerCount: 2
Fore
SplineSet
75 -200 m 1x00
 75 500 l 1
 145 500 l 1
 155 440 l 1
 160 440 l 1xd8
 169 453 181 464 195 475 c 0
 219 492 254 510 305 510 c 0
 400 510 485 425 485 250 c 0
 485 75 400 -10 285 -10 c 0
 254 -10 227 -3 207 5 c 0
 195 9 184 14 175 20 c 1
 175 -170 l 1
 145 -200 l 1
 75 -200 l 1x00
270 60 m 0
 334 60 385 110 385 250 c 0
 385 385 336 435 280 435 c 0
 249 435 224 420 205 405 c 0
 194 396 184 386 175 375 c 1xb8
 175 80 l 1
 183 76 192 73 202 70 c 0
 219 65 242 60 270 60 c 0
EndSplineSet
EndChar

StartChar: q
Encoding: 113 113 84
Width: 535
Flags: MW
HStem: -10 70<233 265.5> 435 75<227 255.5 182.5 270.5> 480 20G<390 460 460 460>
VStem: 50 100<180 317.5 180 337.5> 360 100<-170 20 20 20 80 375 375 375>
LayerCount: 2
Fore
SplineSet
390 -200 m 1x00
 360 -170 l 1
 360 20 l 1
 350 14 339 9 327 5 c 0
 307 -3 281 -10 250 -10 c 0
 135 -10 50 75 50 250 c 0
 50 425 135 510 230 510 c 0
 281 510 316 492 340 475 c 0
 354 464 366 453 375 440 c 1
 380 440 l 1xb8
 390 500 l 1
 460 500 l 1xd8
 460 -200 l 1
 390 -200 l 1x00
265 60 m 0
 292 60 316 65 333 70 c 0
 343 73 352 76 360 80 c 1
 360 375 l 1
 351 386 341 396 330 405 c 0
 311 420 286 435 255 435 c 0
 199 435 150 385 150 250 c 0
 150 110 201 60 265 60 c 0
EndSplineSet
EndChar

StartChar: r
Encoding: 114 114 85
Width: 365
Flags: MW
HStem: 0 21G<75 75 75 175> 430 80<276 282.5> 480 20G<75 145 145 145 365 365> 485 20G<346 346>
VStem: 75 100<0 370 0 500>
LayerCount: 2
Fore
SplineSet
75 0 m 1x00
 75 500 l 1
 145 500 l 1
 155 440 l 1
 160 440 l 1xc8
 169 453 181 464 194 475 c 0
 217 492 252 510 300 510 c 0x98
 317 510 334 508 346 505 c 2xa8
 365 500 l 1
 350 420 l 1
 340 420 l 2xc8
 333 421 326 423 319 425 c 0
 306 428 290 430 275 430 c 0
 247 430 223 415 204 400 c 0
 193 391 184 381 175 370 c 1x98
 175 0 l 1
 75 0 l 1x00
EndSplineSet
EndChar

StartChar: s
Encoding: 115 115 86
Width: 460
Flags: MW
HStem: -10 70<190 252.5 190 292.5> 440 70<209.5 262.5>
VStem: 45 100<320.5 392.5 320.5 407.5> 325 100<110 185>
LayerCount: 2
Fore
SplineSet
220 -10 m 0
 160 -10 113 2 82 17 c 0
 64 25 48 34 35 45 c 1
 70 105 l 1
 80 105 l 1
 90 96 102 89 115 82 c 0
 138 71 170 60 210 60 c 0
 295 60 325 90 325 130 c 0
 325 240 45 195 45 365 c 0
 45 450 104 510 235 510 c 0
 291 510 333 497 364 482 c 0
 381 474 397 465 410 455 c 1
 375 395 l 1
 365 395 l 1
 354 403 343 410 331 417 c 0
 310 428 280 440 245 440 c 0
 174 440 145 410 145 375 c 0
 145 266 425 309 425 140 c 0
 425 50 365 -10 220 -10 c 0
EndSplineSet
EndChar

StartChar: t
Encoding: 116 116 87
Width: 400
Flags: MW
HStem: -10 70<247.5 280> 430 70<195 320 195 320>
VStem: 95 100<150 430>
LayerCount: 2
Fore
SplineSet
260 -10 m 0
 160 -10 95 54 95 150 c 2
 95 430 l 1
 20 430 l 1
 20 490 l 1
 150 620 l 1
 195 620 l 1
 195 500 l 1
 320 500 l 1
 320 430 l 1
 195 430 l 1
 195 150 l 2
 195 90 225 60 270 60 c 0
 293 60 313 69 329 80 c 0
 338 86 347 93 355 100 c 1
 365 100 l 1
 400 40 l 1
 388 31 375 22 360 15 c 0
 335 2 300 -10 260 -10 c 0
EndSplineSet
EndChar

StartChar: u
Encoding: 117 117 88
Width: 550
Flags: MW
HStem: -10 75<242 270.5> 0 21G<405 475 405 405> 480 20G<75 175 175 175 375 475 475 475>
VStem: 75 100<160 500> 375 100<125 500 0 500>
LayerCount: 2
Fore
SplineSet
245 -10 m 0x00
 145 -10 75 60 75 160 c 2
 75 500 l 1
 175 500 l 1
 175 160 l 2
 175 104 214 65 270 65 c 0
 301 65 326 80 345 95 c 0
 356 104 366 114 375 125 c 1x78
 375 500 l 1
 475 500 l 1
 475 0 l 1
 405 0 l 1
 395 60 l 1
 390 60 l 1xb8
 381 47 369 35 355 25 c 0
 331 6 296 -10 245 -10 c 0x00
EndSplineSet
EndChar

StartChar: v
Encoding: 118 118 89
Width: 470
Flags: MW
HStem: 0 100<185 237 233 237 233 278> 480 20G<25 115 115 115 355 438 438 438>
VStem: 25 413<500 500>
LayerCount: 2
Fore
SplineSet
185 0 m 1
 25 500 l 1
 115 500 l 1
 220 170 l 2
 225 155 227 139 230 124 c 2
 233 100 l 1
 237 100 l 1
 240 124 l 2
 243 139 245 155 250 170 c 2
 355 500 l 1
 438 500 l 1
 278 0 l 1
 185 0 l 1
EndSplineSet
EndChar

StartChar: w
Encoding: 119 119 90
Width: 710
Flags: MW
HStem: 0 130<145 204 200 204 200 245 486 490> 385 115<343 347 343 343>
VStem: 15 660<500 500>
LayerCount: 2
Fore
SplineSet
145 0 m 1
 15 500 l 1
 110 500 l 1
 190 195 l 2
 194 180 195 163 198 151 c 2
 200 130 l 1
 204 130 l 1
 204 137 205 144 206 151 c 0
 209 163 211 180 215 195 c 2
 297 500 l 1
 397 500 l 1
 475 195 l 2
 479 180 480 163 483 151 c 2
 486 130 l 1
 490 130 l 1
 490 137 491 144 492 151 c 0
 494 164 496 179 500 195 c 2
 580 500 l 1
 675 500 l 1
 545 0 l 1
 445 0 l 1
 360 315 l 2
 356 327 353 344 351 359 c 2
 347 385 l 1
 343 385 l 1
 339 359 l 2
 337 344 333 327 330 315 c 2
 245 0 l 1
 145 0 l 1
EndSplineSet
EndChar

StartChar: x
Encoding: 120 120 91
Width: 460
Flags: MW
HStem: 0 21G<15 15 15 125 335 335 335 445> 480 20G<20 130 130 130 330 440 440 440>
VStem: 15 430<0 0>
LayerCount: 2
Fore
SplineSet
15 0 m 1
 170 255 l 1
 20 500 l 1
 130 500 l 1
 210 360 l 2
 214 352 219 342 222 334 c 2
 228 320 l 1
 232 320 l 1
 238 334 l 2
 241 342 245 352 250 360 c 2
 330 500 l 1
 440 500 l 1
 290 255 l 1
 445 0 l 1
 335 0 l 1
 250 145 l 2
 245 154 240 162 237 171 c 0
 235 176 233 180 232 185 c 1
 228 185 l 1
 227 180 225 176 223 171 c 0
 220 162 215 154 210 145 c 2
 125 0 l 1
 15 0 l 1
EndSplineSet
EndChar

StartChar: y
Encoding: 121 121 92
Width: 475
Flags: MW
HStem: -210 70<119.5 142.5 117.5 177.5> 0 21G<190 220 190 190> 480 20G<19 115 115 115 360 460 460 460>
VStem: 19 441<500 500>
LayerCount: 2
Fore
SplineSet
135 -210 m 0
 104 -210 79 -203 62 -195 c 0
 51 -191 42 -186 35 -180 c 1
 60 -115 l 1
 70 -115 l 1
 75 -120 80 -125 86 -128 c 0
 97 -135 110 -140 125 -140 c 0
 160 -140 189 -110 200 -70 c 2
 220 0 l 1
 190 0 l 1
 19 500 l 1
 115 500 l 1
 225 170 l 2
 230 155 235 135 239 119 c 0
 242 110 244 100 246 90 c 1
 250 90 l 1
 251 100 253 110 256 119 c 2
 269 170 l 1
 360 500 l 1
 460 500 l 1
 300 -70 l 2
 277 -150 220 -210 135 -210 c 0
EndSplineSet
EndChar

StartChar: z
Encoding: 122 122 93
Width: 440
Flags: MW
HStem: 0 70<145 405 145 405> 430 70<35 290 35 400>
VStem: 35 370<0 70 0 75 0 75 0 500>
LayerCount: 2
Fore
SplineSet
35 0 m 1
 35 75 l 1
 290 430 l 1
 35 430 l 1
 35 500 l 1
 400 500 l 1
 400 425 l 1
 145 70 l 1
 405 70 l 1
 405 0 l 1
 35 0 l 1
EndSplineSet
EndChar

StartChar: braceleft
Encoding: 123 123 94
Width: 325
Flags: MW
HStem: -170 70<227.5 315 280 315> 245 70<40 65.5> 660 70<260 315 280 315>
VStem: 115 100<-30 150 410 590>
CounterMasks: 1 e0
LayerCount: 2
Fore
SplineSet
280 -170 m 2
 175 -170 115 -110 115 -30 c 2
 115 150 l 2
 115 221 91 245 40 245 c 1
 40 315 l 1
 91 315 115 339 115 410 c 2
 115 590 l 2
 115 670 175 730 280 730 c 2
 315 730 l 1
 315 660 l 1
 280 660 l 2
 240 660 215 635 215 590 c 2
 215 410 l 2
 215 350 195 317 175 300 c 0
 163 289 150 283 135 280 c 1
 150 277 163 270 175 260 c 0
 195 241 215 210 215 150 c 2
 215 -30 l 2
 215 -75 240 -100 280 -100 c 2
 315 -100 l 1
 315 -170 l 1
 280 -170 l 2
EndSplineSet
EndChar

StartChar: bar
Encoding: 124 124 95
Width: 280
Flags: MW
HStem: 680 20G<90 190 190 190>
VStem: 90 100<-200 700 -200 700>
LayerCount: 2
Fore
SplineSet
90 -200 m 1
 90 700 l 1
 190 700 l 1
 190 -200 l 1
 90 -200 l 1
EndSplineSet
EndChar

StartChar: braceright
Encoding: 125 125 96
Width: 325
Flags: MW
HStem: -170 70<10 45 10 45> 245 70<259.5 285> 660 70<10 45 10 45>
VStem: 110 100<-30 150 410 590>
CounterMasks: 1 e0
LayerCount: 2
Fore
SplineSet
10 -170 m 1
 10 -100 l 1
 45 -100 l 2
 85 -100 110 -75 110 -30 c 2
 110 150 l 2
 110 210 130 241 150 260 c 0
 162 270 175 277 190 280 c 1
 175 283 162 289 150 300 c 0
 130 317 110 350 110 410 c 2
 110 590 l 2
 110 635 85 660 45 660 c 2
 10 660 l 1
 10 730 l 1
 45 730 l 2
 150 730 210 670 210 590 c 2
 210 410 l 2
 210 339 234 315 285 315 c 1
 285 245 l 1
 234 245 210 221 210 150 c 2
 210 -30 l 2
 210 -110 150 -170 45 -170 c 2
 10 -170 l 1
EndSplineSet
EndChar

StartChar: asciitilde
Encoding: 126 126 97
Width: 490
Flags: MW
HStem: 245 90<299.5 353 299.5 365>
VStem: 25 440<305 340>
LayerCount: 2
Fore
SplineSet
330 245 m 0
 250 245 220 310 160 310 c 0
 114 310 89 255 89 255 c 1
 80 255 l 1
 25 305 l 1
 41 350 90 400 160 400 c 0xc0
 241 400 269 335 330 335 c 0
 376 335 401 390 401 390 c 1
 410 390 l 1
 465 340 l 1
 449 295 400 245 330 245 c 0
EndSplineSet
EndChar

StartChar: exclamdown
Encoding: 161 161 99
Width: 290
Flags: MW
HStem: 390 120<127.5 162.5>
VStem: 85 120<-200 -200 432.5 467.5>
LayerCount: 2
Fore
SplineSet
145 390 m 0
 110 390 85 415 85 450 c 0
 85 485 110 510 145 510 c 0
 180 510 205 485 205 450 c 0
 205 415 180 390 145 390 c 0
85 -200 m 1
 105 320 l 1
 185 320 l 1
 205 -200 l 1
 85 -200 l 1
EndSplineSet
EndChar

StartChar: cent
Encoding: 162 162 100
Width: 455
Flags: MW
HStem: -70 130<210 295.5 240 295.5 240 310> -7 21G<310 310> -7 67<240 310> -3 21G<210 210> 440 120<235.5 285.5> 485 20G<210 210 310 310>
VStem: 50 100<180 320 180 325.5> 210 100<-70 -7 -70 -3 -70 -3 505 560>
LayerCount: 2
Fore
SplineSet
210 -70 m 1x00
 210 -3 l 1
 110 20 50 101 50 250 c 0
 50 401 113 484 210 505 c 1x1b
 210 560 l 1
 310 560 l 1x17
 310 505 l 1
 345 498 374 486 394 475 c 0
 406 468 416 462 425 455 c 1x2b
 390 395 l 1
 380 395 l 1
 370 403 359 410 347 417 c 0
 327 428 301 440 270 440 c 0
 201 440 150 390 150 250 c 0
 150 110 200 60 280 60 c 0
 311 60 337 71 357 82 c 0
 369 89 380 96 390 105 c 1
 400 105 l 1
 435 45 l 1x47
 425 38 414 30 401 23 c 0
 378 11 349 -2 310 -7 c 1x87
 310 -70 l 1
 210 -70 l 1x00
EndSplineSet
EndChar

StartChar: sterling
Encoding: 163 163 101
Width: 475
Flags: MW
HStem: 0 70<25 25 130 465> 330 70<35 100 35 100 200 335> 640 70<262.5 302.5>
VStem: 100 100<250 330 212 330 400 540>
LayerCount: 2
Fore
SplineSet
25 0 m 1
 25 70 l 1
 38 75 51 85 62 100 c 0
 81 125 100 170 100 250 c 2
 100 330 l 1
 35 330 l 1
 35 400 l 1
 100 400 l 1
 100 540 l 2
 100 636 175 710 275 710 c 0
 331 710 371 697 399 682 c 0
 415 674 429 665 440 655 c 1
 405 595 l 1
 395 595 l 1
 387 603 377 610 366 617 c 0
 347 628 320 640 285 640 c 0
 240 640 200 600 200 540 c 2
 200 400 l 1
 335 400 l 1
 335 330 l 1
 200 330 l 1
 200 250 l 2
 200 174 182 131 165 104 c 0
 154 89 143 77 130 70 c 1
 465 70 l 1
 465 0 l 1
 25 0 l 1
EndSplineSet
EndChar

StartChar: currency
Encoding: 164 164 102
Width: 575
Flags: MW
HStem: 0 21G<100 100 100 200> 170 60<20 100 20 100 200 450> 270 60<20 100 20 100 200 280> 630 70<200 280 200 200>
VStem: 100 100<0 170 0 170 230 270 330 630> 430 100<430 530>
LayerCount: 2
Fore
SplineSet
100 0 m 1
 100 170 l 1
 20 170 l 1
 20 230 l 1
 100 230 l 1
 100 270 l 1
 20 270 l 1
 20 330 l 1
 100 330 l 1
 100 700 l 1
 280 700 l 2
 451 700 530 621 530 480 c 0
 530 349 451 270 280 270 c 2
 200 270 l 1
 200 230 l 1
 450 230 l 1
 450 170 l 1
 200 170 l 1
 200 0 l 1
 100 0 l 1
200 330 m 1
 280 330 l 2
 380 330 430 380 430 480 c 0
 430 580 380 630 280 630 c 2
 200 630 l 1
 200 330 l 1
EndSplineSet
EndChar

StartChar: yen
Encoding: 165 165 103
Width: 530
Flags: MW
HStem: 0 21G<215 215 215 315> 180 70<65 206 65 215 65 206 324 465> 305 70<65 149 65 181 65 149 381 465> 680 20G<0 105 105 105 425 530 530 530>
VStem: 215 100<0 180 0 180>
LayerCount: 2
Fore
SplineSet
215 0 m 1
 215 180 l 1
 65 180 l 1
 65 250 l 1
 206 250 l 1
 181 305 l 1
 65 305 l 1
 65 375 l 1
 149 375 l 1
 0 700 l 1
 105 700 l 1
 245 395 l 2
 250 382 255 368 258 356 c 0
 260 349 262 342 263 335 c 1
 267 335 l 1
 268 342 270 349 272 356 c 0
 275 368 278 382 285 395 c 2
 425 700 l 1
 530 700 l 1
 381 375 l 1
 465 375 l 1
 465 305 l 1
 349 305 l 1
 324 250 l 1
 465 250 l 1
 465 180 l 1
 315 180 l 1
 315 0 l 1
 215 0 l 1
EndSplineSet
EndChar

StartChar: brokenbar
Encoding: 166 166 104
Width: 280
Flags: MW
HStem: 680 20G<90 190 190 190>
VStem: 90 100<-200 180 -200 180 320 700>
LayerCount: 2
Fore
SplineSet
90 320 m 1
 90 700 l 1
 190 700 l 1
 190 320 l 1
 90 320 l 1
90 -200 m 1
 90 180 l 1
 190 180 l 1
 190 -200 l 1
 90 -200 l 1
EndSplineSet
EndChar

StartChar: section
Encoding: 167 167 105
Width: 510
Flags: MW
HStem: -210 70<210 272.5 210 312.5> 640 70<235 292.5>
VStem: 45 100<238 295 238 297> 55 100<505 573 475.5 587.5> 355 100<-70 -0.5 -85.5 30> 370 95<210 267>
LayerCount: 2
Fore
SplineSet
240 -210 m 0x00
 180 -210 133 -198 102 -183 c 0
 84 -175 68 -166 55 -155 c 1
 90 -95 l 1
 100 -95 l 1
 110 -104 122 -111 135 -118 c 0
 158 -129 190 -140 230 -140 c 0
 315 -140 355 -100 355 -40 c 0
 355 100 45 55 45 265 c 0xd4
 45 329 71 380 120 411 c 1
 81 438 55 475 55 535 c 0
 55 640 124 710 265 710 c 0
 321 710 363 697 394 682 c 0
 411 674 427 665 440 655 c 1
 405 595 l 1
 395 595 l 1
 384 603 373 610 361 617 c 0
 340 628 310 640 275 640 c 0
 195 640 155 601 155 545 c 0
 155 406 465 450 465 240 c 0xe8
 465 173 441 123 392 92 c 1
 429 65 455 29 455 -30 c 0xe4
 455 -141 385 -210 240 -210 c 0x00
305 140 m 1
 345 155 370 190 370 230 c 0
 370 304 289 341 210 365 c 1
 170 350 145 315 145 275 c 0
 145 201 224 164 305 140 c 1
EndSplineSet
EndChar

StartChar: dieresis
Encoding: 168 168 106
Width: 305
Flags: MW
HStem: 565 110<49 81 224 256>
VStem: 10 110<604 636> 185 110<604 636>
LayerCount: 2
Fore
SplineSet
65 565 m 0
 33 565 10 588 10 620 c 0
 10 652 33 675 65 675 c 0
 97 675 120 652 120 620 c 0
 120 588 97 565 65 565 c 0
240 565 m 0
 208 565 185 588 185 620 c 0
 185 652 208 675 240 675 c 0
 272 675 295 652 295 620 c 0
 295 588 272 565 240 565 c 0
EndSplineSet
EndChar

StartChar: copyright
Encoding: 169 169 107
Width: 860
Flags: MW
HStem: -30 70<345 515 345 545> 125 65<419.5 466.5> 510 65<415 456.5 380.5 457.5> 660 70<345 515>
VStem: 40 90<260 440 260 460> 250 90<292.5 407.5 292.5 425> 730 90<260 440>
LayerCount: 2
Fore
SplineSet
430 -30 m 0
 200 -30 40 130 40 350 c 0
 40 570 200 730 430 730 c 0
 660 730 820 570 820 350 c 0
 820 130 660 -30 430 -30 c 0
430 40 m 0
 600 40 730 170 730 350 c 0
 730 530 600 660 430 660 c 0
 260 660 130 530 130 350 c 0
 130 170 260 40 430 40 c 0
445 125 m 0
 324 125 250 199 250 350 c 0
 250 500 326 575 435 575 c 0
 478 575 515 562 540 550 c 0
 555 543 568 534 580 525 c 1
 550 475 l 1
 541 475 l 1
 532 481 523 487 512 492 c 0
 493 501 470 510 445 510 c 0
 385 510 340 465 340 350 c 0
 340 235 384 190 455 190 c 0
 480 190 503 198 522 207 c 0
 533 212 542 218 551 225 c 1
 560 225 l 1
 590 175 l 1
 578 166 565 157 550 150 c 0
 525 137 488 125 445 125 c 0
EndSplineSet
EndChar

StartChar: ordfeminine
Encoding: 170 170 108
Width: 360
Flags: MW
HStem: 350 60<159.5 170.5> 505 60<167.5 235 190 235> 650 60<165 190>
VStem: 35 90<442.5 470.5 442.5 487.5> 235 90<440 505 505 505 565 590 360 607.5>
LayerCount: 2
Fore
SplineSet
156 350 m 0
 80 350 35 395 35 455 c 0
 35 520 79 565 190 565 c 2
 235 565 l 1
 235 590 l 2
 235 625 210 650 170 650 c 0
 145 650 126 642 114 635 c 0
 107 630 100 625 95 620 c 1
 85 620 l 1
 59 665 l 1
 68 673 79 680 92 687 c 0
 113 698 145 710 185 710 c 0
 276 710 325 661 325 590 c 2
 325 360 l 1
 256 360 l 1
 250 400 l 1
 245 400 l 1
 239 391 232 382 223 375 c 0
 208 362 185 350 156 350 c 0
175 410 m 0
 192 410 207 417 218 425 c 0
 225 429 230 434 235 440 c 1
 235 505 l 1
 190 505 l 2
 145 505 125 486 125 455 c 0
 125 430 144 410 175 410 c 0
EndSplineSet
EndChar

StartChar: guillemotleft
Encoding: 171 171 109
Width: 475
Flags: MW
HStem: 0 21G<225 225> 480 20G<225 225>
VStem: 10 445<95 250>
LayerCount: 2
Fore
SplineSet
225 0 m 1
 10 250 l 1
 225 500 l 1
 290 440 l 1
 130 250 l 1
 290 60 l 1
 225 0 l 1
390 35 m 1
 205 250 l 1
 390 465 l 1
 455 405 l 1
 325 250 l 1
 455 95 l 1
 390 35 l 1
EndSplineSet
EndChar

StartChar: logicalnot
Encoding: 172 172 110
Width: 460
Flags: MW
HStem: 330 80<30 340 30 430>
VStem: 340 90<240 330 330 330>
LayerCount: 2
Fore
SplineSet
340 240 m 1
 340 330 l 1
 30 330 l 1
 30 410 l 1
 430 410 l 1
 430 240 l 1
 340 240 l 1
EndSplineSet
EndChar

StartChar: uni00AD
Encoding: 173 173 111
Width: 440
Flags: MW
HStem: 290 80<30 410 30 410>
VStem: 30 380<290 370 290 370>
LayerCount: 2
Fore
SplineSet
30 290 m 1
 30 370 l 1
 410 370 l 1
 410 290 l 1
 30 290 l 1
EndSplineSet
EndChar

StartChar: registered
Encoding: 174 174 112
Width: 860
Flags: MW
HStem: -30 70<345 515 345 545> 285 65<370 426 426 431 370 426> 500 65<370 426 370 370> 660 70<345 515>
VStem: 40 90<260 440 260 460> 280 90<135 285 350 500> 516 90<399.5 450.5> 730 90<260 440>
LayerCount: 2
Fore
SplineSet
430 -30 m 0
 200 -30 40 130 40 350 c 0
 40 570 200 730 430 730 c 0
 660 730 820 570 820 350 c 0
 820 130 660 -30 430 -30 c 0
430 40 m 0
 600 40 730 170 730 350 c 0
 730 530 600 660 430 660 c 0
 260 660 130 530 130 350 c 0
 130 170 260 40 430 40 c 0
280 135 m 1
 280 565 l 1
 426 565 l 2
 551 565 606 510 606 425 c 0
 606 360 567 315 516 300 c 1
 616 135 l 1
 521 135 l 1
 431 285 l 1
 370 285 l 1
 370 135 l 1
 280 135 l 1
370 350 m 1
 426 350 l 2
 491 350 516 374 516 425 c 0
 516 476 491 500 426 500 c 2
 370 500 l 1
 370 350 l 1
EndSplineSet
EndChar

StartChar: macron
Encoding: 175 175 113
Width: 310
Flags: MW
HStem: 590 70<20 290 20 290>
VStem: 20 270<590 660 590 660>
LayerCount: 2
Fore
SplineSet
20 590 m 1
 20 660 l 1
 290 660 l 1
 290 590 l 1
 20 590 l 1
EndSplineSet
EndChar

StartChar: degree
Encoding: 176 176 114
Width: 380
Flags: MW
HStem: 370 65<167.5 212.5 167.5 240> 645 65<167.5 212.5>
VStem: 20 90<504.5 575.5 504.5 590> 270 90<504.5 575.5>
LayerCount: 2
Fore
SplineSet
190 370 m 0
 90 370 20 440 20 540 c 0
 20 640 90 710 190 710 c 0
 290 710 360 640 360 540 c 0
 360 440 290 370 190 370 c 0
190 435 m 0
 235 435 270 469 270 540 c 0
 270 611 235 645 190 645 c 0
 145 645 110 611 110 540 c 0
 110 469 145 435 190 435 c 0
EndSplineSet
EndChar

StartChar: plusminus
Encoding: 177 177 115
Width: 490
Flags: MW
HStem: 95 80<40 205 40 205 285 450> 310 80<40 205 40 205 285 450>
VStem: 205 80<175 310 175 310 390 555>
LayerCount: 2
Fore
SplineSet
40 95 m 1
 40 175 l 1
 205 175 l 1
 205 310 l 1
 40 310 l 1
 40 390 l 1
 205 390 l 1
 205 555 l 1
 285 555 l 1
 285 390 l 1
 450 390 l 1
 450 310 l 1
 285 310 l 1
 285 175 l 1
 450 175 l 1
 450 95 l 1
 40 95 l 1
EndSplineSet
EndChar

StartChar: uni00B2
Encoding: 178 178 116
Width: 330
Flags: MW
HStem: 360 60<125 295 125 295> 650 60<145 167>
VStem: 35 90<360 450.5 420 450.5 420 465> 205 90<559.5 613.5>
LayerCount: 2
Fore
SplineSet
35 360 m 1
 35 400 l 2
 35 530 205 524 205 595 c 0
 205 632 186 650 148 650 c 0
 124 650 105 642 93 635 c 0
 86 630 80 625 75 620 c 1
 65 620 l 1
 39 665 l 1
 48 673 59 680 72 687 c 0
 93 698 125 710 165 710 c 0
 245 710 295 660 295 595 c 0
 295 479 125 481 125 420 c 1
 295 420 l 1
 295 360 l 1
 35 360 l 1
EndSplineSet
EndChar

StartChar: uni00B3
Encoding: 179 179 117
Width: 321
Flags: MW
HStem: 350 60<126 153.5 118.5 191.5> 510 60<60 200> 640 60<36 180 36 270>
VStem: 36 234<640 700 635 700> 196 90<444.5 475.5>
LayerCount: 2
Fore
SplineSet
146 350 m 0x00
 106 350 74 361 53 372 c 0
 40 379 29 386 20 395 c 1
 46 440 l 1
 56 440 l 1
 61 434 68 429 75 425 c 0
 87 417 106 410 131 410 c 0
 176 410 196 429 196 460 c 0
 196 491 177 510 126 510 c 2xf0
 60 510 l 1
 60 560 l 1
 180 640 l 1
 36 640 l 1
 36 700 l 1
 270 700 l 1
 270 635 l 1xe8
 160 570 l 1
 240 570 286 525 286 460 c 0
 286 400 237 350 146 350 c 0x00
EndSplineSet
EndChar

StartChar: acute
Encoding: 180 180 118
Width: 175
Flags: MW
HStem: 550 150<10 165 55 75>
VStem: 10 155<550 700>
LayerCount: 2
Fore
SplineSet
10 550 m 1
 55 700 l 1
 165 700 l 1
 75 550 l 1
 10 550 l 1
EndSplineSet
EndChar

StartChar: mu
Encoding: 181 181 119
Width: 550
Flags: MW
HStem: -10 75<247.5 278.5> 0 21G<405 475 405 405> 480 20G<75 175 175 175 375 475 475 475>
VStem: 75 100<-170 20 132 160 160 500> 375 100<115 500 0 500>
LayerCount: 2
Fore
SplineSet
75 -200 m 1x00
 75 500 l 1
 175 500 l 1
 175 160 l 2
 175 104 214 65 270 65 c 0
 301 65 326 77 345 90 c 0
 356 97 366 106 375 115 c 1x78
 375 500 l 1
 475 500 l 1
 475 0 l 1
 405 0 l 1
 395 50 l 1
 390 50 l 1xb8
 379 39 366 29 353 20 c 0
 330 5 297 -10 260 -10 c 0
 235 -10 214 -3 199 5 c 0
 190 9 182 14 175 20 c 1
 175 -170 l 1
 145 -200 l 1
 75 -200 l 1x00
EndSplineSet
EndChar

StartChar: paragraph
Encoding: 182 182 120
Width: 565
Flags: MW
HStem: 630 70<315 385 315 315 475 555 475 475>
VStem: 225 90<-200 290 290 290 -200 700> 385 90<-200 630 -200 630>
LayerCount: 2
Fore
SplineSet
225 -200 m 1
 225 290 l 1
 116 290 25 380 25 495 c 0
 25 610 116 700 225 700 c 2
 555 700 l 1
 555 630 l 1
 475 630 l 1
 475 -200 l 1
 385 -200 l 1
 385 630 l 1
 315 630 l 1
 315 -200 l 1
 225 -200 l 1
EndSplineSet
EndChar

StartChar: periodcentered
Encoding: 183 183 121
Width: 290
Flags: MW
HStem: 290 120<127.5 162.5>
VStem: 85 120<332.5 367.5>
LayerCount: 2
Fore
SplineSet
145 290 m 0
 110 290 85 315 85 350 c 0
 85 385 110 410 145 410 c 0
 180 410 205 385 205 350 c 0
 205 315 180 290 145 290 c 0
EndSplineSet
EndChar

StartChar: cedilla
Encoding: 184 184 122
Width: 195
Flags: MW
HStem: -190 45<77.5 92.5 67.5 120> -75 95<35 75 35 95>
VStem: 35 60<-30 20 -30 20 -30 20> 120 65<-120 -100>
LayerCount: 2
Fore
SplineSet
90 -190 m 0
 65 -190 46 -185 31 -180 c 0
 23 -177 16 -174 10 -170 c 1
 26 -130 l 1
 35 -130 l 2
 34 -130 55 -145 80 -145 c 0
 105 -145 120 -130 120 -110 c 0
 120 -90 106 -75 75 -75 c 2
 35 -75 l 1
 35 20 l 1
 95 20 l 1
 95 -30 l 1
 151 -30 185 -65 185 -110 c 0
 185 -155 150 -190 90 -190 c 0
EndSplineSet
EndChar

StartChar: uni00B9
Encoding: 185 185 123
Width: 325
Flags: MW
HStem: 360 60<50 125 50 125 215 290> 680 20G<130 215 215 215>
VStem: 125 90<420 610 610 610>
LayerCount: 2
Fore
SplineSet
50 360 m 1
 50 420 l 1
 125 420 l 1
 125 610 l 1
 65 575 l 1
 35 620 l 1
 130 700 l 1
 215 700 l 1
 215 420 l 1
 290 420 l 1
 290 360 l 1
 50 360 l 1
EndSplineSet
EndChar

StartChar: ordmasculine
Encoding: 186 186 124
Width: 390
Flags: MW
HStem: 350 60<175 215 175 243> 650 60<175 215>
VStem: 35 90<484.5 574.5 484.5 588> 265 90<484.5 574.5>
LayerCount: 2
Fore
SplineSet
195 350 m 0
 99 350 35 414 35 530 c 0
 35 646 99 710 195 710 c 0
 291 710 355 646 355 530 c 0
 355 414 291 350 195 350 c 0
195 410 m 0
 235 410 265 439 265 530 c 0
 265 619 235 650 195 650 c 0
 155 650 125 619 125 530 c 0
 125 439 155 410 195 410 c 0
EndSplineSet
EndChar

StartChar: guillemotright
Encoding: 187 187 125
Width: 475
Flags: MW
HStem: 0 21G<250 250> 480 20G<250 250>
VStem: 20 445<95 250 250 405>
LayerCount: 2
Fore
SplineSet
250 0 m 1
 185 60 l 1
 345 250 l 1
 185 440 l 1
 250 500 l 1
 465 250 l 1
 250 0 l 1
85 35 m 1
 20 95 l 1
 150 250 l 1
 20 405 l 1
 85 465 l 1
 270 250 l 1
 85 35 l 1
EndSplineSet
EndChar

StartChar: onequarter
Encoding: 188 188 126
Width: 760
Flags: MW
HStem: 0 130<585 585 675 675> 70 60<495 585 415 415 675 725> 263 77<587 591 587 587> 360 60<50 125 50 125 215 290> 680 20G<130 215 215 215 575 685 685 685>
VStem: 125 90<420 610 610 610> 585 90<0 70 0 70 130 220 220 224.5>
LayerCount: 2
Fore
SplineSet
50 360 m 1x00
 50 420 l 1
 125 420 l 1
 125 610 l 1
 65 575 l 1
 35 620 l 1
 130 700 l 1
 215 700 l 1
 215 420 l 1
 290 420 l 1
 290 360 l 1
 50 360 l 1x00
105 0 m 1
 575 700 l 1
 685 700 l 1
 215 0 l 1
 105 0 l 1
585 0 m 1
 585 70 l 1
 415 70 l 1
 415 130 l 1xbe
 585 340 l 1
 675 340 l 1
 675 130 l 1
 725 130 l 1x5e
 725 70 l 1
 675 70 l 1x9e
 675 0 l 1
 585 0 l 1
495 130 m 1x5e
 585 130 l 1
 585 220 l 2
 585 229 586 238 588 247 c 2
 591 263 l 1
 587 263 l 1
 586 257 584 251 581 246 c 0
 577 237 572 225 568 220 c 2
 495 130 l 1x5e
EndSplineSet
Ligature2: "'frac' Diagonal Fractions in Latin lookup 19 subtable" one slash four
Ligature2: "'frac' Diagonal Fractions in Latin lookup 18 subtable" one slash four
Ligature2: "'frac' Diagonal Fractions in Latin lookup 17 subtable" one slash four
Ligature2: "'frac' Diagonal Fractions in Cyrillic lookup 16 subtable" one slash four
Ligature2: "'frac' Diagonal Fractions lookup 15 subtable" one slash four
EndChar

StartChar: onehalf
Encoding: 189 189 127
Width: 750
Flags: MW
HStem: 0 60<545 715 545 715> 290 60<565 587> 360 60<50 125 50 125 215 290> 680 20G<130 215 215 215 575 685 685 685>
VStem: 125 90<420 610 610 610> 455 90<0 90.5 60 90.5 60 105> 625 90<199.5 253.5>
LayerCount: 2
Fore
SplineSet
50 360 m 1
 50 420 l 1
 125 420 l 1
 125 610 l 1
 65 575 l 1
 35 620 l 1
 130 700 l 1
 215 700 l 1
 215 420 l 1
 290 420 l 1
 290 360 l 1
 50 360 l 1
105 0 m 1
 575 700 l 1
 685 700 l 1
 215 0 l 1
 105 0 l 1
455 0 m 1
 455 40 l 2
 455 170 625 164 625 235 c 0
 625 272 606 290 568 290 c 0
 544 290 525 282 513 275 c 0
 506 270 500 265 495 260 c 1
 485 260 l 1
 459 305 l 1
 468 313 479 320 492 327 c 0
 513 338 545 350 585 350 c 0
 665 350 715 300 715 235 c 0
 715 119 545 121 545 60 c 1
 715 60 l 1
 715 0 l 1
 455 0 l 1
EndSplineSet
Ligature2: "'frac' Diagonal Fractions in Latin lookup 19 subtable" one slash two
Ligature2: "'frac' Diagonal Fractions in Latin lookup 18 subtable" one slash two
Ligature2: "'frac' Diagonal Fractions in Latin lookup 17 subtable" one slash two
Ligature2: "'frac' Diagonal Fractions in Cyrillic lookup 16 subtable" one slash two
Ligature2: "'frac' Diagonal Fractions lookup 15 subtable" one slash two
EndChar

StartChar: threequarters
Encoding: 190 190 128
Width: 750
Flags: MW
HStem: 0 130<575 575 665 665> 70 60<485 575 405 405 665 715> 263 77<577 581 577 577> 350 60<141 168.5 133.5 206.5> 510 60<75 215> 640 60<51 195 51 285>
VStem: 51 234<640 700 635 700> 211 90<444.5 475.5> 575 90<0 70 0 70 130 220 220 224.5>
LayerCount: 2
Fore
SplineSet
161 350 m 0x00
 121 350 89 361 68 372 c 0
 55 379 44 386 35 395 c 1
 61 440 l 1
 71 440 l 1
 76 434 83 429 90 425 c 0
 102 417 121 410 146 410 c 0
 191 410 211 429 211 460 c 0
 211 491 192 510 141 510 c 2x9e80
 75 510 l 1
 75 560 l 1
 195 640 l 1
 51 640 l 1
 51 700 l 1
 285 700 l 1
 285 635 l 1x9d80
 175 570 l 1
 255 570 301 525 301 460 c 0
 301 400 252 350 161 350 c 0x00
95 0 m 1
 565 700 l 1
 675 700 l 1
 205 0 l 1
 95 0 l 1
575 0 m 1
 575 70 l 1
 405 70 l 1
 405 130 l 1xbd80
 575 340 l 1
 665 340 l 1
 665 130 l 1
 715 130 l 1x5d80
 715 70 l 1
 665 70 l 1x9d80
 665 0 l 1
 575 0 l 1
485 130 m 1x5d80
 575 130 l 1
 575 220 l 2
 575 229 576 238 578 247 c 2
 581 263 l 1
 577 263 l 1
 576 257 574 251 571 246 c 0
 567 237 562 225 558 220 c 2
 485 130 l 1x5d80
EndSplineSet
Ligature2: "'frac' Diagonal Fractions in Latin lookup 19 subtable" three slash four
Ligature2: "'frac' Diagonal Fractions in Latin lookup 18 subtable" three slash four
Ligature2: "'frac' Diagonal Fractions in Latin lookup 17 subtable" three slash four
Ligature2: "'frac' Diagonal Fractions in Cyrillic lookup 16 subtable" three slash four
Ligature2: "'frac' Diagonal Fractions lookup 15 subtable" three slash four
EndChar

StartChar: questiondown
Encoding: 191 191 129
Width: 460
Flags: MW
HStem: -210 70<232.5 297.5 232.5 297.5> 390 120<261.5 296.5>
VStem: 40 100<-60 40 -60 65> 219 120<432.5 467.5>
LayerCount: 2
Fore
SplineSet
279 390 m 0
 244 390 219 415 219 450 c 0
 219 485 244 510 279 510 c 0
 314 510 339 485 339 450 c 0
 339 415 314 390 279 390 c 0
265 -210 m 0
 121 -210 40 -130 40 -20 c 0
 40 150 234 149 234 280 c 2
 234 320 l 1
 324 320 l 1
 324 280 l 2xf0
 324 110 140 110 140 -30 c 0
 140 -90 190 -140 275 -140 c 0
 320 -140 355 -129 379 -118 c 0
 393 -111 405 -104 415 -95 c 1
 425 -95 l 1
 460 -155 l 1
 446 -166 430 -175 411 -183 c 0
 378 -198 330 -210 265 -210 c 0
EndSplineSet
EndChar

StartChar: Agrave
Encoding: 192 192 130
Width: 570
Flags: MW
HStem: 0 21G<15 15 15 115 455 455 455 555> 180 70<190 380 190 400 170 380> 595 105<283 287 283 283> 750 150<257 257 257 277 167 322>
VStem: 15 540<0 0>
LayerCount: 2
Fore
SplineSet
257 750 m 1
 167 900 l 1
 277 900 l 1
 322 750 l 1
 257 750 l 1
15 0 m 1
 220 700 l 1
 350 700 l 1
 555 0 l 1
 455 0 l 1
 400 180 l 1
 170 180 l 1
 115 0 l 1
 15 0 l 1
190 250 m 1
 380 250 l 1
 300 525 l 2
 295 540 293 557 290 572 c 2
 287 595 l 1
 283 595 l 1
 280 571 l 2
 277 556 274 540 270 525 c 2
 190 250 l 1
EndSplineSet
EndChar

StartChar: Aacute
Encoding: 193 193 131
Width: 570
Flags: MW
HStem: 0 21G<15 15 15 115 455 455 455 555> 180 70<190 380 190 400 170 380> 595 105<283 287 283 283> 750 150<237 392 282 302>
VStem: 15 540<0 0>
LayerCount: 2
Fore
SplineSet
237 750 m 1
 282 900 l 1
 392 900 l 1
 302 750 l 1
 237 750 l 1
15 0 m 1
 220 700 l 1
 350 700 l 1
 555 0 l 1
 455 0 l 1
 400 180 l 1
 170 180 l 1
 115 0 l 1
 15 0 l 1
190 250 m 1
 380 250 l 1
 300 525 l 2
 295 540 293 557 290 572 c 2
 287 595 l 1
 283 595 l 1
 280 571 l 2
 277 556 274 540 270 525 c 2
 190 250 l 1
EndSplineSet
EndChar

StartChar: Acircumflex
Encoding: 194 194 132
Width: 570
Flags: MW
HStem: 0 21G<15 15 15 115 455 455 455 555> 180 70<190 380 190 400 170 380> 595 105<283 287 283 283> 750 130<145 320 145 320 250 360 250 425>
VStem: 15 540<0 0>
LayerCount: 2
Fore
SplineSet
145 750 m 1
 250 880 l 1
 320 880 l 1
 425 750 l 1
 360 750 l 1
 285 815 l 1
 210 750 l 1
 145 750 l 1
15 0 m 1
 220 700 l 1
 350 700 l 1
 555 0 l 1
 455 0 l 1
 400 180 l 1
 170 180 l 1
 115 0 l 1
 15 0 l 1
190 250 m 1
 380 250 l 1
 300 525 l 2
 295 540 293 557 290 572 c 2
 287 595 l 1
 283 595 l 1
 280 571 l 2
 277 556 274 540 270 525 c 2
 190 250 l 1
EndSplineSet
EndChar

StartChar: Atilde
Encoding: 195 195 133
Width: 570
Flags: MW
HStem: 0 21G<15 115 15 15 455 555 455 455> 180 70<190 380 190 400 170 380> 595 105<283 287 283 283> 750 70<306 321 306 350.5> 795 70<236 251>
VStem: 15 540<0 0>
LayerCount: 2
Fore
SplineSet
190 755 m 2x00
 181 755 l 1
 141 780 l 1
 157 825 180 865 231 865 c 0xf4
 281 865 291 820 321 820 c 0
 351 819 368 859 367 860 c 2
 376 860 l 1
 416 835 l 1
 401 790 375 750 326 750 c 0xec
 276 750 266 795 236 795 c 0
 207 794 190 756 190 755 c 2x00
350 700 m 1
 555 0 l 1
 455 0 l 1
 400 180 l 1
 170 180 l 1
 115 0 l 1
 15 0 l 1
 220 700 l 1
 350 700 l 1
190 250 m 1
 380 250 l 1
 300 525 l 2
 295 540 293 557 290 572 c 2
 287 595 l 1
 283 595 l 1
 280 571 l 2
 277 556 274 540 270 525 c 2
 190 250 l 1
EndSplineSet
EndChar

StartChar: Adieresis
Encoding: 196 196 134
Width: 570
Flags: MW
HStem: 0 21G<15 15 15 115 455 455 455 555> 180 70<190 380 190 400 170 380> 595 105<283 287 283 283> 755 110<179 211 354 386>
VStem: 140 110<794 826> 315 110<794 826>
LayerCount: 2
Fore
SplineSet
195 755 m 0
 163 755 140 778 140 810 c 0
 140 842 163 865 195 865 c 0
 227 865 250 842 250 810 c 0
 250 778 227 755 195 755 c 0
370 755 m 0
 338 755 315 778 315 810 c 0
 315 842 338 865 370 865 c 0
 402 865 425 842 425 810 c 0
 425 778 402 755 370 755 c 0
15 0 m 1
 220 700 l 1
 350 700 l 1
 555 0 l 1
 455 0 l 1
 400 180 l 1
 170 180 l 1
 115 0 l 1
 15 0 l 1
190 250 m 1
 380 250 l 1
 300 525 l 2
 295 540 293 557 290 572 c 2
 287 595 l 1
 283 595 l 1
 280 571 l 2
 277 556 274 540 270 525 c 2
 190 250 l 1
EndSplineSet
EndChar

StartChar: Aring
Encoding: 197 197 135
Width: 570
Flags: MW
HStem: 0 21G<15 15 15 115 455 455 455 555> 180 70<190 380 190 400 170 380> 595 105<283 287 283 283> 740 50<275 295 275 315> 880 50<275 295>
VStem: 185 60<819.5 850.5 819.5 863> 325 60<819.5 850.5>
LayerCount: 2
Fore
SplineSet
285 740 m 0
 225 740 185 779 185 835 c 0
 185 891 225 930 285 930 c 0
 345 930 385 891 385 835 c 0
 385 779 345 740 285 740 c 0
285 790 m 0
 305 790 325 804 325 835 c 0
 325 866 305 880 285 880 c 0
 265 880 245 866 245 835 c 0
 245 804 265 790 285 790 c 0
15 0 m 1
 220 700 l 1
 350 700 l 1
 555 0 l 1
 455 0 l 1
 400 180 l 1
 170 180 l 1
 115 0 l 1
 15 0 l 1
190 250 m 1
 380 250 l 1
 300 525 l 2
 295 540 293 557 290 572 c 2
 287 595 l 1
 283 595 l 1
 280 571 l 2
 277 556 274 540 270 525 c 2
 190 250 l 1
EndSplineSet
EndChar

StartChar: AE
Encoding: 198 198 136
Width: 815
Flags: MW
HStem: 0 70<495 785 495 785> 200 70<195 395 195 395 165 395> 330 70<495 725 495 725> 630 70<345 395 345 345 495 785 495 495>
VStem: 395 100<70 200 200 200 270 330 400 630>
LayerCount: 2
Fore
SplineSet
-20 0 m 1
 275 700 l 1
 785 700 l 1
 785 630 l 1
 495 630 l 1
 495 400 l 1
 725 400 l 1
 725 330 l 1
 495 330 l 1
 495 70 l 1
 785 70 l 1
 785 0 l 1
 395 0 l 1
 395 200 l 1
 165 200 l 1
 80 0 l 1
 -20 0 l 1
195 270 m 1
 395 270 l 1
 395 630 l 1
 345 630 l 1
 195 270 l 1
EndSplineSet
EndChar

StartChar: Ccedilla
Encoding: 199 199 137
Width: 515
Flags: MW
HStem: -190 45<297.5 312.5 287.5 340> -75 45<255 343> -10 70<315 342.5 275 343> -5 21G<255 255> 640 70<270 332.5>
VStem: 55 100<240 460 240 480> 255 60<-30 -10 -30 -5 -30 -5> 340 65<-120 -100>
LayerCount: 2
Fore
SplineSet
444 17 m 0x00
 413 2 371 -10 315 -10 c 1xee
 315 -30 l 1xef
 371 -30 405 -65 405 -110 c 0
 405 -155 370 -190 310 -190 c 0
 285 -190 266 -185 251 -180 c 0
 243 -177 236 -174 230 -170 c 1
 246 -130 l 1
 255 -130 l 2
 254 -130 275 -145 300 -145 c 0
 325 -145 340 -130 340 -110 c 0
 340 -90 326 -75 295 -75 c 2xee
 255 -75 l 1x9e
 255 -5 l 1xae
 130 19 55 124 55 350 c 0
 55 610 156 710 305 710 c 0
 361 710 403 697 434 682 c 0
 451 674 467 665 480 655 c 1
 445 595 l 1
 435 595 l 1
 424 603 413 610 401 617 c 0
 380 628 350 640 315 640 c 0
 225 640 155 570 155 350 c 0
 155 130 225 60 325 60 c 0
 360 60 390 71 411 82 c 0
 423 89 434 96 445 105 c 1
 455 105 l 1
 490 45 l 1
 477 34 461 25 444 17 c 0x00
EndSplineSet
EndChar

StartChar: Egrave
Encoding: 200 200 138
Width: 510
Flags: MW
HStem: 0 70<190 480 190 480> 330 70<190 420 190 420> 630 70<190 480 190 190> 750 150<270 270 270 290 180 335>
VStem: 90 100<70 330 400 630>
LayerCount: 2
Fore
SplineSet
270 750 m 1
 180 900 l 1
 290 900 l 1
 335 750 l 1
 270 750 l 1
90 0 m 1
 90 700 l 1
 480 700 l 1
 480 630 l 1
 190 630 l 1
 190 400 l 1
 420 400 l 1
 420 330 l 1
 190 330 l 1
 190 70 l 1
 480 70 l 1
 480 0 l 1
 90 0 l 1
EndSplineSet
EndChar

StartChar: Eacute
Encoding: 201 201 139
Width: 510
Flags: MW
HStem: 0 70<190 480 190 480> 330 70<190 420 190 420> 630 70<190 480 190 190> 750 150<230 385 275 295>
VStem: 90 100<70 330 400 630>
LayerCount: 2
Fore
SplineSet
230 750 m 1
 275 900 l 1
 385 900 l 1
 295 750 l 1
 230 750 l 1
90 0 m 1
 90 700 l 1
 480 700 l 1
 480 630 l 1
 190 630 l 1
 190 400 l 1
 420 400 l 1
 420 330 l 1
 190 330 l 1
 190 70 l 1
 480 70 l 1
 480 0 l 1
 90 0 l 1
EndSplineSet
EndChar

StartChar: Ecircumflex
Encoding: 202 202 140
Width: 510
Flags: MW
HStem: 0 70<190 480 190 480> 330 70<190 420 190 420> 630 70<190 480 190 190> 760 130<147 322 147 322 252 362 252 427>
VStem: 90 100<70 330 400 630>
LayerCount: 2
Fore
SplineSet
147 760 m 1
 252 890 l 1
 322 890 l 1
 427 760 l 1
 362 760 l 1
 287 825 l 1
 212 760 l 1
 147 760 l 1
90 0 m 1
 90 700 l 1
 480 700 l 1
 480 630 l 1
 190 630 l 1
 190 400 l 1
 420 400 l 1
 420 330 l 1
 190 330 l 1
 190 70 l 1
 480 70 l 1
 480 0 l 1
 90 0 l 1
EndSplineSet
EndChar

StartChar: Edieresis
Encoding: 203 203 141
Width: 510
Flags: MW
HStem: 0 70<190 480 190 480> 330 70<190 420 190 420> 630 70<190 480 190 190> 765 110<181 213 356 388>
VStem: 142 110<804 836> 317 110<804 836>
LayerCount: 2
Fore
SplineSet
197 765 m 0
 165 765 142 788 142 820 c 0
 142 852 165 875 197 875 c 0
 229 875 252 852 252 820 c 0
 252 788 229 765 197 765 c 0
372 765 m 0
 340 765 317 788 317 820 c 0
 317 852 340 875 372 875 c 0
 404 875 427 852 427 820 c 0
 427 788 404 765 372 765 c 0
90 0 m 1
 90 700 l 1
 480 700 l 1
 480 630 l 1
 190 630 l 1
 190 400 l 1
 420 400 l 1
 420 330 l 1
 190 330 l 1
 190 70 l 1
 480 70 l 1
 480 0 l 1
 90 0 l 1
EndSplineSet
EndChar

StartChar: Igrave
Encoding: 204 204 142
Width: 278
Flags: MW
HStem: 0 21G<90 90 90 190> 680 20G<90 190 190 190> 750 150<110 110 110 130 20 175>
VStem: 90 100<0 700 0 700>
LayerCount: 2
Fore
SplineSet
110 750 m 1
 20 900 l 1
 130 900 l 1
 175 750 l 1
 110 750 l 1
90 0 m 1
 90 700 l 1
 190 700 l 1
 190 0 l 1
 90 0 l 1
EndSplineSet
EndChar

StartChar: Iacute
Encoding: 205 205 143
Width: 277
Flags: MW
HStem: 0 21G<90 90 90 190> 680 20G<90 190 190 190> 750 150<102 257 147 167>
VStem: 90 100<0 700 0 700>
LayerCount: 2
Fore
SplineSet
102 750 m 1
 147 900 l 1
 257 900 l 1
 167 750 l 1
 102 750 l 1
90 0 m 1
 90 700 l 1
 190 700 l 1
 190 0 l 1
 90 0 l 1
EndSplineSet
EndChar

StartChar: Icircumflex
Encoding: 206 206 144
Width: 270
Flags: MW
HStem: 0 21G<90 90 90 190> 680 20G<90 190 190 190> 760 130<-4 171 -4 171 101 211 101 276>
VStem: 90 100<0 700 0 700>
LayerCount: 2
Fore
SplineSet
-4 760 m 1
 101 890 l 1
 171 890 l 1
 276 760 l 1
 211 760 l 1
 136 825 l 1
 61 760 l 1
 -4 760 l 1
90 0 m 1
 90 700 l 1
 190 700 l 1
 190 0 l 1
 90 0 l 1
EndSplineSet
EndChar

StartChar: Idieresis
Encoding: 207 207 145
Width: 260
Flags: MW
HStem: 0 21G<90 90 90 190> 680 20G<90 190 190 190> 765 110<25 57 200 232>
VStem: -14 110<804 836> 161 110<804 836>
LayerCount: 2
Fore
SplineSet
41 765 m 0
 9 765 -14 788 -14 820 c 0
 -14 852 9 875 41 875 c 0
 73 875 96 852 96 820 c 0
 96 788 73 765 41 765 c 0
216 765 m 0
 184 765 161 788 161 820 c 0
 161 852 184 875 216 875 c 0
 248 875 271 852 271 820 c 0
 271 788 248 765 216 765 c 0
90 0 m 1
 90 700 l 1
 190 700 l 1
 190 0 l 1
 90 0 l 1
EndSplineSet
EndChar

StartChar: Eth
Encoding: 208 208 146
Width: 585
Flags: MW
HStem: 0 70<190 240 190 240> 320 80<35 90 35 90 190 305> 630 70<190 240 190 190>
VStem: 90 100<70 70 70 320 400 630> 430 100<244.5 455.5>
LayerCount: 2
Fore
SplineSet
90 0 m 1
 90 320 l 1
 35 320 l 1
 35 400 l 1
 90 400 l 1
 90 700 l 1
 240 700 l 2
 430 700 530 601 530 350 c 0
 530 99 430 0 240 0 c 2
 90 0 l 1
190 70 m 1
 240 70 l 2
 360 70 430 139 430 350 c 0
 430 561 360 630 240 630 c 2
 190 630 l 1
 190 400 l 1
 305 400 l 1
 305 320 l 1
 190 320 l 1
 190 70 l 1
EndSplineSet
EndChar

StartChar: Ntilde
Encoding: 209 209 147
Width: 630
Flags: MW
HStem: 0 21G<90 190 90 90 430 540 430 430> 0 150<440 444 440 540 430 444> 680 20G<90 200 200 200 440 540 540 540> 750 70<336 351 336 380.5> 795 70<266 281>
VStem: 90 100<0 465 0 550 0 700> 440 100<150 150 235 700 0 700>
LayerCount: 2
Fore
SplineSet
220 755 m 2x00
 211 755 l 1
 171 780 l 1
 187 825 210 865 261 865 c 0xb6
 311 865 321 820 351 820 c 0
 381 819 398 859 397 860 c 2
 406 860 l 1
 446 835 l 1
 431 790 405 750 356 750 c 0xae
 306 750 296 795 266 795 c 0
 237 794 220 756 220 755 c 2x00
440 700 m 1
 540 700 l 1
 540 0 l 1
 430 0 l 1
 220 465 l 2
 213 480 206 500 200 519 c 0
 197 529 193 539 190 550 c 1
 186 550 l 1
 188 519 l 2
 189 500 190 480 190 465 c 2x6e
 190 0 l 1
 90 0 l 1
 90 700 l 1
 200 700 l 1
 410 235 l 2
 417 220 423 198 430 181 c 0
 433 170 437 160 440 150 c 1
 444 150 l 1
 442 181 l 2
 441 198 440 220 440 235 c 2
 440 700 l 1
EndSplineSet
EndChar

StartChar: Ograve
Encoding: 210 210 148
Width: 600
Flags: MW
HStem: -10 70<262.5 337.5 262.5 372.5> 640 70<262.5 337.5> 750 150<282 282 282 302 192 347>
VStem: 55 100<240 460 240 480> 445 100<240 460>
LayerCount: 2
Fore
SplineSet
282 750 m 1
 192 900 l 1
 302 900 l 1
 347 750 l 1
 282 750 l 1
300 -10 m 0
 155 -10 55 90 55 350 c 0
 55 610 155 710 300 710 c 0
 445 710 545 610 545 350 c 0
 545 90 445 -10 300 -10 c 0
300 60 m 0
 375 60 445 130 445 350 c 0
 445 570 375 640 300 640 c 0
 225 640 155 570 155 350 c 0
 155 130 225 60 300 60 c 0
EndSplineSet
EndChar

StartChar: Oacute
Encoding: 211 211 149
Width: 600
Flags: MW
HStem: -10 70<262.5 337.5 262.5 372.5> 640 70<262.5 337.5> 750 150<252 407 297 317>
VStem: 55 100<240 460 240 480> 445 100<240 460>
LayerCount: 2
Fore
SplineSet
252 750 m 1
 297 900 l 1
 407 900 l 1
 317 750 l 1
 252 750 l 1
300 -10 m 0
 155 -10 55 90 55 350 c 0
 55 610 155 710 300 710 c 0
 445 710 545 610 545 350 c 0
 545 90 445 -10 300 -10 c 0
300 60 m 0
 375 60 445 130 445 350 c 0
 445 570 375 640 300 640 c 0
 225 640 155 570 155 350 c 0
 155 130 225 60 300 60 c 0
EndSplineSet
EndChar

StartChar: Ocircumflex
Encoding: 212 212 150
Width: 600
Flags: MW
HStem: -10 70<262.5 337.5 262.5 372.5> 640 70<262.5 337.5> 760 130<160 335 160 335 265 375 265 440>
VStem: 55 100<240 460 240 480> 445 100<240 460>
LayerCount: 2
Fore
SplineSet
160 760 m 1
 265 890 l 1
 335 890 l 1
 440 760 l 1
 375 760 l 1
 300 825 l 1
 225 760 l 1
 160 760 l 1
300 -10 m 0
 155 -10 55 90 55 350 c 0
 55 610 155 710 300 710 c 0
 445 710 545 610 545 350 c 0
 545 90 445 -10 300 -10 c 0
300 60 m 0
 375 60 445 130 445 350 c 0
 445 570 375 640 300 640 c 0
 225 640 155 570 155 350 c 0
 155 130 225 60 300 60 c 0
EndSplineSet
EndChar

StartChar: Otilde
Encoding: 213 213 151
Width: 600
Flags: MW
HStem: -10 70<262.5 337.5 262.5 372.5> 640 70<262.5 337.5> 760 70<321 336 321 365.5> 805 70<251 266>
VStem: 55 100<240 460 240 480> 445 100<240 460>
LayerCount: 2
Fore
SplineSet
205 765 m 2x00
 196 765 l 1
 156 790 l 1
 172 835 195 875 246 875 c 0xec
 296 875 306 830 336 830 c 0
 366 829 383 869 382 870 c 2
 391 870 l 1
 431 845 l 1
 416 800 390 760 341 760 c 0xdc
 291 760 281 805 251 805 c 0
 222 804 205 766 205 765 c 2x00
300 710 m 0
 445 710 545 610 545 350 c 0
 545 90 445 -10 300 -10 c 0
 155 -10 55 90 55 350 c 0
 55 610 155 710 300 710 c 0
300 60 m 0
 375 60 445 130 445 350 c 0
 445 570 375 640 300 640 c 0
 225 640 155 570 155 350 c 0
 155 130 225 60 300 60 c 0
EndSplineSet
EndChar

StartChar: Odieresis
Encoding: 214 214 152
Width: 600
Flags: MW
HStem: -10 70<262.5 337.5 262.5 372.5> 640 70<262.5 337.5> 765 110<194 226 369 401>
VStem: 155 110<804 836> 330 110<804 836>
LayerCount: 2
Fore
SplineSet
210 765 m 0
 178 765 155 788 155 820 c 0
 155 852 178 875 210 875 c 0
 242 875 265 852 265 820 c 0
 265 788 242 765 210 765 c 0
385 765 m 0
 353 765 330 788 330 820 c 0
 330 852 353 875 385 875 c 0
 417 875 440 852 440 820 c 0
 440 788 417 765 385 765 c 0
300 -10 m 0
 155 -10 55 90 55 350 c 0
 55 610 155 710 300 710 c 0
 445 710 545 610 545 350 c 0
 545 90 445 -10 300 -10 c 0
300 60 m 0
 375 60 445 130 445 350 c 0
 445 570 375 640 300 640 c 0
 225 640 155 570 155 350 c 0
 155 130 225 60 300 60 c 0
EndSplineSet
EndChar

StartChar: multiply
Encoding: 215 215 153
Width: 437
Flags: MW
HStem: 483 20G<102 102 335 335>
VStem: 45 347<213 213 213 447>
LayerCount: 2
Fore
SplineSet
102 157 m 1
 45 213 l 1
 162 330 l 1
 45 447 l 1
 102 503 l 1
 219 387 l 1
 335 503 l 1
 392 447 l 1
 275 330 l 1
 392 213 l 1
 335 157 l 1
 219 273 l 1
 102 157 l 1
EndSplineSet
EndChar

StartChar: Oslash
Encoding: 216 216 154
Width: 600
Flags: MW
HStem: -10 70<282.5 337.5 282.5 372.5> 0 21G<60 140 60 60> 610 90<489 489> 640 70<262.5 317.5>
VStem: 55 100<318 460 318 480> 445 100<240 382>
LayerCount: 2
Fore
SplineSet
300 -10 m 0x00
 245 -10 199 4 160 35 c 1x5c
 140 0 l 1
 60 0 l 1
 111 89 l 1
 75 148 55 231 55 350 c 0
 55 610 155 710 300 710 c 0
 355 710 402 695 440 665 c 1xac
 460 700 l 1
 540 700 l 1
 489 610 l 1x9c
 525 553 545 467 545 350 c 0
 545 90 445 -10 300 -10 c 0x00
171 194 m 1
 395 586 l 1
 368 625 335 640 300 640 c 0
 225 640 155 570 155 350 c 0
 155 286 160 235 171 194 c 1
300 60 m 0
 375 60 445 130 445 350 c 0
 445 414 440 465 429 505 c 1
 205 113 l 1
 232 74 265 60 300 60 c 0
EndSplineSet
EndChar

StartChar: Ugrave
Encoding: 217 217 155
Width: 620
Flags: MW
HStem: -10 70<272 348 272 382.5> 680 20G<85 185 185 185 435 535 535 535> 730 150<292 292 292 312 202 357>
VStem: 85 100<220 700> 435 100<220 700>
LayerCount: 2
Fore
SplineSet
292 730 m 1
 202 880 l 1
 312 880 l 1
 357 730 l 1
 292 730 l 1
310 -10 m 0
 165 -10 85 69 85 220 c 2
 85 700 l 1
 185 700 l 1
 185 220 l 2
 185 109 234 60 310 60 c 0
 386 60 435 109 435 220 c 2
 435 700 l 1
 535 700 l 1
 535 220 l 2
 535 69 455 -10 310 -10 c 0
EndSplineSet
EndChar

StartChar: Uacute
Encoding: 218 218 156
Width: 620
Flags: MW
HStem: -10 70<272 348 272 382.5> 680 20G<85 185 185 185 435 535 535 535> 730 150<272 427 317 337>
VStem: 85 100<220 700> 435 100<220 700>
LayerCount: 2
Fore
SplineSet
272 730 m 1
 317 880 l 1
 427 880 l 1
 337 730 l 1
 272 730 l 1
310 -10 m 0
 165 -10 85 69 85 220 c 2
 85 700 l 1
 185 700 l 1
 185 220 l 2
 185 109 234 60 310 60 c 0
 386 60 435 109 435 220 c 2
 435 700 l 1
 535 700 l 1
 535 220 l 2
 535 69 455 -10 310 -10 c 0
EndSplineSet
EndChar

StartChar: Ucircumflex
Encoding: 219 219 157
Width: 620
Flags: MW
HStem: -10 70<272 348 272 382.5> 680 20G<85 185 185 185 435 535 535 535> 760 130<170 345 170 345 275 385 275 450>
VStem: 85 100<220 700> 435 100<220 700>
LayerCount: 2
Fore
SplineSet
170 760 m 1
 275 890 l 1
 345 890 l 1
 450 760 l 1
 385 760 l 1
 310 825 l 1
 235 760 l 1
 170 760 l 1
310 -10 m 0
 165 -10 85 69 85 220 c 2
 85 700 l 1
 185 700 l 1
 185 220 l 2
 185 109 234 60 310 60 c 0
 386 60 435 109 435 220 c 2
 435 700 l 1
 535 700 l 1
 535 220 l 2
 535 69 455 -10 310 -10 c 0
EndSplineSet
EndChar

StartChar: Udieresis
Encoding: 220 220 158
Width: 620
Flags: MW
HStem: -10 70<272 348 272 382.5> 680 20G<85 185 185 185 435 535 535 535> 765 110<204 236 379 411>
VStem: 165 110<804 836> 340 110<804 836>
LayerCount: 2
Fore
SplineSet
220 765 m 0
 188 765 165 788 165 820 c 0
 165 852 188 875 220 875 c 0
 252 875 275 852 275 820 c 0
 275 788 252 765 220 765 c 0
395 765 m 0
 363 765 340 788 340 820 c 0
 340 852 363 875 395 875 c 0
 427 875 450 852 450 820 c 0
 450 788 427 765 395 765 c 0
310 -10 m 0
 165 -10 85 69 85 220 c 2
 85 700 l 1
 185 700 l 1
 185 220 l 2
 185 109 234 60 310 60 c 0
 386 60 435 109 435 220 c 2
 435 700 l 1
 535 700 l 1
 535 220 l 2
 535 69 455 -10 310 -10 c 0
EndSplineSet
EndChar

StartChar: Yacute
Encoding: 221 221 159
Width: 530
Flags: MW
HStem: 0 21G<215 215 215 315> 680 20G<0 105 105 105 440 530 530 530> 730 150<227 382 272 292>
VStem: 215 100<0 230 0 230>
LayerCount: 2
Fore
SplineSet
227 730 m 1
 272 880 l 1
 382 880 l 1
 292 730 l 1
 227 730 l 1
215 0 m 1
 215 230 l 1
 0 700 l 1
 105 700 l 1
 250 365 l 2
 255 352 260 338 263 326 c 0
 265 319 267 312 268 305 c 1
 272 305 l 1
 273 312 275 319 277 326 c 0
 280 338 283 352 290 365 c 2
 440 700 l 1
 530 700 l 1
 315 230 l 1
 315 0 l 1
 215 0 l 1
EndSplineSet
EndChar

StartChar: Thorn
Encoding: 222 222 160
Width: 615
Flags: MW
HStem: 60 70<190 280 190 280> 570 70<190 280 190 280>
VStem: 90 100<-20 60 130 570 640 720> 470 100<277.5 422.5>
LayerCount: 2
Fore
SplineSet
90 -20 m 1
 90 720 l 1
 190 720 l 1
 190 640 l 1
 280 640 l 2
 467 640 570 537 570 350 c 0
 570 163 467 60 280 60 c 2
 190 60 l 1
 190 -20 l 1
 90 -20 l 1
190 130 m 1
 280 130 l 2
 396 130 470 205 470 350 c 0
 470 495 396 570 280 570 c 2
 190 570 l 1
 190 130 l 1
EndSplineSet
EndChar

StartChar: germandbls
Encoding: 223 223 161
Width: 620
Flags: MW
HStem: -10 70<372.5 412.5 370 450.5> 0 20 420 70<35 100 35 100> 640 70<252.5 292.5>
VStem: 100 100<0 420 420 420 490 550 0 598> 310 90<397.5 475.5 397.5 475.5> 340 100<544.5 590> 485 100<134.5 228>
LayerCount: 2
Fore
SplineSet
390 -10 m 0x00
 355 -10 328 -3 309 5 c 0x7d
 298 9 288 14 280 20 c 1
 305 85 l 1
 315 85 l 1xbd
 320 80 325 75 332 72 c 0
 343 65 360 60 380 60 c 0
 445 60 485 99 485 170 c 0
 485 286 310 300 310 450 c 0x7b
 310 501 340 519 340 570 c 0
 340 610 310 640 275 640 c 0
 230 640 200 610 200 550 c 2
 200 0 l 1
 100 0 l 1
 100 420 l 1
 35 420 l 1
 35 490 l 1
 100 490 l 1
 100 550 l 2
 100 646 165 710 265 710 c 0xbd
 381 710 440 650 440 570 c 0
 440 509 400 501 400 450 c 0
 400 345 585 330 585 180 c 0
 585 64 511 -10 390 -10 c 0x00
EndSplineSet
EndChar

StartChar: agrave
Encoding: 224 224 162
Width: 510
Flags: MW
HStem: -10 75<205 235.5> 225 70<220 340 260 340> 440 70<219.5 267.5> 550 150<227 227 227 247 137 292>
VStem: 45 100<119.5 167.5 119.5 190> 340 100<125 225 225 225 295 320 0 360>
LayerCount: 2
Fore
SplineSet
227 550 m 1
 137 700 l 1
 247 700 l 1
 292 550 l 1
 227 550 l 1
210 -10 m 0
 105 -10 45 49 45 145 c 0
 45 235 105 295 260 295 c 2
 340 295 l 1
 340 320 l 2
 340 400 300 440 235 440 c 0
 204 440 177 428 157 417 c 0
 145 410 134 403 125 395 c 1
 115 395 l 1
 80 455 l 1
 93 465 108 474 125 482 c 0
 154 497 194 510 245 510 c 0
 360 510 440 430 440 320 c 2
 440 0 l 1
 370 0 l 1
 360 60 l 1
 355 60 l 1xfc
 346 47 334 35 320 25 c 0
 296 6 261 -10 210 -10 c 0
235 65 m 0
 266 65 291 80 310 95 c 0
 321 104 331 114 340 125 c 1
 340 225 l 1
 260 225 l 2
 180 225 145 190 145 145 c 0
 145 94 175 65 235 65 c 0
EndSplineSet
EndChar

StartChar: aacute
Encoding: 225 225 163
Width: 510
Flags: MW
HStem: -10 75<205 235.5> 225 70<220 340 260 340> 440 70<219.5 267.5> 550 150<207 362 252 272>
VStem: 45 100<119.5 167.5 119.5 190> 340 100<125 225 225 225 295 320 0 360>
LayerCount: 2
Fore
SplineSet
207 550 m 1
 252 700 l 1
 362 700 l 1
 272 550 l 1
 207 550 l 1
210 -10 m 0
 105 -10 45 49 45 145 c 0
 45 235 105 295 260 295 c 2
 340 295 l 1
 340 320 l 2
 340 400 300 440 235 440 c 0
 204 440 177 428 157 417 c 0
 145 410 134 403 125 395 c 1
 115 395 l 1
 80 455 l 1
 93 465 108 474 125 482 c 0
 154 497 194 510 245 510 c 0
 360 510 440 430 440 320 c 2
 440 0 l 1
 370 0 l 1
 360 60 l 1
 355 60 l 1xfc
 346 47 334 35 320 25 c 0
 296 6 261 -10 210 -10 c 0
235 65 m 0
 266 65 291 80 310 95 c 0
 321 104 331 114 340 125 c 1
 340 225 l 1
 260 225 l 2
 180 225 145 190 145 145 c 0
 145 94 175 65 235 65 c 0
EndSplineSet
EndChar

StartChar: acircumflex
Encoding: 226 226 164
Width: 510
Flags: MW
HStem: -10 75<205 235.5> 225 70<220 340 260 340> 440 70<219.5 267.5> 560 130<115 290 115 290 220 330 220 395>
VStem: 45 100<119.5 167.5 119.5 190> 340 100<125 225 225 225 295 320 0 360>
LayerCount: 2
Fore
SplineSet
115 560 m 1
 220 690 l 1
 290 690 l 1
 395 560 l 1
 330 560 l 1
 255 625 l 1
 180 560 l 1
 115 560 l 1
210 -10 m 0
 105 -10 45 49 45 145 c 0
 45 235 105 295 260 295 c 2
 340 295 l 1
 340 320 l 2
 340 400 300 440 235 440 c 0
 204 440 177 428 157 417 c 0
 145 410 134 403 125 395 c 1
 115 395 l 1
 80 455 l 1
 93 465 108 474 125 482 c 0
 154 497 194 510 245 510 c 0
 360 510 440 430 440 320 c 2
 440 0 l 1
 370 0 l 1
 360 60 l 1
 355 60 l 1xfc
 346 47 334 35 320 25 c 0
 296 6 261 -10 210 -10 c 0
235 65 m 0
 266 65 291 80 310 95 c 0
 321 104 331 114 340 125 c 1
 340 225 l 1
 260 225 l 2
 180 225 145 190 145 145 c 0
 145 94 175 65 235 65 c 0
EndSplineSet
EndChar

StartChar: atilde
Encoding: 227 227 165
Width: 510
Flags: MW
HStem: -10 75<205 235.5> 225 70<220 340 260 340> 440 70<219.5 267.5> 561 70<276 291 276 320.5> 606 70<206 221>
VStem: 45 100<119.5 167.5 119.5 190> 340 100<125 225 225 225 295 320 0 360>
LayerCount: 2
Fore
SplineSet
160 566 m 2x00
 151 566 l 1
 111 591 l 1
 127 636 150 676 201 676 c 0xf6
 251 676 261 631 291 631 c 0
 321 630 338 670 337 671 c 2
 346 671 l 1
 386 646 l 1
 371 601 345 561 296 561 c 0xee
 246 561 236 606 206 606 c 0
 177 605 160 567 160 566 c 2x00
245 510 m 0
 360 510 440 430 440 320 c 2
 440 0 l 1
 370 0 l 1
 360 60 l 1
 355 60 l 1xee
 346 47 334 35 320 25 c 0
 296 6 261 -10 210 -10 c 0
 105 -10 45 49 45 145 c 0
 45 235 105 295 260 295 c 2
 340 295 l 1
 340 320 l 2
 340 400 300 440 235 440 c 0
 204 440 177 428 157 417 c 0
 145 410 134 403 125 395 c 1
 115 395 l 1
 80 455 l 1
 93 465 108 474 125 482 c 0
 154 497 194 510 245 510 c 0
340 125 m 1
 340 225 l 1
 260 225 l 2
 180 225 145 190 145 145 c 0
 145 94 175 65 235 65 c 0
 266 65 291 80 310 95 c 0
 321 104 331 114 340 125 c 1
EndSplineSet
EndChar

StartChar: adieresis
Encoding: 228 228 166
Width: 510
Flags: MW
HStem: -10 75<205 235.5> 225 70<220 340 260 340> 440 70<219.5 267.5> 565 110<149 181 324 356>
VStem: 45 100<119.5 167.5 119.5 190> 110 110<604 636> 285 110<604 636> 340 100<125 225 225 225 295 320 0 360>
LayerCount: 2
Fore
SplineSet
165 565 m 0x00
 133 565 110 588 110 620 c 0
 110 652 133 675 165 675 c 0
 197 675 220 652 220 620 c 0
 220 588 197 565 165 565 c 0x00
340 565 m 0
 308 565 285 588 285 620 c 0
 285 652 308 675 340 675 c 0
 372 675 395 652 395 620 c 0
 395 588 372 565 340 565 c 0
210 -10 m 0xf6
 105 -10 45 49 45 145 c 0
 45 235 105 295 260 295 c 2
 340 295 l 1
 340 320 l 2
 340 400 300 440 235 440 c 0
 204 440 177 428 157 417 c 0
 145 410 134 403 125 395 c 1
 115 395 l 1
 80 455 l 1
 93 465 108 474 125 482 c 0
 154 497 194 510 245 510 c 0
 360 510 440 430 440 320 c 2
 440 0 l 1
 370 0 l 1
 360 60 l 1
 355 60 l 1xe9
 346 47 334 35 320 25 c 0
 296 6 261 -10 210 -10 c 0xf6
235 65 m 0
 266 65 291 80 310 95 c 0
 321 104 331 114 340 125 c 1
 340 225 l 1
 260 225 l 2
 180 225 145 190 145 145 c 0
 145 94 175 65 235 65 c 0
EndSplineSet
EndChar

StartChar: aring
Encoding: 229 229 167
Width: 510
Flags: MW
HStem: -10 75<205 235.5> 225 70<220 340 260 340> 440 70<219.5 267.5> 560 50<245 265 245 285> 700 50<245 265>
VStem: 45 100<119.5 167.5 119.5 190> 155 60<639.5 670.5 639.5 683> 295 60<639.5 670.5> 340 100<125 225 225 225 295 320 0 360>
LayerCount: 2
Fore
SplineSet
255 560 m 0x00
 195 560 155 599 155 655 c 0
 155 711 195 750 255 750 c 0
 315 750 355 711 355 655 c 0
 355 599 315 560 255 560 c 0x00
255 610 m 0
 275 610 295 624 295 655 c 0
 295 686 275 700 255 700 c 0
 235 700 215 686 215 655 c 0
 215 624 235 610 255 610 c 0
210 -10 m 0xfb
 105 -10 45 49 45 145 c 0
 45 235 105 295 260 295 c 2
 340 295 l 1
 340 320 l 2
 340 400 300 440 235 440 c 0
 204 440 177 428 157 417 c 0
 145 410 134 403 125 395 c 1
 115 395 l 1
 80 455 l 1
 93 465 108 474 125 482 c 0
 154 497 194 510 245 510 c 0
 360 510 440 430 440 320 c 2
 440 0 l 1
 370 0 l 1
 360 60 l 1
 355 60 l 1xfe80
 346 47 334 35 320 25 c 0
 296 6 261 -10 210 -10 c 0xfb
235 65 m 0
 266 65 291 80 310 95 c 0
 321 104 331 114 340 125 c 1
 340 225 l 1
 260 225 l 2
 180 225 145 190 145 145 c 0
 145 94 175 65 235 65 c 0
EndSplineSet
EndChar

StartChar: ae
Encoding: 230 230 168
Width: 785
Flags: MW
HStem: -10 70<524.5 575.5 524.5 575.5> 215 70<440 640 440 720 440 640> 225 70<220 340 260 340> 440 70<219.5 267.5 512.5 567.5>
VStem: 45 100<119.5 167.5 119.5 190> 340 100<162.5 215 162.5 225 162.5 225 295 320 320 339.5> 640 100<235 339.5>
LayerCount: 2
Fore
SplineSet
210 -10 m 0x00
 105 -10 45 49 45 145 c 0
 45 235 105 295 260 295 c 2
 340 295 l 1xde
 340 320 l 2
 340 400 300 440 235 440 c 0
 204 440 177 428 157 417 c 0
 145 410 134 403 125 395 c 1
 115 395 l 1
 80 455 l 1
 93 465 108 474 125 482 c 0
 154 497 194 510 245 510 c 0
 321 510 370 480 395 435 c 1
 430 480 480 510 540 510 c 0
 655 510 740 425 740 250 c 2
 740 235 l 1
 720 215 l 1
 440 215 l 1
 440 110 489 60 560 60 c 0
 591 60 617 71 637 82 c 0
 649 89 660 96 670 105 c 1
 680 105 l 1
 715 45 l 1
 702 34 687 25 670 17 c 0
 641 2 601 -10 550 -10 c 0
 485 -10 426 15 387 70 c 1
 373 55 357 42 340 30 c 0
 309 10 266 -10 210 -10 c 0x00
440 285 m 1
 640 285 l 1
 640 394 595 440 540 440 c 0
 485 440 440 394 440 285 c 1
235 65 m 0xbe
 266 65 291 80 310 95 c 0
 321 104 331 114 340 125 c 1
 340 225 l 1
 260 225 l 2
 180 225 145 190 145 145 c 0
 145 94 175 65 235 65 c 0xbe
EndSplineSet
EndChar

StartChar: ccedilla
Encoding: 231 231 169
Width: 455
Flags: MW
HStem: -190 45<259.5 274.5 249.5 302> -75 45<217 305> -10 70<277 277> -5 21G<217 217> 440 70<235.5 285.5>
VStem: 50 100<180 320 180 337.5> 217 60<-30 -10 -30 -5 -30 -5> 302 65<-120 -100>
LayerCount: 2
Fore
SplineSet
390 17 m 0x00
 362 3 325 -9 277 -10 c 1xee
 277 -30 l 1xef
 333 -30 367 -65 367 -110 c 0
 367 -155 332 -190 272 -190 c 0
 247 -190 228 -185 213 -180 c 0
 205 -177 198 -174 192 -170 c 1
 208 -130 l 1
 217 -130 l 2
 216 -130 237 -145 262 -145 c 0
 287 -145 302 -130 302 -110 c 0
 302 -90 288 -75 257 -75 c 2xee
 217 -75 l 1x9e
 217 -5 l 1xae
 113 15 50 99 50 250 c 0
 50 425 135 510 260 510 c 0
 311 510 351 497 380 482 c 0
 397 474 412 465 425 455 c 1
 390 395 l 1
 380 395 l 1
 370 403 359 410 347 417 c 0
 327 428 301 440 270 440 c 0
 201 440 150 390 150 250 c 0
 150 110 200 60 280 60 c 0
 311 60 337 71 357 82 c 0
 369 89 380 96 390 105 c 1
 400 105 l 1
 435 45 l 1
 422 34 407 25 390 17 c 0x00
EndSplineSet
EndChar

StartChar: egrave
Encoding: 232 232 170
Width: 505
Flags: MW
HStem: -10 70<240 295.5 240 295.5> 215 70<150 360 150 440 150 360> 440 70<225 285> 550 150<225 225 225 245 135 290>
VStem: 50 100<162.5 215 285 337.5> 360 100<235 340.5>
LayerCount: 2
Fore
SplineSet
225 550 m 1
 135 700 l 1
 245 700 l 1
 290 550 l 1
 225 550 l 1
270 -10 m 0
 135 -10 50 75 50 250 c 0
 50 425 135 510 255 510 c 0
 375 510 460 425 460 250 c 2
 460 235 l 1
 440 215 l 1
 150 215 l 1
 150 110 200 60 280 60 c 0
 311 60 337 71 357 82 c 0
 369 89 380 96 390 105 c 1
 400 105 l 1
 435 45 l 1
 422 34 407 25 390 17 c 0
 361 2 321 -10 270 -10 c 0
150 285 m 1
 360 285 l 1
 360 396 315 440 255 440 c 0
 195 440 150 396 150 285 c 1
EndSplineSet
EndChar

StartChar: eacute
Encoding: 233 233 171
Width: 505
Flags: MW
HStem: -10 70<240 295.5 240 295.5> 215 70<150 360 150 440 150 360> 440 70<225 285> 550 150<215 370 260 280>
VStem: 50 100<162.5 215 285 337.5> 360 100<235 340.5>
LayerCount: 2
Fore
SplineSet
215 550 m 1
 260 700 l 1
 370 700 l 1
 280 550 l 1
 215 550 l 1
270 -10 m 0
 135 -10 50 75 50 250 c 0
 50 425 135 510 255 510 c 0
 375 510 460 425 460 250 c 2
 460 235 l 1
 440 215 l 1
 150 215 l 1
 150 110 200 60 280 60 c 0
 311 60 337 71 357 82 c 0
 369 89 380 96 390 105 c 1
 400 105 l 1
 435 45 l 1
 422 34 407 25 390 17 c 0
 361 2 321 -10 270 -10 c 0
150 285 m 1
 360 285 l 1
 360 396 315 440 255 440 c 0
 195 440 150 396 150 285 c 1
EndSplineSet
EndChar

StartChar: ecircumflex
Encoding: 234 234 172
Width: 505
Flags: MW
HStem: -10 70<240 295.5 240 295.5> 215 70<150 360 150 440 150 360> 440 70<225 285> 560 130<112 287 112 287 217 327 217 392>
VStem: 50 100<162.5 215 285 337.5> 360 100<235 340.5>
LayerCount: 2
Fore
SplineSet
112 560 m 1
 217 690 l 1
 287 690 l 1
 392 560 l 1
 327 560 l 1
 252 625 l 1
 177 560 l 1
 112 560 l 1
270 -10 m 0
 135 -10 50 75 50 250 c 0
 50 425 135 510 255 510 c 0
 375 510 460 425 460 250 c 2
 460 235 l 1
 440 215 l 1
 150 215 l 1
 150 110 200 60 280 60 c 0
 311 60 337 71 357 82 c 0
 369 89 380 96 390 105 c 1
 400 105 l 1
 435 45 l 1
 422 34 407 25 390 17 c 0
 361 2 321 -10 270 -10 c 0
150 285 m 1
 360 285 l 1
 360 396 315 440 255 440 c 0
 195 440 150 396 150 285 c 1
EndSplineSet
EndChar

StartChar: edieresis
Encoding: 235 235 173
Width: 505
Flags: MW
HStem: -10 70<240 295.5 240 295.5> 215 70<150 360 150 440 150 360> 440 70<225 285> 565 110<146 178 321 353>
VStem: 107 110<604 636> 282 110<604 636>
LayerCount: 2
Fore
SplineSet
162 565 m 0
 130 565 107 588 107 620 c 0
 107 652 130 675 162 675 c 0
 194 675 217 652 217 620 c 0
 217 588 194 565 162 565 c 0
337 565 m 0
 305 565 282 588 282 620 c 0
 282 652 305 675 337 675 c 0
 369 675 392 652 392 620 c 0
 392 588 369 565 337 565 c 0
270 -10 m 0
 135 -10 50 75 50 250 c 0
 50 425 135 510 255 510 c 0
 375 510 460 425 460 250 c 2
 460 235 l 1
 440 215 l 1
 150 215 l 1
 150 110 200 60 280 60 c 0
 311 60 337 71 357 82 c 0
 369 89 380 96 390 105 c 1
 400 105 l 1
 435 45 l 1
 422 34 407 25 390 17 c 0
 361 2 321 -10 270 -10 c 0
150 285 m 1
 360 285 l 1
 360 396 315 440 255 440 c 0
 195 440 150 396 150 285 c 1
EndSplineSet
EndChar

StartChar: igrave
Encoding: 236 236 174
Width: 258
Flags: MW
HStem: 0 21G<83 83 83 183> 480 20G<83 183 183 183> 550 150<105 105 105 125 15 170>
VStem: 83 100<0 500 0 500>
LayerCount: 2
Fore
SplineSet
105 550 m 1
 15 700 l 1
 125 700 l 1
 170 550 l 1
 105 550 l 1
83 0 m 1
 83 500 l 1
 183 500 l 1
 183 0 l 1
 83 0 l 1
EndSplineSet
EndChar

StartChar: iacute
Encoding: 237 237 175
Width: 257
Flags: MW
HStem: 0 21G<75 75 75 175> 480 20G<75 175 175 175> 550 150<87 242 132 152>
VStem: 75 100<0 500 0 500>
LayerCount: 2
Fore
SplineSet
87 550 m 1
 132 700 l 1
 242 700 l 1
 152 550 l 1
 87 550 l 1
75 0 m 1
 75 500 l 1
 175 500 l 1
 175 0 l 1
 75 0 l 1
EndSplineSet
EndChar

StartChar: icircumflex
Encoding: 238 238 176
Width: 260
Flags: MW
HStem: 0 21G<80 80 80 180> 480 20G<80 180 180 180> 560 130<-10 165 -10 165 95 205 95 270>
VStem: 80 100<0 500 0 500>
LayerCount: 2
Fore
SplineSet
-10 560 m 1
 95 690 l 1
 165 690 l 1
 270 560 l 1
 205 560 l 1
 130 625 l 1
 55 560 l 1
 -10 560 l 1
80 0 m 1
 80 500 l 1
 180 500 l 1
 180 0 l 1
 80 0 l 1
EndSplineSet
EndChar

StartChar: idieresis
Encoding: 239 239 177
Width: 260
Flags: MW
HStem: 0 21G<80 80 80 180> 480 20G<80 180 180 180> 565 110<24 56 199 231>
VStem: -15 110<604 636> 160 110<604 636>
LayerCount: 2
Fore
SplineSet
40 565 m 0
 8 565 -15 588 -15 620 c 0
 -15 652 8 675 40 675 c 0
 72 675 95 652 95 620 c 0
 95 588 72 565 40 565 c 0
215 565 m 0
 183 565 160 588 160 620 c 0
 160 652 183 675 215 675 c 0
 247 675 270 652 270 620 c 0
 270 588 247 565 215 565 c 0
80 0 m 1
 80 500 l 1
 180 500 l 1
 180 0 l 1
 80 0 l 1
EndSplineSet
EndChar

StartChar: eth
Encoding: 240 240 178
Width: 515
Flags: MW
HStem: -10 70<220 280 220 312.5> 385 75<220 260.5 175 280>
VStem: 40 100<167.5 279.5 167.5 300> 360 100<167.5 225 225 279.5>
LayerCount: 2
Fore
SplineSet
250 -10 m 0
 125 -10 40 75 40 225 c 0
 40 375 125 460 225 460 c 0
 296 460 344 441 375 390 c 1
 375 467 352 522 300 557 c 1
 270 494 l 1
 207 524 l 1
 237 587 l 1
 221 592 204 596 185 600 c 2
 130 610 l 1
 140 680 l 1
 200 670 l 2
 224 666 247 661 268 654 c 1
 296 713 l 1
 360 684 l 1
 332 625 l 1
 416 574 460 482 460 325 c 2
 460 225 l 2
 460 75 375 -10 250 -10 c 0
250 60 m 0
 310 60 360 110 360 225 c 0
 360 334 310 385 250 385 c 0
 190 385 140 334 140 225 c 0
 140 110 190 60 250 60 c 0
EndSplineSet
EndChar

StartChar: ntilde
Encoding: 241 241 179
Width: 545
Flags: MW
HStem: 0 21G<75 175 75 75 375 475 375 375> 435 75<279.5 308> 480 20G<75 145 145 145> 571 70<303 318 303 347.5> 616 70<233 248>
VStem: 75 100<0 375 0 500> 375 100<0 340 0 368>
LayerCount: 2
Fore
SplineSet
187 576 m 2x00
 178 576 l 1
 138 601 l 1
 154 646 177 686 228 686 c 0xd6
 278 686 288 641 318 641 c 0
 348 640 365 680 364 681 c 2
 373 681 l 1
 413 656 l 1
 398 611 372 571 323 571 c 0xce
 273 571 263 616 233 616 c 0
 204 615 187 577 187 576 c 2x00
305 510 m 0
 405 510 475 440 475 340 c 2
 475 0 l 1
 375 0 l 1
 375 340 l 2
 375 396 336 435 280 435 c 0
 249 435 224 420 205 405 c 0
 194 396 184 386 175 375 c 1xae
 175 0 l 1
 75 0 l 1
 75 500 l 1
 145 500 l 1
 155 440 l 1
 160 440 l 1xce
 169 453 181 464 195 475 c 0
 219 492 254 510 305 510 c 0
EndSplineSet
EndChar

StartChar: ograve
Encoding: 242 242 180
Width: 530
Flags: MW
HStem: -10 70<233 297 233 330> 440 70<233 297> 550 150<237 237 237 257 147 302>
VStem: 50 100<180 320 180 337.5> 380 100<180 320>
LayerCount: 2
Fore
SplineSet
237 550 m 1
 147 700 l 1
 257 700 l 1
 302 550 l 1
 237 550 l 1
265 -10 m 0
 134 -10 50 75 50 250 c 0
 50 425 134 510 265 510 c 0
 395 510 480 425 480 250 c 0
 480 75 395 -10 265 -10 c 0
265 60 m 0
 329 60 380 110 380 250 c 0
 380 390 329 440 265 440 c 0
 201 440 150 390 150 250 c 0
 150 110 201 60 265 60 c 0
EndSplineSet
EndChar

StartChar: oacute
Encoding: 243 243 181
Width: 530
Flags: MW
HStem: -10 70<233 297 233 330> 440 70<233 297> 550 150<227 382 272 292>
VStem: 50 100<180 320 180 337.5> 380 100<180 320>
LayerCount: 2
Fore
SplineSet
227 550 m 1
 272 700 l 1
 382 700 l 1
 292 550 l 1
 227 550 l 1
265 -10 m 0
 134 -10 50 75 50 250 c 0
 50 425 134 510 265 510 c 0
 395 510 480 425 480 250 c 0
 480 75 395 -10 265 -10 c 0
265 60 m 0
 329 60 380 110 380 250 c 0
 380 390 329 440 265 440 c 0
 201 440 150 390 150 250 c 0
 150 110 201 60 265 60 c 0
EndSplineSet
EndChar

StartChar: ocircumflex
Encoding: 244 244 182
Width: 530
Flags: MW
HStem: -10 70<233 297 233 330> 440 70<233 297> 560 130<125 300 125 300 230 340 230 405>
VStem: 50 100<180 320 180 337.5> 380 100<180 320>
LayerCount: 2
Fore
SplineSet
125 560 m 1
 230 690 l 1
 300 690 l 1
 405 560 l 1
 340 560 l 1
 265 625 l 1
 190 560 l 1
 125 560 l 1
265 -10 m 0
 134 -10 50 75 50 250 c 0
 50 425 134 510 265 510 c 0
 395 510 480 425 480 250 c 0
 480 75 395 -10 265 -10 c 0
265 60 m 0
 329 60 380 110 380 250 c 0
 380 390 329 440 265 440 c 0
 201 440 150 390 150 250 c 0
 150 110 201 60 265 60 c 0
EndSplineSet
EndChar

StartChar: otilde
Encoding: 245 245 183
Width: 530
Flags: MW
HStem: -10 70<233 297 233 330> 440 70<233 297> 561 70<286 301 286 330.5> 606 70<216 231>
VStem: 50 100<180 320 180 337.5> 380 100<180 320>
LayerCount: 2
Fore
SplineSet
170 566 m 2x00
 161 566 l 1
 121 591 l 1
 137 636 160 676 211 676 c 0xec
 261 676 271 631 301 631 c 0
 331 630 348 670 347 671 c 2
 356 671 l 1
 396 646 l 1
 381 601 355 561 306 561 c 0xdc
 256 561 246 606 216 606 c 0
 187 605 170 567 170 566 c 2x00
265 510 m 0
 395 510 480 425 480 250 c 0
 480 75 395 -10 265 -10 c 0
 134 -10 50 75 50 250 c 0
 50 425 134 510 265 510 c 0
265 60 m 0
 329 60 380 110 380 250 c 0
 380 390 329 440 265 440 c 0
 201 440 150 390 150 250 c 0
 150 110 201 60 265 60 c 0
EndSplineSet
EndChar

StartChar: odieresis
Encoding: 246 246 184
Width: 530
Flags: MW
HStem: -10 70<233 297 233 330> 440 70<233 297> 565 110<159 191 334 366>
VStem: 120 110<604 636> 295 110<604 636>
LayerCount: 2
Fore
SplineSet
175 565 m 0
 143 565 120 588 120 620 c 0
 120 652 143 675 175 675 c 0
 207 675 230 652 230 620 c 0
 230 588 207 565 175 565 c 0
350 565 m 0
 318 565 295 588 295 620 c 0
 295 652 318 675 350 675 c 0
 382 675 405 652 405 620 c 0
 405 588 382 565 350 565 c 0
265 -10 m 0
 134 -10 50 75 50 250 c 0
 50 425 134 510 265 510 c 0
 395 510 480 425 480 250 c 0
 480 75 395 -10 265 -10 c 0
265 60 m 0
 329 60 380 110 380 250 c 0
 380 390 329 440 265 440 c 0
 201 440 150 390 150 250 c 0
 150 110 201 60 265 60 c 0
EndSplineSet
EndChar

StartChar: divide
Encoding: 247 247 185
Width: 470
Flags: MW
HStem: 100 120<217.5 252.5> 290 80<30 440 30 440> 440 120<217.5 252.5>
VStem: 175 120<142.5 177.5 482.5 517.5>
CounterMasks: 1 e0
LayerCount: 2
Fore
SplineSet
235 440 m 0
 200 440 175 465 175 500 c 0
 175 535 200 560 235 560 c 0
 270 560 295 535 295 500 c 0
 295 465 270 440 235 440 c 0
30 290 m 1
 30 370 l 1
 440 370 l 1
 440 290 l 1
 30 290 l 1
235 100 m 0
 200 100 175 125 175 160 c 0
 175 195 200 220 235 220 c 0
 270 220 295 195 295 160 c 0
 295 125 270 100 235 100 c 0
EndSplineSet
EndChar

StartChar: oslash
Encoding: 248 248 186
Width: 530
Flags: MW
HStem: -10 70<251.5 297 251.5 330> 0 21G<60 140 60 60> 440 70<233 278.5> 480 20G<390 470 470 470>
VStem: 50 100<231.5 320 231.5 337.5> 380 100<180 268.5>
LayerCount: 2
Fore
SplineSet
265 -10 m 0x00
 223 -10 185 -1 152 18 c 1x6c
 140 0 l 1
 60 0 l 1
 101 63 l 1
 67 107 50 169 50 250 c 0
 50 425 134 510 265 510 c 0
 309 510 347 501 378 482 c 1x9c
 390 500 l 1
 470 500 l 1
 428 437 l 1xac
 461 394 480 333 480 250 c 0
 480 75 395 -10 265 -10 c 0x00
161 153 m 1
 333 414 l 1
 315 431 292 440 265 440 c 0
 201 440 150 390 150 250 c 0
 150 213 154 180 161 153 c 1
265 60 m 0
 329 60 380 110 380 250 c 0
 380 287 376 320 369 347 c 1
 196 86 l 1
 215 67 238 60 265 60 c 0
EndSplineSet
EndChar

StartChar: ugrave
Encoding: 249 249 187
Width: 550
Flags: MW
HStem: -10 75<242 270.5> 0 21G<405 475 405 405> 480 20G<75 175 175 175 375 475 475 475> 541 150<257 257 257 277 167 322>
VStem: 75 100<160 500> 375 100<125 500 0 500>
LayerCount: 2
Fore
SplineSet
257 541 m 1x00
 167 691 l 1
 277 691 l 1
 322 541 l 1
 257 541 l 1x00
245 -10 m 0
 145 -10 75 60 75 160 c 2
 75 500 l 1
 175 500 l 1
 175 160 l 2
 175 104 214 65 270 65 c 0
 301 65 326 80 345 95 c 0
 356 104 366 114 375 125 c 1x7c
 375 500 l 1
 475 500 l 1
 475 0 l 1
 405 0 l 1
 395 60 l 1
 390 60 l 1xbc
 381 47 369 35 355 25 c 0
 331 6 296 -10 245 -10 c 0
EndSplineSet
EndChar

StartChar: uacute
Encoding: 250 250 188
Width: 550
Flags: MW
HStem: -10 75<242 270.5> 0 21G<405 475 405 405> 480 20G<75 175 175 175 375 475 475 475> 541 150<237 392 282 302>
VStem: 75 100<160 500> 375 100<125 500 0 500>
LayerCount: 2
Fore
SplineSet
237 541 m 1x00
 282 691 l 1
 392 691 l 1
 302 541 l 1
 237 541 l 1x00
245 -10 m 0
 145 -10 75 60 75 160 c 2
 75 500 l 1
 175 500 l 1
 175 160 l 2
 175 104 214 65 270 65 c 0
 301 65 326 80 345 95 c 0
 356 104 366 114 375 125 c 1x7c
 375 500 l 1
 475 500 l 1
 475 0 l 1
 405 0 l 1
 395 60 l 1
 390 60 l 1xbc
 381 47 369 35 355 25 c 0
 331 6 296 -10 245 -10 c 0
EndSplineSet
EndChar

StartChar: ucircumflex
Encoding: 251 251 189
Width: 550
Flags: MW
HStem: -10 75<242 270.5> 0 21G<405 475 405 405> 480 20G<75 175 175 175 375 475 475 475> 560 130<135 310 135 310 240 350 240 415>
VStem: 75 100<160 500> 375 100<125 500 0 500>
LayerCount: 2
Fore
SplineSet
135 560 m 1x00
 240 690 l 1
 310 690 l 1
 415 560 l 1
 350 560 l 1
 275 625 l 1
 200 560 l 1
 135 560 l 1x00
245 -10 m 0
 145 -10 75 60 75 160 c 2
 75 500 l 1
 175 500 l 1
 175 160 l 2
 175 104 214 65 270 65 c 0
 301 65 326 80 345 95 c 0
 356 104 366 114 375 125 c 1x7c
 375 500 l 1
 475 500 l 1
 475 0 l 1
 405 0 l 1
 395 60 l 1
 390 60 l 1xbc
 381 47 369 35 355 25 c 0
 331 6 296 -10 245 -10 c 0
EndSplineSet
EndChar

StartChar: udieresis
Encoding: 252 252 190
Width: 550
Flags: MW
HStem: -10 75<242 270.5> 0 21G<405 475 405 405> 480 20G<75 175 175 175 375 475 475 475> 565 110<169 201 344 376>
VStem: 75 100<160 500> 130 110<604 636> 305 110<604 636> 375 100<125 500 0 500>
LayerCount: 2
Fore
SplineSet
185 565 m 0x00
 153 565 130 588 130 620 c 0
 130 652 153 675 185 675 c 0
 217 675 240 652 240 620 c 0
 240 588 217 565 185 565 c 0x00
360 565 m 0
 328 565 305 588 305 620 c 0
 305 652 328 675 360 675 c 0
 392 675 415 652 415 620 c 0
 415 588 392 565 360 565 c 0
245 -10 m 0xb6
 145 -10 75 60 75 160 c 2
 75 500 l 1
 175 500 l 1
 175 160 l 2
 175 104 214 65 270 65 c 0
 301 65 326 80 345 95 c 0
 356 104 366 114 375 125 c 1x79
 375 500 l 1
 475 500 l 1
 475 0 l 1
 405 0 l 1
 395 60 l 1
 390 60 l 1xb9
 381 47 369 35 355 25 c 0
 331 6 296 -10 245 -10 c 0xb6
EndSplineSet
EndChar

StartChar: yacute
Encoding: 253 253 191
Width: 475
Flags: MW
HStem: -210 70<119.5 142.5 117.5 177.5> 0 21G<190 220 190 190> 480 20G<19 115 115 115 360 460 460 460> 541 150<200 355 245 265>
VStem: 19 441<500 500>
LayerCount: 2
Fore
SplineSet
200 541 m 1
 245 691 l 1
 355 691 l 1
 265 541 l 1
 200 541 l 1
135 -210 m 0
 104 -210 79 -203 62 -195 c 0
 51 -191 42 -186 35 -180 c 1
 60 -115 l 1
 70 -115 l 1
 75 -120 80 -125 86 -128 c 0
 97 -135 110 -140 125 -140 c 0
 160 -140 189 -110 200 -70 c 2
 220 0 l 1
 190 0 l 1
 19 500 l 1
 115 500 l 1
 225 170 l 2
 230 155 235 135 239 119 c 0
 242 110 244 100 246 90 c 1
 250 90 l 1
 251 100 253 110 256 119 c 2
 269 170 l 1
 360 500 l 1
 460 500 l 1
 300 -70 l 2
 277 -150 220 -210 135 -210 c 0
EndSplineSet
EndChar

StartChar: thorn
Encoding: 254 254 192
Width: 540
Flags: MW
HStem: -10 70<274.5 307 261 347.5> 440 70<274.5 307> 680 20G<110 180 180 180>
VStem: 80 100<-200 20 -200 80 80 420 480 670 670 670> 390 100<180 320>
LayerCount: 2
Fore
SplineSet
80 -200 m 1
 80 670 l 1
 110 700 l 1
 180 700 l 1
 180 480 l 1
 189 485 200 490 212 495 c 0
 232 502 259 510 290 510 c 0
 405 510 490 425 490 250 c 0
 490 75 405 -10 290 -10 c 0
 259 -10 232 -3 212 5 c 0
 200 9 189 14 180 20 c 1
 180 -200 l 1
 80 -200 l 1
275 60 m 0
 339 60 390 110 390 250 c 0
 390 390 339 440 275 440 c 0
 247 440 224 435 207 430 c 0
 197 427 188 424 180 420 c 1
 180 80 l 1
 188 76 197 73 207 70 c 0
 224 65 247 60 275 60 c 0
EndSplineSet
EndChar

StartChar: ydieresis
Encoding: 255 255 193
Width: 475
Flags: MW
HStem: -210 70<119.5 142.5 117.5 177.5> 0 21G<190 220 190 190> 480 20G<19 115 115 115 360 460 460 460> 565 110<131 163 306 338>
VStem: 92 110<604 636> 267 110<604 636>
LayerCount: 2
Fore
SplineSet
147 565 m 0
 115 565 92 588 92 620 c 0
 92 652 115 675 147 675 c 0
 179 675 202 652 202 620 c 0
 202 588 179 565 147 565 c 0
322 565 m 0
 290 565 267 588 267 620 c 0
 267 652 290 675 322 675 c 0
 354 675 377 652 377 620 c 0
 377 588 354 565 322 565 c 0
135 -210 m 0
 104 -210 79 -203 62 -195 c 0
 51 -191 42 -186 35 -180 c 1
 60 -115 l 1
 70 -115 l 1
 75 -120 80 -125 86 -128 c 0
 97 -135 110 -140 125 -140 c 0
 160 -140 189 -110 200 -70 c 2
 220 0 l 1
 190 0 l 1
 19 500 l 1
 115 500 l 1
 225 170 l 2
 230 155 235 135 239 119 c 0
 242 110 244 100 246 90 c 1
 250 90 l 1
 251 100 253 110 256 119 c 2
 269 170 l 1
 360 500 l 1
 460 500 l 1
 300 -70 l 2
 277 -150 220 -210 135 -210 c 0
EndSplineSet
EndChar

StartChar: Amacron
Encoding: 256 256 194
Width: 570
Flags: MW
HStem: 0 21G<15 15 15 115 455 455 455 555> 180 70<190 380 190 400 170 380> 595 105<283 287 283 283> 780 70<150 420 150 420>
VStem: 15 540<0 0>
LayerCount: 2
Fore
SplineSet
150 780 m 1
 150 850 l 1
 420 850 l 1
 420 780 l 1
 150 780 l 1
15 0 m 1
 220 700 l 1
 350 700 l 1
 555 0 l 1
 455 0 l 1
 400 180 l 1
 170 180 l 1
 115 0 l 1
 15 0 l 1
190 250 m 1
 380 250 l 1
 300 525 l 2
 295 540 293 557 290 572 c 2
 287 595 l 1
 283 595 l 1
 280 571 l 2
 277 556 274 540 270 525 c 2
 190 250 l 1
EndSplineSet
EndChar

StartChar: amacron
Encoding: 257 257 195
Width: 510
Flags: MW
HStem: -10 75<205 235.5> 225 70<220 340 260 340> 440 70<219.5 267.5> 590 70<130 400 130 400>
VStem: 45 100<119.5 167.5 119.5 190> 130 270<590 660 590 660> 340 100<125 225 225 225 295 320 0 360>
LayerCount: 2
Fore
SplineSet
130 590 m 1x00
 130 660 l 1
 400 660 l 1
 400 590 l 1
 130 590 l 1x00
210 -10 m 0xf4
 105 -10 45 49 45 145 c 0
 45 235 105 295 260 295 c 2
 340 295 l 1
 340 320 l 2
 340 400 300 440 235 440 c 0
 204 440 177 428 157 417 c 0
 145 410 134 403 125 395 c 1
 115 395 l 1
 80 455 l 1
 93 465 108 474 125 482 c 0
 154 497 194 510 245 510 c 0
 360 510 440 430 440 320 c 2
 440 0 l 1
 370 0 l 1
 360 60 l 1
 355 60 l 1xfa
 346 47 334 35 320 25 c 0
 296 6 261 -10 210 -10 c 0xf4
235 65 m 0
 266 65 291 80 310 95 c 0
 321 104 331 114 340 125 c 1
 340 225 l 1
 260 225 l 2
 180 225 145 190 145 145 c 0
 145 94 175 65 235 65 c 0
EndSplineSet
EndChar

StartChar: Abreve
Encoding: 258 258 196
Width: 570
Flags: MW
HStem: 0 21G<15 15 15 115 455 455 455 555> 180 70<190 380 190 400 170 380> 595 105<283 287 283 283> 760 60<265 305 265 335>
VStem: 135 90<864.5 890 864.5 890> 345 90<864.5 890>
LayerCount: 2
Fore
SplineSet
285 760 m 0
 185 760 135 810 135 890 c 1
 225 890 l 1
 225 839 245 820 285 820 c 0
 325 820 345 839 345 890 c 1
 435 890 l 1
 435 810 385 760 285 760 c 0
15 0 m 1
 220 700 l 1
 350 700 l 1
 555 0 l 1
 455 0 l 1
 400 180 l 1
 170 180 l 1
 115 0 l 1
 15 0 l 1
190 250 m 1
 380 250 l 1
 300 525 l 2
 295 540 293 557 290 572 c 2
 287 595 l 1
 283 595 l 1
 280 571 l 2
 277 556 274 540 270 525 c 2
 190 250 l 1
EndSplineSet
EndChar

StartChar: abreve
Encoding: 259 259 197
Width: 510
Flags: MW
HStem: -10 75<205 235.5> 225 70<220 340 260 340> 440 70<219.5 267.5> 551 60<235 275 235 305>
VStem: 45 100<119.5 167.5 119.5 190> 105 90<655.5 681 655.5 681> 315 90<655.5 681> 340 100<125 225 225 225 295 320 0 360>
LayerCount: 2
Fore
SplineSet
255 551 m 0x00
 155 551 105 601 105 681 c 1
 195 681 l 1
 195 630 215 611 255 611 c 0
 295 611 315 630 315 681 c 1
 405 681 l 1
 405 601 355 551 255 551 c 0x00
210 -10 m 0xf6
 105 -10 45 49 45 145 c 0
 45 235 105 295 260 295 c 2
 340 295 l 1
 340 320 l 2
 340 400 300 440 235 440 c 0
 204 440 177 428 157 417 c 0
 145 410 134 403 125 395 c 1
 115 395 l 1
 80 455 l 1
 93 465 108 474 125 482 c 0
 154 497 194 510 245 510 c 0
 360 510 440 430 440 320 c 2
 440 0 l 1
 370 0 l 1
 360 60 l 1
 355 60 l 1xf9
 346 47 334 35 320 25 c 0
 296 6 261 -10 210 -10 c 0xf6
235 65 m 0
 266 65 291 80 310 95 c 0
 321 104 331 114 340 125 c 1
 340 225 l 1
 260 225 l 2
 180 225 145 190 145 145 c 0
 145 94 175 65 235 65 c 0
EndSplineSet
EndChar

StartChar: Aogonek
Encoding: 260 260 198
Width: 575
Flags: MW
HStem: -155 55<530 537.5> 0 21G<15 115 15 15 455 485 455 455 555 555> 180 70<190 380 190 400 170 380> 595 105<283 287 283 283>
VStem: 435 70<-75 -68.5> 596 9<-130 -78>
LayerCount: 2
Fore
SplineSet
596 -78 m 1
 605 -78 l 1
 605 -130 l 1
 599 -135 592 -140 584 -143 c 0
 569 -150 550 -155 525 -155 c 0
 465 -155 435 -125 435 -80 c 0
 435 -57 447 -38 460 -23 c 0
 467 -15 476 -7 485 0 c 1
 455 0 l 1
 400 180 l 1
 170 180 l 1
 115 0 l 1
 15 0 l 1
 220 700 l 1
 350 700 l 1
 555 0 l 1
 546 -5 537 -12 530 -19 c 0
 517 -31 505 -48 505 -65 c 0
 505 -85 520 -100 540 -100 c 0
 570 -100 596 -78 596 -78 c 1
190 250 m 1
 380 250 l 1
 300 525 l 2
 295 540 293 557 290 572 c 2
 287 595 l 1
 283 595 l 1
 280 571 l 2
 277 556 274 540 270 525 c 2
 190 250 l 1
EndSplineSet
EndChar

StartChar: aogonek
Encoding: 261 261 199
Width: 505
Flags: MW
HStem: -155 55<420 427.5> -10 75<205 235.5> 0 21G<370 375 370 370 440 445 445 445> 225 70<220 340 260 340> 440 70<219.5 267.5>
VStem: 45 100<119.5 167.5 119.5 190> 325 70<-75 -68.5> 340 100<125 225 225 225 295 320 0 360> 486 9<-130 -78>
LayerCount: 2
Fore
SplineSet
486 -78 m 1x00
 495 -78 l 1
 495 -130 l 1
 489 -135 482 -140 474 -143 c 0
 459 -150 440 -155 415 -155 c 0
 355 -155 325 -125 325 -80 c 0
 325 -57 337 -38 350 -23 c 0
 357 -15 366 -7 375 0 c 1
 370 0 l 1
 360 60 l 1
 355 60 l 1xde80
 346 47 334 35 320 25 c 0xdd80
 296 6 261 -10 210 -10 c 0
 105 -10 45 49 45 145 c 0
 45 235 105 295 260 295 c 2
 340 295 l 1
 340 320 l 2
 340 400 300 440 235 440 c 0
 204 440 177 428 157 417 c 0
 145 410 134 403 125 395 c 1
 115 395 l 1
 80 455 l 1
 93 465 108 474 125 482 c 0
 154 497 194 510 245 510 c 0
 360 510 440 430 440 320 c 2
 440 0 l 1
 445 0 l 1xde80
 436 -5 427 -12 420 -19 c 0
 407 -31 395 -48 395 -65 c 0xdd80
 395 -85 410 -100 430 -100 c 0
 460 -100 486 -78 486 -78 c 1x00
340 125 m 1xbe80
 340 225 l 1
 260 225 l 2
 180 225 145 190 145 145 c 0
 145 94 175 65 235 65 c 0
 266 65 291 80 310 95 c 0
 321 104 331 114 340 125 c 1xbe80
EndSplineSet
EndChar

StartChar: Cacute
Encoding: 262 262 200
Width: 515
Flags: MW
HStem: -10 70<275 342.5 275 343> 640 70<270 332.5> 750 150<270 425 315 335>
VStem: 55 100<240 460 240 480>
LayerCount: 2
Fore
SplineSet
270 750 m 1
 315 900 l 1
 425 900 l 1
 335 750 l 1
 270 750 l 1
315 -10 m 0
 155 -10 55 90 55 350 c 0
 55 610 156 710 305 710 c 0
 361 710 403 697 434 682 c 0
 451 674 467 665 480 655 c 1
 445 595 l 1
 435 595 l 1
 424 603 413 610 401 617 c 0
 380 628 350 640 315 640 c 0
 225 640 155 570 155 350 c 0
 155 130 225 60 325 60 c 0
 360 60 390 71 411 82 c 0
 423 89 434 96 445 105 c 1
 455 105 l 1
 490 45 l 1
 477 34 461 25 444 17 c 0
 413 2 371 -10 315 -10 c 0
EndSplineSet
EndChar

StartChar: cacute
Encoding: 263 263 201
Width: 455
Flags: MW
HStem: -10 70<240 295.5 240 295.5> 440 70<235.5 285.5> 550 150<212 367 257 277>
VStem: 50 100<180 320 180 337.5>
LayerCount: 2
Fore
SplineSet
212 550 m 1
 257 700 l 1
 367 700 l 1
 277 550 l 1
 212 550 l 1
270 -10 m 0
 135 -10 50 75 50 250 c 0
 50 425 135 510 260 510 c 0
 311 510 351 497 380 482 c 0
 397 474 412 465 425 455 c 1
 390 395 l 1
 380 395 l 1
 370 403 359 410 347 417 c 0
 327 428 301 440 270 440 c 0
 201 440 150 390 150 250 c 0
 150 110 200 60 280 60 c 0
 311 60 337 71 357 82 c 0
 369 89 380 96 390 105 c 1
 400 105 l 1
 435 45 l 1
 422 34 407 25 390 17 c 0
 361 2 321 -10 270 -10 c 0
EndSplineSet
EndChar

StartChar: Ccaron
Encoding: 268 268 202
Width: 515
Flags: MW
HStem: -10 70<275 342.5 275 343> 640 70<270 332.5> 760 130<167 272 167 342>
VStem: 55 100<240 460 240 480>
LayerCount: 2
Fore
SplineSet
272 760 m 1
 167 890 l 1
 232 890 l 1
 307 825 l 1
 382 890 l 1
 447 890 l 1
 342 760 l 1
 272 760 l 1
315 -10 m 0
 155 -10 55 90 55 350 c 0
 55 610 156 710 305 710 c 0
 361 710 403 697 434 682 c 0
 451 674 467 665 480 655 c 1
 445 595 l 1
 435 595 l 1
 424 603 413 610 401 617 c 0
 380 628 350 640 315 640 c 0
 225 640 155 570 155 350 c 0
 155 130 225 60 325 60 c 0
 360 60 390 71 411 82 c 0
 423 89 434 96 445 105 c 1
 455 105 l 1
 490 45 l 1
 477 34 461 25 444 17 c 0
 413 2 371 -10 315 -10 c 0
EndSplineSet
EndChar

StartChar: ccaron
Encoding: 269 269 203
Width: 455
Flags: MW
HStem: -10 70<240 295.5 240 295.5> 440 70<235.5 285.5> 560 130<110 215 110 285>
VStem: 50 100<180 320 180 337.5>
LayerCount: 2
Fore
SplineSet
215 560 m 1
 110 690 l 1
 175 690 l 1
 250 625 l 1
 325 690 l 1
 390 690 l 1
 285 560 l 1
 215 560 l 1
270 -10 m 0
 135 -10 50 75 50 250 c 0
 50 425 135 510 260 510 c 0
 311 510 351 497 380 482 c 0
 397 474 412 465 425 455 c 1
 390 395 l 1
 380 395 l 1
 370 403 359 410 347 417 c 0
 327 428 301 440 270 440 c 0
 201 440 150 390 150 250 c 0
 150 110 200 60 280 60 c 0
 311 60 337 71 357 82 c 0
 369 89 380 96 390 105 c 1
 400 105 l 1
 435 45 l 1
 422 34 407 25 390 17 c 0
 361 2 321 -10 270 -10 c 0
EndSplineSet
EndChar

StartChar: Dcaron
Encoding: 270 270 204
Width: 585
Flags: MW
HStem: 0 70<190 240 190 240> 630 70<190 240 190 190> 760 130<127 232 127 302>
VStem: 90 100<70 70 70 630> 430 100<244.5 455.5>
LayerCount: 2
Fore
SplineSet
232 760 m 1
 127 890 l 1
 192 890 l 1
 267 825 l 1
 342 890 l 1
 407 890 l 1
 302 760 l 1
 232 760 l 1
90 0 m 1
 90 700 l 1
 240 700 l 2
 430 700 530 601 530 350 c 0
 530 99 430 0 240 0 c 2
 90 0 l 1
190 70 m 1
 240 70 l 2
 360 70 430 139 430 350 c 0
 430 561 360 630 240 630 c 2
 190 630 l 1
 190 70 l 1
EndSplineSet
EndChar

StartChar: dcaron
Encoding: 271 271 205
Width: 645
Flags: MW
HStem: -10 75<227 255.5> 0 21G<390 460 390 390> 440 70<233 265.5 192.5 278.5> 680 20G<390 460 460 460 562.5 592.5>
VStem: 50 100<182.5 320 182.5 337.5> 360 100<125 420 420 420 480 670 670 670> 525 110<515 655.5 629.5 655.5 609.5 660.5>
LayerCount: 2
Fore
SplineSet
230 -10 m 0x00
 135 -10 50 75 50 250 c 0
 50 425 135 510 250 510 c 0
 281 510 307 502 327 495 c 2
 360 480 l 1
 360 670 l 1
 390 700 l 1
 460 700 l 1
 460 0 l 1
 390 0 l 1
 380 60 l 1
 375 60 l 1xbc
 366 47 354 35 340 25 c 0
 316 6 281 -10 230 -10 c 0x00
555 484 m 1x7c
 525 515 l 1
 534 522 543 529 550 537 c 0
 562 552 575 570 575 590 c 1xbe
 550 590 525 614 525 645 c 0
 525 676 550 700 575 700 c 0
 610 700 635 675 635 636 c 0
 635 583 615 545 595 520 c 0
 583 505 570 493 555 484 c 1x7c
255 65 m 0
 286 65 311 80 330 95 c 0
 341 104 351 114 360 125 c 1
 360 420 l 1
 352 424 343 427 333 430 c 0
 316 435 292 440 265 440 c 0
 201 440 150 390 150 250 c 0
 150 115 199 65 255 65 c 0
EndSplineSet
EndChar

StartChar: Dcroat
Encoding: 272 272 206
Width: 585
Flags: MW
HStem: 0 70<190 240 190 240> 320 80<35 90 35 90 190 305> 630 70<190 240 190 190>
VStem: 90 100<70 70 70 320 400 630> 430 100<244.5 455.5>
LayerCount: 2
Fore
SplineSet
90 0 m 1
 90 320 l 1
 35 320 l 1
 35 400 l 1
 90 400 l 1
 90 700 l 1
 240 700 l 2
 430 700 530 601 530 350 c 0
 530 99 430 0 240 0 c 2
 90 0 l 1
190 70 m 1
 240 70 l 2
 360 70 430 139 430 350 c 0
 430 561 360 630 240 630 c 2
 190 630 l 1
 190 400 l 1
 305 400 l 1
 305 320 l 1
 190 320 l 1
 190 70 l 1
EndSplineSet
EndChar

StartChar: dcroat
Encoding: 273 273 207
Width: 545
Flags: MW
HStem: -10 75<227 255.5> 0 21G<390 460 390 390> 400 70<232.5 265.5 192.5 278.5> 530 70<255 360 255 360 460 525> 530 170<255 460 255 460 390 460 390 525>
VStem: 50 100<172.5 290 172.5 308> 360 100<125 380 380 380 440 530 0 530 600 670 670 670>
LayerCount: 2
Fore
SplineSet
230 -10 m 0x00
 135 -10 50 74 50 230 c 0
 50 386 135 470 250 470 c 0
 281 470 307 462 327 455 c 2
 360 440 l 1
 360 530 l 1
 255 530 l 1xb6
 255 600 l 1
 360 600 l 1
 360 670 l 1xae
 390 700 l 1
 460 700 l 1xb6
 460 600 l 1
 525 600 l 1x6e
 525 530 l 1
 460 530 l 1
 460 0 l 1
 390 0 l 1
 380 60 l 1
 375 60 l 1xae
 366 47 354 35 340 25 c 0
 316 6 281 -10 230 -10 c 0x00
255 65 m 0
 286 65 311 80 330 95 c 0
 341 104 351 114 360 125 c 1
 360 380 l 1
 352 384 343 387 333 390 c 0
 316 395 292 400 265 400 c 0
 200 400 150 350 150 230 c 0
 150 115 199 65 255 65 c 0
EndSplineSet
EndChar

StartChar: Emacron
Encoding: 274 274 208
Width: 510
Flags: MW
HStem: 0 70<190 480 190 480> 330 70<190 420 190 420> 630 70<190 480 190 190> 790 70<152 422 152 422>
VStem: 152 270<790 860 790 860>
LayerCount: 2
Fore
SplineSet
152 790 m 1
 152 860 l 1
 422 860 l 1
 422 790 l 1
 152 790 l 1
90 0 m 1
 90 700 l 1
 480 700 l 1
 480 630 l 1
 190 630 l 1
 190 400 l 1
 420 400 l 1
 420 330 l 1
 190 330 l 1
 190 70 l 1
 480 70 l 1
 480 0 l 1
 90 0 l 1
EndSplineSet
EndChar

StartChar: emacron
Encoding: 275 275 209
Width: 505
Flags: MW
HStem: -10 70<240 295.5 240 295.5> 215 70<150 360 150 440 150 360> 440 70<225 285> 590 70<127 397 127 397>
VStem: 127 270<590 660 590 660>
LayerCount: 2
Fore
SplineSet
127 590 m 1
 127 660 l 1
 397 660 l 1
 397 590 l 1
 127 590 l 1
270 -10 m 0
 135 -10 50 75 50 250 c 0
 50 425 135 510 255 510 c 0
 375 510 460 425 460 250 c 2
 460 235 l 1
 440 215 l 1
 150 215 l 1
 150 110 200 60 280 60 c 0
 311 60 337 71 357 82 c 0
 369 89 380 96 390 105 c 1
 400 105 l 1
 435 45 l 1
 422 34 407 25 390 17 c 0
 361 2 321 -10 270 -10 c 0
150 285 m 1
 360 285 l 1
 360 396 315 440 255 440 c 0
 195 440 150 396 150 285 c 1
EndSplineSet
EndChar

StartChar: Edotaccent
Encoding: 278 278 210
Width: 510
Flags: MW
HStem: 0 70<190 480 190 480> 330 70<190 420 190 420> 630 70<190 480 190 190> 760 120<279.5 314.5>
VStem: 90 100<70 330 400 630> 237 120<802.5 837.5>
LayerCount: 2
Fore
SplineSet
297 760 m 0
 262 760 237 785 237 820 c 0
 237 855 262 880 297 880 c 0
 332 880 357 855 357 820 c 0
 357 785 332 760 297 760 c 0
90 0 m 1
 90 700 l 1
 480 700 l 1
 480 630 l 1
 190 630 l 1
 190 400 l 1
 420 400 l 1
 420 330 l 1
 190 330 l 1
 190 70 l 1
 480 70 l 1
 480 0 l 1
 90 0 l 1
EndSplineSet
EndChar

StartChar: edotaccent
Encoding: 279 279 211
Width: 505
Flags: MW
HStem: -10 70<240 295.5 240 295.5> 215 70<150 360 150 440 150 360> 440 70<225 285> 560 120<234.5 269.5>
VStem: 50 100<162.5 215 285 337.5> 192 120<602.5 637.5> 360 100<235 340.5>
LayerCount: 2
Fore
SplineSet
252 560 m 0
 217 560 192 585 192 620 c 0
 192 655 217 680 252 680 c 0
 287 680 312 655 312 620 c 0
 312 585 287 560 252 560 c 0
270 -10 m 0
 135 -10 50 75 50 250 c 0
 50 425 135 510 255 510 c 0
 375 510 460 425 460 250 c 2
 460 235 l 1
 440 215 l 1
 150 215 l 1
 150 110 200 60 280 60 c 0
 311 60 337 71 357 82 c 0
 369 89 380 96 390 105 c 1
 400 105 l 1
 435 45 l 1
 422 34 407 25 390 17 c 0
 361 2 321 -10 270 -10 c 0
150 285 m 1
 360 285 l 1
 360 396 315 440 255 440 c 0
 195 440 150 396 150 285 c 1
EndSplineSet
EndChar

StartChar: Eogonek
Encoding: 280 280 212
Width: 510
Flags: MW
HStem: -155 55<315 322.5> 0 70<190 270 340 480 340 340> 330 70<190 420 190 420> 630 70<190 480 190 190>
VStem: 90 100<70 330 400 630> 220 70<-75 -68.5> 381 9<-130 -78>
LayerCount: 2
Fore
SplineSet
480 630 m 1
 190 630 l 1
 190 400 l 1
 420 400 l 1
 420 330 l 1
 190 330 l 1
 190 70 l 1
 480 70 l 1
 480 0 l 1
 340 0 l 1
 331 -5 322 -12 315 -19 c 0
 302 -31 290 -48 290 -65 c 0
 290 -85 305 -100 325 -100 c 0
 355 -100 381 -78 381 -78 c 1
 390 -78 l 1
 390 -130 l 1
 384 -135 377 -140 369 -143 c 0
 354 -150 335 -155 310 -155 c 0
 250 -155 220 -125 220 -80 c 0
 220 -57 232 -38 245 -23 c 0
 252 -15 261 -7 270 0 c 1
 90 0 l 1
 90 700 l 1
 480 700 l 1
 480 630 l 1
EndSplineSet
EndChar

StartChar: eogonek
Encoding: 281 281 213
Width: 505
Flags: MW
HStem: -155 55<285 292.5> -7 21G 215 70<150 360 150 440 150 360> 440 70<225 285>
VStem: 50 100<171.5 215 285 337.5> 190 70<-75 -68.5> 351 9<-130 -78> 360 100<235 340.5>
LayerCount: 2
Fore
SplineSet
255 510 m 0x00
 375 510 460 425 460 250 c 2
 460 235 l 1
 440 215 l 1xfe
 150 215 l 1
 150 110 200 60 280 60 c 0
 311 60 337 71 357 82 c 0
 369 89 380 96 390 105 c 1
 400 105 l 1
 435 45 l 1
 422 34 407 25 390 17 c 0
 366 5 335 -6 297 -9 c 0
 292 -12 288 -16 285 -19 c 0
 272 -31 260 -48 260 -65 c 0
 260 -85 275 -100 295 -100 c 0
 325 -100 351 -78 351 -78 c 1
 360 -78 l 1
 360 -130 l 1
 354 -135 347 -140 339 -143 c 0xfd
 324 -150 305 -155 280 -155 c 0
 220 -155 190 -125 190 -80 c 0
 190 -57 202 -38 215 -23 c 0
 220 -18 225 -12 231 -7 c 1
 119 8 50 93 50 250 c 0
 50 425 135 510 255 510 c 0x00
150 285 m 1xfd
 360 285 l 1
 360 396 315 440 255 440 c 0
 195 440 150 396 150 285 c 1xfd
EndSplineSet
EndChar

StartChar: Ecaron
Encoding: 282 282 214
Width: 510
Flags: MW
HStem: 0 70<190 480 190 480> 330 70<190 420 190 420> 630 70<190 480 190 190> 760 130<157 262 157 332>
VStem: 90 100<70 330 400 630>
LayerCount: 2
Fore
SplineSet
262 760 m 1
 157 890 l 1
 222 890 l 1
 297 825 l 1
 372 890 l 1
 437 890 l 1
 332 760 l 1
 262 760 l 1
90 0 m 1
 90 700 l 1
 480 700 l 1
 480 630 l 1
 190 630 l 1
 190 400 l 1
 420 400 l 1
 420 330 l 1
 190 330 l 1
 190 70 l 1
 480 70 l 1
 480 0 l 1
 90 0 l 1
EndSplineSet
EndChar

StartChar: ecaron
Encoding: 283 283 215
Width: 505
Flags: MW
HStem: -10 70<240 295.5 240 295.5> 215 70<150 360 150 440 150 360> 440 70<225 285> 560 130<112 217 112 287>
VStem: 50 100<162.5 215 285 337.5> 360 100<235 340.5>
LayerCount: 2
Fore
SplineSet
217 560 m 1
 112 690 l 1
 177 690 l 1
 252 625 l 1
 327 690 l 1
 392 690 l 1
 287 560 l 1
 217 560 l 1
270 -10 m 0
 135 -10 50 75 50 250 c 0
 50 425 135 510 255 510 c 0
 375 510 460 425 460 250 c 2
 460 235 l 1
 440 215 l 1
 150 215 l 1
 150 110 200 60 280 60 c 0
 311 60 337 71 357 82 c 0
 369 89 380 96 390 105 c 1
 400 105 l 1
 435 45 l 1
 422 34 407 25 390 17 c 0
 361 2 321 -10 270 -10 c 0
150 285 m 1
 360 285 l 1
 360 396 315 440 255 440 c 0
 195 440 150 396 150 285 c 1
EndSplineSet
EndChar

StartChar: Gbreve
Encoding: 286 286 216
Width: 565
Flags: MW
HStem: -10 70<275 325 275 343.5> 310 70<285 400 285 470> 640 70<270 332.5> 750 60<277 317 277 347>
VStem: 147 90<854.5 880 854.5 880> 357 90<854.5 880>
LayerCount: 2
Fore
SplineSet
297 750 m 0
 197 750 147 800 147 880 c 1
 237 880 l 1
 237 829 257 810 297 810 c 0
 337 810 357 829 357 880 c 1
 447 880 l 1
 447 800 397 750 297 750 c 0
315 -10 m 0
 165 -10 55 99 55 350 c 0
 55 601 165 710 305 710 c 0
 361 710 403 697 434 682 c 0
 451 674 467 665 480 655 c 1
 445 595 l 1
 435 595 l 1
 424 603 413 610 401 617 c 0
 380 628 350 640 315 640 c 0
 225 640 155 570 155 350 c 0
 155 130 225 60 325 60 c 0
 365 61 400 80 400 80 c 1
 400 310 l 1
 285 310 l 1
 285 380 l 1
 470 380 l 1
 500 350 l 1
 500 45 l 1
 486 34 470 25 451 17 c 0
 419 2 372 -10 315 -10 c 0
EndSplineSet
EndChar

StartChar: gbreve
Encoding: 287 287 217
Width: 535
Flags: MW
HStem: -210 70<219.5 277.5 219.5 312.5> -10 70<233 265.5> 435 75<227 255.5 182.5 270.5> 480 20G<390 460 460 460> 560 60<247 287 247 317>
VStem: 50 100<180 317.5 180 337.5> 117 90<664.5 690 664.5 690> 327 90<664.5 690> 360 100<-10 20 20 20 80 375 375 375>
LayerCount: 2
Fore
SplineSet
267 560 m 0x00
 167 560 117 610 117 690 c 1
 207 690 l 1
 207 639 227 620 267 620 c 0
 307 620 327 639 327 690 c 1
 417 690 l 1
 417 610 367 560 267 560 c 0x00
245 -210 m 0
 194 -210 154 -198 125 -183 c 0
 108 -175 93 -166 80 -155 c 1
 115 -95 l 1
 125 -95 l 1
 134 -104 145 -111 157 -118 c 0
 177 -129 204 -140 235 -140 c 0
 320 -140 360 -101 360 -10 c 2
 360 20 l 1
 350 14 339 9 327 5 c 0
 307 -3 281 -10 250 -10 c 0
 135 -10 50 75 50 250 c 0
 50 425 135 510 230 510 c 0
 281 510 316 492 340 475 c 0
 354 464 366 453 375 440 c 1
 380 440 l 1xdc80
 390 500 l 1
 460 500 l 1
 460 -10 l 2xeb
 460 -130 380 -210 245 -210 c 0
265 60 m 0xeb
 292 60 316 65 333 70 c 0
 343 73 352 76 360 80 c 1
 360 375 l 1
 351 386 341 396 330 405 c 0
 311 420 286 435 255 435 c 0
 199 435 150 385 150 250 c 0
 150 110 201 60 265 60 c 0xeb
EndSplineSet
EndChar

StartChar: Gcommaaccent
Encoding: 290 290 218
Width: 565
Flags: MW
HStem: -159 110<289.5 302> -10 70<275 325 275 343.5> 310 70<285 400 285 470> 640 70<270 332.5>
VStem: 55 100<240 460 240 475.5> 252 110<-234 -93.5 -119.5 -93.5 -139.5 -88.5> 400 100<80 310 310 310>
LayerCount: 2
Fore
SplineSet
315 -10 m 0
 165 -10 55 99 55 350 c 0
 55 601 165 710 305 710 c 0
 361 710 403 697 434 682 c 0
 451 674 467 665 480 655 c 1
 445 595 l 1
 435 595 l 1
 424 603 413 610 401 617 c 0
 380 628 350 640 315 640 c 0
 225 640 155 570 155 350 c 0
 155 130 225 60 325 60 c 0
 365 61 400 80 400 80 c 1
 400 310 l 1
 285 310 l 1
 285 380 l 1
 470 380 l 1
 500 350 l 1
 500 45 l 1
 486 34 470 25 451 17 c 0
 419 2 372 -10 315 -10 c 0
282 -265 m 1
 252 -234 l 1
 261 -227 270 -220 277 -212 c 0
 289 -197 302 -179 302 -159 c 1
 277 -159 252 -135 252 -104 c 0
 252 -73 277 -49 302 -49 c 0
 337 -49 362 -74 362 -113 c 0
 362 -166 342 -204 322 -229 c 0
 310 -244 297 -256 282 -265 c 1
EndSplineSet
EndChar

StartChar: gcommaaccent
Encoding: 291 291 219
Width: 535
Flags: MW
HStem: -210 70<219.5 277.5 219.5 312.5> -10 70<233 265.5> 435 75<227 255.5 182.5 270.5> 480 20G<390 460 460 460> 570 110<260 272.5 260 272.5>
VStem: 50 100<180 317.5 180 337.5> 200 110<614.5 640.5 609.5 660.5> 360 100<-10 20 20 20 80 375 375 375>
CounterMasks: 1 07
LayerCount: 2
Fore
SplineSet
280 786 m 1x00
 310 755 l 1
 301 748 292 741 285 733 c 0
 273 718 260 700 260 680 c 1
 285 680 310 656 310 625 c 0
 310 594 285 570 260 570 c 0
 225 570 200 595 200 634 c 0
 200 687 220 725 240 750 c 0
 252 765 265 777 280 786 c 1x00
245 -210 m 0
 194 -210 154 -198 125 -183 c 0
 108 -175 93 -166 80 -155 c 1
 115 -95 l 1
 125 -95 l 1
 134 -104 145 -111 157 -118 c 0
 177 -129 204 -140 235 -140 c 0
 320 -140 360 -101 360 -10 c 2
 360 20 l 1
 350 14 339 9 327 5 c 0
 307 -3 281 -10 250 -10 c 0
 135 -10 50 75 50 250 c 0
 50 425 135 510 230 510 c 0
 281 510 316 492 340 475 c 0
 354 464 366 453 375 440 c 1
 380 440 l 1xdf
 390 500 l 1
 460 500 l 1xef
 460 -10 l 2
 460 -130 380 -210 245 -210 c 0
265 60 m 0
 292 60 316 65 333 70 c 0
 343 73 352 76 360 80 c 1
 360 375 l 1
 351 386 341 396 330 405 c 0
 311 420 286 435 255 435 c 0
 199 435 150 385 150 250 c 0
 150 110 201 60 265 60 c 0
EndSplineSet
EndChar

StartChar: hbar
Encoding: 295 295 220
Width: 560
Flags: MW
HStem: 0 21G<90 90 90 190 390 390 390 490> 375 75<298.5 323> 520 70<25 90 25 90 190 325> 520 180<25 190 25 190 120 190 120 325>
VStem: 90 100<0 315 400 520 590 670 670 670> 390 100<0 280 0 308>
LayerCount: 2
Fore
SplineSet
90 0 m 1x00
 90 520 l 1
 25 520 l 1xec
 25 590 l 1
 90 590 l 1
 90 670 l 1xdc
 120 700 l 1
 190 700 l 1xec
 190 590 l 1
 325 590 l 1xdc
 325 520 l 1
 190 520 l 1
 190 400 l 1
 199 409 210 418 223 425 c 0
 246 437 277 450 320 450 c 0
 420 450 490 380 490 280 c 2
 490 0 l 1
 390 0 l 1
 390 280 l 2
 390 336 351 375 295 375 c 0
 264 375 239 360 220 345 c 0
 209 336 199 326 190 315 c 1
 190 0 l 1
 90 0 l 1x00
EndSplineSet
EndChar

StartChar: Itilde
Encoding: 296 296 221
Width: 250
Flags: MW
HStem: 0 21G<90 90 90 190> 680 20G<90 190 190 190> 780 70<147 162 147 191.5> 825 70<77 92>
VStem: 90 100<0 700 0 700>
LayerCount: 2
Fore
SplineSet
217 890 m 1x00
 257 865 l 1
 242 820 216 780 167 780 c 0xd8
 117 780 107 825 77 825 c 0
 48 824 31 786 31 785 c 2
 22 785 l 1
 -18 810 l 1
 -2 855 21 895 72 895 c 0xe8
 122 895 132 850 162 850 c 0
 192 849 209 889 208 890 c 2
 217 890 l 1x00
90 0 m 1
 90 700 l 1
 190 700 l 1
 190 0 l 1
 90 0 l 1
EndSplineSet
EndChar

StartChar: itilde
Encoding: 297 297 222
Width: 240
Flags: MW
HStem: 0 21G<75 75 75 175> 480 20G<75 175 175 175> 580 70<142 157 142 186.5> 625 70<72 87>
VStem: 75 100<0 500 0 500>
LayerCount: 2
Fore
SplineSet
212 690 m 1x00
 252 665 l 1
 237 620 211 580 162 580 c 0xd8
 112 580 102 625 72 625 c 0
 43 624 26 586 26 585 c 2
 17 585 l 1
 -23 610 l 1
 -7 655 16 695 67 695 c 0xe8
 117 695 127 650 157 650 c 0
 187 649 204 689 203 690 c 2
 212 690 l 1x00
75 0 m 1
 75 500 l 1
 175 500 l 1
 175 0 l 1
 75 0 l 1
EndSplineSet
EndChar

StartChar: Imacron
Encoding: 298 298 223
Width: 260
Flags: MW
HStem: 0 21G<90 90 90 190> 680 20G<90 190 190 190> 780 70<-4 266 -4 266>
VStem: 90 100<0 700 0 700>
LayerCount: 2
Fore
SplineSet
-4 780 m 1
 -4 850 l 1
 266 850 l 1
 266 780 l 1
 -4 780 l 1
90 0 m 1
 90 700 l 1
 190 700 l 1
 190 0 l 1
 90 0 l 1
EndSplineSet
EndChar

StartChar: imacron
Encoding: 299 299 224
Width: 250
Flags: MW
HStem: 0 21G<75 75 75 175> 480 20G<75 175 175 175> 580 70<-10 260 -10 260>
VStem: 75 100<0 500 0 500>
LayerCount: 2
Fore
SplineSet
-10 580 m 1
 -10 650 l 1
 260 650 l 1
 260 580 l 1
 -10 580 l 1
75 0 m 1
 75 500 l 1
 175 500 l 1
 175 0 l 1
 75 0 l 1
EndSplineSet
EndChar

StartChar: Iogonek
Encoding: 302 302 225
Width: 270
Flags: MW
HStem: -155 55<160 167.5> 0 21G<90 115 90 90 185 185 185 190> 680 20G<90 190 190 190>
VStem: 90 100<0 700 0 700> 226 9<-130 -78>
LayerCount: 2
Fore
SplineSet
226 -78 m 1
 235 -78 l 1
 235 -130 l 1
 229 -135 222 -140 214 -143 c 0
 199 -150 180 -155 155 -155 c 0
 95 -155 65 -125 65 -80 c 0
 65 -57 77 -38 90 -23 c 0
 97 -15 106 -7 115 0 c 1
 90 0 l 1
 90 700 l 1
 190 700 l 1
 190 0 l 1
 185 0 l 1
 176 -5 167 -12 160 -19 c 0
 147 -31 135 -48 135 -65 c 0
 135 -85 150 -100 170 -100 c 0
 200 -100 226 -78 226 -78 c 1
EndSplineSet
EndChar

StartChar: iogonek
Encoding: 303 303 226
Width: 245
Flags: MW
HStem: -155 55<150 157.5> 0 21G<75 105 75 75 175 175> 480 20G<75 175 175 175> 580 120<107.5 142.5>
VStem: 65 120<622.5 657.5> 75 100<0 500 0 500> 216 9<-130 -78>
LayerCount: 2
Fore
SplineSet
125 580 m 0x00
 90 580 65 605 65 640 c 0
 65 675 90 700 125 700 c 0
 160 700 185 675 185 640 c 0
 185 605 160 580 125 580 c 0x00
216 -78 m 1
 225 -78 l 1
 225 -130 l 1
 219 -135 212 -140 204 -143 c 0
 189 -150 170 -155 145 -155 c 0
 85 -155 55 -125 55 -80 c 0
 55 -57 67 -38 80 -23 c 0
 87 -15 96 -7 105 0 c 1xf6
 75 0 l 1
 75 500 l 1
 175 500 l 1
 175 0 l 1
 166 -5 157 -12 150 -19 c 0
 137 -31 125 -48 125 -65 c 0xfa
 125 -85 140 -100 160 -100 c 0
 190 -100 216 -78 216 -78 c 1
EndSplineSet
EndChar

StartChar: Idotaccent
Encoding: 304 304 227
Width: 260
Flags: MW
HStem: 0 21G<90 90 90 190> 680 20G<90 190 190 190> 760 120<112.5 147.5>
VStem: 90 100<0 700 0 700>
LayerCount: 2
Fore
SplineSet
130 760 m 0
 95 760 70 785 70 820 c 0
 70 855 95 880 130 880 c 0
 165 880 190 855 190 820 c 0
 190 785 165 760 130 760 c 0
90 0 m 1
 90 700 l 1
 190 700 l 1
 190 0 l 1
 90 0 l 1
EndSplineSet
EndChar

StartChar: dotlessi
Encoding: 305 305 228
Width: 250
Flags: MW
HStem: 0 21G<75 75 75 175> 480 20G<75 175 175 175>
VStem: 75 100<0 500 0 500>
LayerCount: 2
Fore
SplineSet
75 0 m 1
 75 500 l 1
 175 500 l 1
 175 0 l 1
 75 0 l 1
EndSplineSet
EndChar

StartChar: ij
Encoding: 307 307 229
Width: 505
Flags: MW
HStem: -200 70<249.5 277.5 247.5 315> 0 21G<75 175 75 75> 430 70<175 330 175 175> 580 120<107.5 142.5 362.5 397.5>
VStem: 65 120<622.5 657.5> 320 120<622.5 657.5>
LayerCount: 2
Fore
SplineSet
125 580 m 0
 90 580 65 605 65 640 c 0
 65 675 90 700 125 700 c 0
 160 700 185 675 185 640 c 0
 185 605 160 580 125 580 c 0
380 580 m 0
 345 580 320 605 320 640 c 0
 320 675 345 700 380 700 c 0
 415 700 440 675 440 640 c 0
 440 605 415 580 380 580 c 0
265 -200 m 0
 234 -200 209 -193 192 -185 c 0
 181 -181 172 -176 165 -170 c 1
 190 -105 l 1
 200 -105 l 1
 205 -110 210 -115 216 -118 c 0
 227 -125 240 -130 255 -130 c 0
 300 -130 330 -100 330 -40 c 2
 330 430 l 1
 175 430 l 1
 175 0 l 1
 75 0 l 1
 75 500 l 1
 430 500 l 1
 430 -40 l 2xfc
 430 -136 365 -200 265 -200 c 0
EndSplineSet
EndChar

StartChar: Jcircumflex
Encoding: 308 308 230
Width: 410
Flags: MW
HStem: -10 70<115 163 113.5 203> 680 20G<240 340 340 340> 740 130<145 320 145 320 250 360 250 425>
VStem: 240 100<190 700>
LayerCount: 2
Fore
SplineSet
145 740 m 1
 250 870 l 1
 320 870 l 1
 425 740 l 1
 360 740 l 1
 285 805 l 1
 210 740 l 1
 145 740 l 1
135 -10 m 0
 95 -10 61 1 37 12 c 0
 23 19 11 26 0 35 c 1
 30 100 l 1
 40 100 l 1
 48 93 57 86 66 80 c 0
 82 69 102 60 125 60 c 0
 201 60 240 99 240 190 c 2
 240 700 l 1
 340 700 l 1
 340 190 l 2
 340 59 271 -10 135 -10 c 0
EndSplineSet
EndChar

StartChar: jcircumflex
Encoding: 309 309 231
Width: 268
Flags: MW
HStem: -200 70<14.5 42.5 12.5 80> 480 20G<95 195 195 195> 550 130<-2 173 -2 173 103 213 103 278>
VStem: 95 100<-40 500>
LayerCount: 2
Fore
SplineSet
-2 550 m 1
 103 680 l 1
 173 680 l 1
 278 550 l 1
 213 550 l 1
 138 615 l 1
 63 550 l 1
 -2 550 l 1
30 -200 m 0
 -1 -200 -26 -193 -43 -185 c 0
 -54 -181 -63 -176 -70 -170 c 1
 -45 -105 l 1
 -35 -105 l 1
 -30 -110 -25 -115 -19 -118 c 0
 -8 -125 5 -130 20 -130 c 0
 65 -130 95 -100 95 -40 c 2
 95 500 l 1
 195 500 l 1
 195 -40 l 2
 195 -136 130 -200 30 -200 c 0
EndSplineSet
EndChar

StartChar: Kcommaaccent
Encoding: 310 310 232
Width: 555
Flags: MW
HStem: -226 21G<267 267> -120 110<274.5 287> 0 21G<90 90 90 190 425 425 425 540> 680 20G<90 190 190 190 415 530 530 530>
VStem: 90 100<0 350 370 700> 237 110<-195 -54.5 -80.5 -54.5 -100.5 -49.5>
LayerCount: 2
Fore
SplineSet
90 0 m 1
 90 700 l 1
 190 700 l 1
 190 370 l 1
 415 700 l 1
 530 700 l 1
 300 360 l 1
 540 0 l 1
 425 0 l 1
 190 350 l 1
 190 0 l 1
 90 0 l 1
267 -226 m 1
 237 -195 l 1
 246 -188 255 -181 262 -173 c 0
 274 -158 287 -140 287 -120 c 1
 262 -120 237 -96 237 -65 c 0
 237 -34 262 -10 287 -10 c 0
 322 -10 347 -35 347 -74 c 0
 347 -127 327 -165 307 -190 c 0
 295 -205 282 -217 267 -226 c 1
EndSplineSet
EndChar

StartChar: kcommaaccent
Encoding: 311 311 233
Width: 480
Flags: MW
HStem: -226 21G<227 227> -120 110<234.5 247> 0 21G<75 75 75 175 355 355 355 470> 480 20G<345 460 460 460> 680 20G<105 175 175 175>
VStem: 75 100<0 250 270 670 670 670> 197 110<-195 -54.5 -80.5 -54.5 -100.5 -49.5>
LayerCount: 2
Fore
SplineSet
75 0 m 1
 75 670 l 1
 105 700 l 1
 175 700 l 1
 175 270 l 1
 345 500 l 1
 460 500 l 1
 280 260 l 1
 470 0 l 1
 355 0 l 1
 175 250 l 1
 175 0 l 1
 75 0 l 1
227 -226 m 1
 197 -195 l 1
 206 -188 215 -181 222 -173 c 0
 234 -158 247 -140 247 -120 c 1
 222 -120 197 -96 197 -65 c 0
 197 -34 222 -10 247 -10 c 0
 282 -10 307 -35 307 -74 c 0
 307 -127 287 -165 267 -190 c 0
 255 -205 242 -217 227 -226 c 1
EndSplineSet
EndChar

StartChar: kgreenlandic
Encoding: 312 312 234
Width: 480
Flags: MW
HStem: 0 21G<75 75 75 175 355 355 355 470> 480 20G<105 175 175 175 345 460 460 460>
VStem: 75 100<0 250 270 470 470 470>
LayerCount: 2
Fore
SplineSet
75 0 m 1
 75 470 l 1
 105 500 l 1
 175 500 l 1
 175 270 l 1
 345 500 l 1
 460 500 l 1
 280 260 l 1
 470 0 l 1
 355 0 l 1
 175 250 l 1
 175 0 l 1
 75 0 l 1
EndSplineSet
EndChar

StartChar: Lacute
Encoding: 313 313 235
Width: 490
Flags: MW
HStem: 0 70<190 480 190 480> 680 20G<90 190 190 190> 750 150<120 275 165 185>
VStem: 90 100<70 700 70 700 70 700>
LayerCount: 2
Fore
SplineSet
120 750 m 1
 165 900 l 1
 275 900 l 1
 185 750 l 1
 120 750 l 1
90 0 m 1
 90 700 l 1
 190 700 l 1
 190 70 l 1
 480 70 l 1
 480 0 l 1
 90 0 l 1
EndSplineSet
EndChar

StartChar: lacute
Encoding: 314 314 236
Width: 252
Flags: MW
HStem: 0 21G<75 75 75 175> 680 20G<105 175 175 175> 750 150<97 252 142 162>
VStem: 75 100<0 670 670 670>
LayerCount: 2
Fore
SplineSet
97 750 m 1
 142 900 l 1
 252 900 l 1
 162 750 l 1
 97 750 l 1
75 0 m 1
 75 670 l 1
 105 700 l 1
 175 700 l 1
 175 0 l 1
 75 0 l 1
EndSplineSet
EndChar

StartChar: Lcommaaccent
Encoding: 315 315 237
Width: 490
Flags: MW
HStem: -159 110<269.5 282> 0 70<190 480 190 480> 680 20G<90 190 190 190>
VStem: 90 100<70 700 70 700 70 700> 232 110<-234 -93.5 -119.5 -93.5 -139.5 -88.5>
LayerCount: 2
Fore
SplineSet
90 0 m 1
 90 700 l 1
 190 700 l 1
 190 70 l 1
 480 70 l 1
 480 0 l 1
 90 0 l 1
262 -265 m 1
 232 -234 l 1
 241 -227 250 -220 257 -212 c 0
 269 -197 282 -179 282 -159 c 1
 257 -159 232 -135 232 -104 c 0
 232 -73 257 -49 282 -49 c 0
 317 -49 342 -74 342 -113 c 0
 342 -166 322 -204 302 -229 c 0
 290 -244 277 -256 262 -265 c 1
EndSplineSet
EndChar

StartChar: lcommaaccent
Encoding: 316 316 238
Width: 250
Flags: MW
HStem: -159 110<107.5 120> 0 21G<75 75 75 175> 680 20G<105 175 175 175>
VStem: 75 100<0 670 670 670>
LayerCount: 2
Fore
SplineSet
75 0 m 1
 75 670 l 1
 105 700 l 1
 175 700 l 1
 175 0 l 1
 75 0 l 1
100 -265 m 1xf0
 70 -234 l 1
 79 -227 88 -220 95 -212 c 0
 107 -197 120 -179 120 -159 c 1
 95 -159 70 -135 70 -104 c 0
 70 -73 95 -49 120 -49 c 0
 155 -49 180 -74 180 -113 c 0
 180 -166 160 -204 140 -229 c 0
 128 -244 115 -256 100 -265 c 1xf0
EndSplineSet
EndChar

StartChar: Lcaron
Encoding: 317 317 239
Width: 490
Flags: MW
HStem: 0 70<190 480 190 480> 680 20G<90 190 190 190 302.5 332.5>
VStem: 90 100<70 700 70 700 70 700> 265 110<515 655.5 629.5 655.5 609.5 660.5>
LayerCount: 2
Fore
SplineSet
90 0 m 1
 90 700 l 1
 190 700 l 1
 190 70 l 1
 480 70 l 1
 480 0 l 1
 90 0 l 1
295 484 m 1
 265 515 l 1
 274 522 283 529 290 537 c 0
 302 552 315 570 315 590 c 1xf0
 290 590 265 614 265 645 c 0
 265 676 290 700 315 700 c 0
 350 700 375 675 375 636 c 0
 375 583 355 545 335 520 c 0
 323 505 310 493 295 484 c 1
EndSplineSet
EndChar

StartChar: lcaron
Encoding: 318 318 240
Width: 365
Flags: MW
HStem: 0 21G<75 75 75 175> 680 20G<105 175 175 175 282.5 312.5>
VStem: 75 100<0 670 670 670> 245 110<515 655.5 629.5 655.5 609.5 660.5>
LayerCount: 2
Fore
SplineSet
75 0 m 1
 75 670 l 1
 105 700 l 1
 175 700 l 1
 175 0 l 1
 75 0 l 1
275 484 m 1
 245 515 l 1
 254 522 263 529 270 537 c 0
 282 552 295 570 295 590 c 1xf0
 270 590 245 614 245 645 c 0
 245 676 270 700 295 700 c 0
 330 700 355 675 355 636 c 0
 355 583 335 545 315 520 c 0
 303 505 290 493 275 484 c 1
EndSplineSet
EndChar

StartChar: ldot
Encoding: 320 320 241
Width: 360
Flags: MW
HStem: 0 21G<75 75 75 175> 290 120<272.5 307.5> 680 20G<105 175 175 175>
VStem: 75 100<0 670 670 670> 230 120<332.5 367.5>
LayerCount: 2
Fore
SplineSet
75 0 m 1
 75 670 l 1
 105 700 l 1
 175 700 l 1
 175 0 l 1
 75 0 l 1
290 290 m 0
 255 290 230 315 230 350 c 0
 230 385 255 410 290 410 c 0
 325 410 350 385 350 350 c 0
 350 315 325 290 290 290 c 0
EndSplineSet
Ligature2: "Ligature Substitution lookup 32 subtable" l periodcentered
EndChar

StartChar: Lslash
Encoding: 321 321 242
Width: 472
Flags: MW
HStem: 0 70<182 462 182 462> 680 20G<82 182 182 182>
VStem: 82 100<70 270 270 270 455 700>
LayerCount: 2
Fore
SplineSet
82 0 m 1
 82 270 l 1
 15 220 l 1
 15 330 l 1
 82 380 l 1
 82 700 l 1
 182 700 l 1
 182 455 l 1
 295 540 l 1
 295 430 l 1
 182 345 l 1
 182 70 l 1
 462 70 l 1
 462 0 l 1
 82 0 l 1
EndSplineSet
EndChar

StartChar: lslash
Encoding: 322 322 243
Width: 290
Flags: MW
HStem: 0 21G<85 85 85 185> 680 20G<115 185 185 185>
VStem: 85 100<0 269 269 269 459 670 670 670>
LayerCount: 2
Fore
SplineSet
85 0 m 1
 85 269 l 1
 25 220 l 1
 25 330 l 1
 85 379 l 1
 85 670 l 1
 115 700 l 1
 185 700 l 1
 185 459 l 1
 265 530 l 1
 265 420 l 1
 185 349 l 1
 185 0 l 1
 85 0 l 1
EndSplineSet
EndChar

StartChar: Nacute
Encoding: 323 323 244
Width: 630
Flags: MW
HStem: 0 21G<90 90 90 190 430 430 430 540> 550 150<186 190 186 186> 680 20G<90 200 200 200 440 540 540 540> 740 150<267 422 312 332>
VStem: 90 100<0 465 0 550 0 700> 440 100<150 150 235 700 0 700>
LayerCount: 2
Fore
SplineSet
267 740 m 1x00
 312 890 l 1
 422 890 l 1
 332 740 l 1
 267 740 l 1x00
90 0 m 1
 90 700 l 1
 200 700 l 1
 410 235 l 2
 417 220 423 198 430 181 c 0
 433 170 437 160 440 150 c 1
 444 150 l 1
 442 181 l 2
 441 198 440 220 440 235 c 2xdc
 440 700 l 1
 540 700 l 1
 540 0 l 1
 430 0 l 1
 220 465 l 2
 213 480 206 500 200 519 c 0
 197 529 193 539 190 550 c 1
 186 550 l 1
 188 519 l 2
 189 500 190 480 190 465 c 2xbc
 190 0 l 1
 90 0 l 1
EndSplineSet
EndChar

StartChar: nacute
Encoding: 324 324 245
Width: 545
Flags: MW
HStem: 0 21G<75 75 75 175 375 375 375 475> 435 75<279.5 308> 550 150<235 390 280 300>
VStem: 75 100<0 375 0 500> 375 100<0 340 0 368>
LayerCount: 2
Fore
SplineSet
235 550 m 1
 280 700 l 1
 390 700 l 1
 300 550 l 1
 235 550 l 1
75 0 m 1
 75 500 l 1
 145 500 l 1
 155 440 l 1
 160 440 l 1xf8
 169 453 181 464 195 475 c 0
 219 492 254 510 305 510 c 0
 405 510 475 440 475 340 c 2
 475 0 l 1
 375 0 l 1
 375 340 l 2
 375 396 336 435 280 435 c 0
 249 435 224 420 205 405 c 0
 194 396 184 386 175 375 c 1
 175 0 l 1
 75 0 l 1
EndSplineSet
EndChar

StartChar: Ncommaaccent
Encoding: 325 325 246
Width: 630
Flags: MW
HStem: -226 21G<290 290> 0 21G<90 90 90 190 430 430 430 540> 0 150<430 444 440 444 440 540> 550 150<186 190 186 186> 680 20G<90 200 200 200 440 540 540 540>
VStem: 90 100<0 465 0 550 0 700> 260 110<-195 -54.5 -80.5 -54.5 -100.5 -49.5> 440 100<150 150 235 700 0 700>
CounterMasks: 1 07
LayerCount: 2
Fore
SplineSet
90 0 m 1x00
 90 700 l 1
 200 700 l 1
 410 235 l 2
 417 220 423 198 430 181 c 0
 433 170 437 160 440 150 c 1
 444 150 l 1
 442 181 l 2
 441 198 440 220 440 235 c 2xd5
 440 700 l 1
 540 700 l 1
 540 0 l 1
 430 0 l 1
 220 465 l 2
 213 480 206 500 200 519 c 0
 197 529 193 539 190 550 c 1
 186 550 l 1
 188 519 l 2
 189 500 190 480 190 465 c 2xcd
 190 0 l 1
 90 0 l 1x00
290 -226 m 1
 260 -195 l 1
 269 -188 278 -181 285 -173 c 0
 297 -158 310 -140 310 -120 c 1
 285 -120 260 -96 260 -65 c 0
 260 -34 285 -10 310 -10 c 0
 345 -10 370 -35 370 -74 c 0xaf
 370 -127 350 -165 330 -190 c 0
 318 -205 305 -217 290 -226 c 1
EndSplineSet
EndChar

StartChar: ncommaaccent
Encoding: 326 326 247
Width: 545
Flags: MW
HStem: -226 21G<252 252> 0 21G<75 75 75 175 375 375 375 475> 435 75<279.5 308>
VStem: 75 100<0 375 0 500> 375 100<0 340 0 368>
LayerCount: 2
Fore
SplineSet
75 0 m 1
 75 500 l 1
 145 500 l 1
 155 440 l 1
 160 440 l 1xf8
 169 453 181 464 195 475 c 0
 219 492 254 510 305 510 c 0
 405 510 475 440 475 340 c 2
 475 0 l 1
 375 0 l 1
 375 340 l 2
 375 396 336 435 280 435 c 0
 249 435 224 420 205 405 c 0
 194 396 184 386 175 375 c 1
 175 0 l 1
 75 0 l 1
252 -226 m 1
 222 -195 l 1
 231 -188 240 -181 247 -173 c 0
 259 -158 272 -140 272 -120 c 1
 247 -120 222 -96 222 -65 c 0
 222 -34 247 -10 272 -10 c 0
 307 -10 332 -35 332 -74 c 0
 332 -127 312 -165 292 -190 c 0
 280 -205 267 -217 252 -226 c 1
EndSplineSet
EndChar

StartChar: Ncaron
Encoding: 327 327 248
Width: 630
Flags: MW
HStem: 0 21G<90 90 90 190 430 430 430 540> 550 150<186 190 186 186> 680 20G<90 200 200 200 440 540 540 540> 750 130<175 280 175 350>
VStem: 90 100<0 465 0 550 0 700> 440 100<150 150 235 700 0 700>
LayerCount: 2
Fore
SplineSet
280 750 m 1x00
 175 880 l 1
 240 880 l 1
 315 815 l 1
 390 880 l 1
 455 880 l 1
 350 750 l 1
 280 750 l 1x00
90 0 m 1
 90 700 l 1
 200 700 l 1
 410 235 l 2
 417 220 423 198 430 181 c 0
 433 170 437 160 440 150 c 1
 444 150 l 1
 442 181 l 2
 441 198 440 220 440 235 c 2xdc
 440 700 l 1
 540 700 l 1
 540 0 l 1
 430 0 l 1
 220 465 l 2
 213 480 206 500 200 519 c 0
 197 529 193 539 190 550 c 1
 186 550 l 1
 188 519 l 2
 189 500 190 480 190 465 c 2xbc
 190 0 l 1
 90 0 l 1
EndSplineSet
EndChar

StartChar: ncaron
Encoding: 328 328 249
Width: 545
Flags: MW
HStem: 0 21G<75 75 75 175 375 375 375 475> 435 75<279.5 308> 560 130<132 237 132 307>
VStem: 75 100<0 375 0 500> 375 100<0 340 0 368>
LayerCount: 2
Fore
SplineSet
237 560 m 1
 132 690 l 1
 197 690 l 1
 272 625 l 1
 347 690 l 1
 412 690 l 1
 307 560 l 1
 237 560 l 1
75 0 m 1
 75 500 l 1
 145 500 l 1
 155 440 l 1
 160 440 l 1xf8
 169 453 181 464 195 475 c 0
 219 492 254 510 305 510 c 0
 405 510 475 440 475 340 c 2
 475 0 l 1
 375 0 l 1
 375 340 l 2
 375 396 336 435 280 435 c 0
 249 435 224 420 205 405 c 0
 194 396 184 386 175 375 c 1
 175 0 l 1
 75 0 l 1
EndSplineSet
EndChar

StartChar: Omacron
Encoding: 332 332 250
Width: 600
Flags: MW
HStem: -10 70<262.5 337.5 262.5 372.5> 640 70<262.5 337.5> 790 70<165 435 165 435>
VStem: 55 100<240 460 240 480> 165 270<790 860 790 860> 445 100<240 460>
CounterMasks: 1 1c
LayerCount: 2
Fore
SplineSet
165 790 m 1
 165 860 l 1
 435 860 l 1
 435 790 l 1
 165 790 l 1
300 -10 m 0
 155 -10 55 90 55 350 c 0
 55 610 155 710 300 710 c 0
 445 710 545 610 545 350 c 0
 545 90 445 -10 300 -10 c 0
300 60 m 0
 375 60 445 130 445 350 c 0
 445 570 375 640 300 640 c 0
 225 640 155 570 155 350 c 0
 155 130 225 60 300 60 c 0
EndSplineSet
EndChar

StartChar: omacron
Encoding: 333 333 251
Width: 530
Flags: MW
HStem: -10 70<233 297 233 330> 440 70<233 297> 590 70<130 400 130 400>
VStem: 130 270<590 660 590 660>
LayerCount: 2
Fore
SplineSet
130 590 m 1
 130 660 l 1
 400 660 l 1
 400 590 l 1
 130 590 l 1
265 -10 m 0
 134 -10 50 75 50 250 c 0
 50 425 134 510 265 510 c 0
 395 510 480 425 480 250 c 0
 480 75 395 -10 265 -10 c 0
265 60 m 0
 329 60 380 110 380 250 c 0
 380 390 329 440 265 440 c 0
 201 440 150 390 150 250 c 0
 150 110 201 60 265 60 c 0
EndSplineSet
EndChar

StartChar: Ohungarumlaut
Encoding: 336 336 252
Width: 600
Flags: MW
HStem: -10 70<262.5 337.5 262.5 372.5> 640 70<262.5 337.5> 750 150<202 342 247 257 337 342 382 392 337 337>
VStem: 55 100<240 460 240 480> 445 100<240 460>
LayerCount: 2
Fore
SplineSet
202 750 m 1
 247 900 l 1
 342 900 l 1
 257 750 l 1
 202 750 l 1
337 750 m 1
 382 900 l 1
 477 900 l 1
 392 750 l 1
 337 750 l 1
300 -10 m 0
 155 -10 55 90 55 350 c 0
 55 610 155 710 300 710 c 0
 445 710 545 610 545 350 c 0
 545 90 445 -10 300 -10 c 0
300 60 m 0
 375 60 445 130 445 350 c 0
 445 570 375 640 300 640 c 0
 225 640 155 570 155 350 c 0
 155 130 225 60 300 60 c 0
EndSplineSet
EndChar

StartChar: ohungarumlaut
Encoding: 337 337 253
Width: 530
Flags: MW
HStem: -10 70<233 297 233 330> 440 70<233 297> 550 150<157 297 202 212 292 297 337 347 292 292>
VStem: 50 100<180 320 180 337.5> 380 100<180 320>
LayerCount: 2
Fore
SplineSet
157 550 m 1
 202 700 l 1
 297 700 l 1
 212 550 l 1
 157 550 l 1
292 550 m 1
 337 700 l 1
 432 700 l 1
 347 550 l 1
 292 550 l 1
265 -10 m 0
 134 -10 50 75 50 250 c 0
 50 425 134 510 265 510 c 0
 395 510 480 425 480 250 c 0
 480 75 395 -10 265 -10 c 0
265 60 m 0
 329 60 380 110 380 250 c 0
 380 390 329 440 265 440 c 0
 201 440 150 390 150 250 c 0
 150 110 201 60 265 60 c 0
EndSplineSet
EndChar

StartChar: OE
Encoding: 338 338 254
Width: 815
Flags: MW
HStem: 0 70<250 395 345 395 495 785> 330 70<495 725 495 725> 630 70<285 785 345 395 495 785 495 495>
VStem: 55 100<244.5 455.5 244.5 475.5> 395 100<70 330 400 630>
LayerCount: 2
Fore
SplineSet
345 0 m 2
 155 0 55 99 55 350 c 0
 55 601 155 700 345 700 c 2
 785 700 l 1
 785 630 l 1
 495 630 l 1
 495 400 l 1
 725 400 l 1
 725 330 l 1
 495 330 l 1
 495 70 l 1
 785 70 l 1
 785 0 l 1
 345 0 l 2
345 70 m 2
 395 70 l 1
 395 630 l 1
 345 630 l 2
 225 630 155 561 155 350 c 0
 155 139 225 70 345 70 c 2
EndSplineSet
EndChar

StartChar: oe
Encoding: 339 339 255
Width: 820
Flags: MW
HStem: -10 70<229.5 289.5 229.5 298 559.5 610.5> 215 70<475 675 475 755 475 675> 440 70<229.5 289.5 547.5 602.5>
VStem: 50 100<180 320 180 337.5> 370 105<162.5 260 162.5 260> 675 100<235 339.5>
CounterMasks: 1 e0
LayerCount: 2
Fore
SplineSet
260 -10 m 0
 135 -10 50 75 50 250 c 0
 50 425 135 510 260 510 c 0
 336 510 385 475 420 430 c 1
 455 475 506 510 575 510 c 0
 690 510 775 425 775 250 c 2
 775 235 l 1
 755 215 l 1
 475 215 l 1
 475 110 524 60 595 60 c 0
 626 60 652 71 672 82 c 0
 684 89 695 96 705 105 c 1
 715 105 l 1
 750 45 l 1
 737 34 722 25 705 17 c 0
 676 2 636 -10 585 -10 c 0
 520 -10 460 15 421 70 c 1
 385 15 336 -10 260 -10 c 0
260 60 m 0
 319 60 367 107 370 239 c 2
 370 260 l 2
 367 392 319 440 260 440 c 0
 199 440 150 390 150 250 c 0
 150 110 199 60 260 60 c 0
475 285 m 1
 675 285 l 1
 675 394 630 440 575 440 c 0
 520 440 475 394 475 285 c 1
EndSplineSet
EndChar

StartChar: Racute
Encoding: 340 340 256
Width: 575
Flags: MW
HStem: 0 21G<90 90 90 190 425 425 425 540> 260 70<190 260 260 270 190 260> 630 70<190 260 190 190> 750 150<235 390 280 300>
VStem: 90 100<0 260 330 630> 410 100<430 530>
LayerCount: 2
Fore
SplineSet
235 750 m 1
 280 900 l 1
 390 900 l 1
 300 750 l 1
 235 750 l 1
90 0 m 1
 90 700 l 1
 260 700 l 2
 431 700 510 621 510 480 c 0
 510 373 464 305 373 275 c 1
 540 0 l 1
 425 0 l 1
 270 260 l 1
 190 260 l 1
 190 0 l 1
 90 0 l 1
190 330 m 1
 260 330 l 2
 360 330 410 380 410 480 c 0
 410 580 360 630 260 630 c 2
 190 630 l 1
 190 330 l 1
EndSplineSet
EndChar

StartChar: racute
Encoding: 341 341 257
Width: 365
Flags: MW
HStem: 0 21G<75 75 75 175> 430 80<276 282.5> 480 20G<75 145 145 145 365 365> 485 20G<346 346> 550 150<172 327 217 237>
VStem: 75 100<0 370 0 500>
LayerCount: 2
Fore
SplineSet
172 550 m 1x00
 217 700 l 1
 327 700 l 1
 237 550 l 1
 172 550 l 1x00
75 0 m 1
 75 500 l 1
 145 500 l 1
 155 440 l 1
 160 440 l 1xcc
 169 453 181 464 194 475 c 0
 217 492 252 510 300 510 c 0x9c
 317 510 334 508 346 505 c 2xac
 365 500 l 1
 350 420 l 1
 340 420 l 2xcc
 333 421 326 423 319 425 c 0
 306 428 290 430 275 430 c 0
 247 430 223 415 204 400 c 0
 193 391 184 381 175 370 c 1x9c
 175 0 l 1
 75 0 l 1
EndSplineSet
EndChar

StartChar: Rcommaaccent
Encoding: 342 342 258
Width: 575
Flags: MW
HStem: -226 21G<267 267> -120 110<274.5 287> 0 21G<90 90 90 190 425 425 425 540> 260 70<190 260 260 270 190 260> 630 70<190 260 190 190>
VStem: 90 100<0 260 330 630> 237 110<-195 -54.5 -80.5 -54.5 -100.5 -49.5> 410 100<430 530>
LayerCount: 2
Fore
SplineSet
90 0 m 1
 90 700 l 1
 260 700 l 2
 431 700 510 621 510 480 c 0
 510 373 464 305 373 275 c 1
 540 0 l 1
 425 0 l 1
 270 260 l 1
 190 260 l 1
 190 0 l 1
 90 0 l 1
190 330 m 1
 260 330 l 2
 360 330 410 380 410 480 c 0
 410 580 360 630 260 630 c 2
 190 630 l 1
 190 330 l 1
267 -226 m 1
 237 -195 l 1
 246 -188 255 -181 262 -173 c 0
 274 -158 287 -140 287 -120 c 1
 262 -120 237 -96 237 -65 c 0
 237 -34 262 -10 287 -10 c 0
 322 -10 347 -35 347 -74 c 0
 347 -127 327 -165 307 -190 c 0
 295 -205 282 -217 267 -226 c 1
EndSplineSet
EndChar

StartChar: rcommaaccent
Encoding: 343 343 259
Width: 365
Flags: MW
HStem: -159 110<107.5 120> 0 21G<75 75 75 175> 430 80<276 282.5> 480 20G<75 145 145 145 365 365> 485 20G<346 346>
VStem: 75 100<0 370 0 500>
LayerCount: 2
Fore
SplineSet
75 0 m 1x00
 75 500 l 1
 145 500 l 1
 155 440 l 1
 160 440 l 1xe4
 169 453 181 464 194 475 c 0
 217 492 252 510 300 510 c 0xcc
 317 510 334 508 346 505 c 2xd4
 365 500 l 1
 350 420 l 1
 340 420 l 2xe4
 333 421 326 423 319 425 c 0
 306 428 290 430 275 430 c 0
 247 430 223 415 204 400 c 0
 193 391 184 381 175 370 c 1xcc
 175 0 l 1
 75 0 l 1x00
100 -265 m 1xd4
 70 -234 l 1
 79 -227 88 -220 95 -212 c 0
 107 -197 120 -179 120 -159 c 1
 95 -159 70 -135 70 -104 c 0
 70 -73 95 -49 120 -49 c 0
 155 -49 180 -74 180 -113 c 0
 180 -166 160 -204 140 -229 c 0
 128 -244 115 -256 100 -265 c 1xd4
EndSplineSet
EndChar

StartChar: Rcaron
Encoding: 344 344 260
Width: 575
Flags: MW
HStem: 0 21G<90 90 90 190 425 425 425 540> 260 70<190 260 260 270 190 260> 630 70<190 260 190 190> 760 130<132 237 132 307>
VStem: 90 100<0 260 330 630> 410 100<430 530>
LayerCount: 2
Fore
SplineSet
237 760 m 1
 132 890 l 1
 197 890 l 1
 272 825 l 1
 347 890 l 1
 412 890 l 1
 307 760 l 1
 237 760 l 1
90 0 m 1
 90 700 l 1
 260 700 l 2
 431 700 510 621 510 480 c 0
 510 373 464 305 373 275 c 1
 540 0 l 1
 425 0 l 1
 270 260 l 1
 190 260 l 1
 190 0 l 1
 90 0 l 1
190 330 m 1
 260 330 l 2
 360 330 410 380 410 480 c 0
 410 580 360 630 260 630 c 2
 190 630 l 1
 190 330 l 1
EndSplineSet
EndChar

StartChar: rcaron
Encoding: 345 345 261
Width: 380
Flags: MW
HStem: 0 21G<75 75 75 175> 430 80<276 282.5> 480 20G<75 145 145 145 365 365> 485 20G<346 346> 560 130<90 195 90 265>
VStem: 75 100<0 370 0 500>
LayerCount: 2
Fore
SplineSet
195 560 m 1x00
 90 690 l 1
 155 690 l 1
 230 625 l 1
 305 690 l 1
 370 690 l 1
 265 560 l 1
 195 560 l 1x00
75 0 m 1
 75 500 l 1
 145 500 l 1
 155 440 l 1
 160 440 l 1xcc
 169 453 181 464 194 475 c 0
 217 492 252 510 300 510 c 0x9c
 317 510 334 508 346 505 c 2xac
 365 500 l 1
 350 420 l 1
 340 420 l 2xcc
 333 421 326 423 319 425 c 0
 306 428 290 430 275 430 c 0
 247 430 223 415 204 400 c 0
 193 391 184 381 175 370 c 1x9c
 175 0 l 1
 75 0 l 1
EndSplineSet
EndChar

StartChar: Sacute
Encoding: 346 346 262
Width: 505
Flags: MW
HStem: -10 70<207.5 275.5 207.5 314.5> 640 70<230.5 287.5> 750 150<215 370 260 280>
VStem: 45 100<450 559.5 450 575> 370 100<144.5 260>
LayerCount: 2
Fore
SplineSet
215 750 m 1
 260 900 l 1
 370 900 l 1
 280 750 l 1
 215 750 l 1
240 -10 m 0
 175 -10 124 2 89 17 c 0
 68 25 50 34 35 45 c 1
 70 105 l 1
 80 105 l 1
 92 96 106 89 121 82 c 0
 148 71 185 60 230 60 c 0
 321 60 370 109 370 180 c 0
 370 340 45 300 45 520 c 0
 45 630 124 710 255 710 c 0
 320 710 368 697 401 682 c 0
 420 674 436 665 450 655 c 1
 415 595 l 1
 405 595 l 1
 395 603 383 610 369 617 c 0
 345 628 310 640 265 640 c 0
 196 640 145 589 145 530 c 0
 145 370 470 410 470 190 c 0
 470 70 389 -10 240 -10 c 0
EndSplineSet
EndChar

StartChar: sacute
Encoding: 347 347 263
Width: 460
Flags: MW
HStem: -10 70<190 252.5 190 292.5> 440 70<209.5 262.5> 550 150<182 337 227 247>
VStem: 45 100<320.5 392.5 320.5 407.5> 325 100<110 185>
LayerCount: 2
Fore
SplineSet
182 550 m 1
 227 700 l 1
 337 700 l 1
 247 550 l 1
 182 550 l 1
220 -10 m 0
 160 -10 113 2 82 17 c 0
 64 25 48 34 35 45 c 1
 70 105 l 1
 80 105 l 1
 90 96 102 89 115 82 c 0
 138 71 170 60 210 60 c 0
 295 60 325 90 325 130 c 0
 325 240 45 195 45 365 c 0
 45 450 104 510 235 510 c 0
 291 510 333 497 364 482 c 0
 381 474 397 465 410 455 c 1
 375 395 l 1
 365 395 l 1
 354 403 343 410 331 417 c 0
 310 428 280 440 245 440 c 0
 174 440 145 410 145 375 c 0
 145 266 425 309 425 140 c 0
 425 50 365 -10 220 -10 c 0
EndSplineSet
EndChar

StartChar: Scedilla
Encoding: 350 350 264
Width: 505
Flags: MW
HStem: -190 45<242.5 257.5 232.5 285> -75 45<200 288> -10 70<260 260> -8 68<200 275.5> 640 70<230.5 287.5>
VStem: 45 100<450 559.5 450 575> 200 60<-30 -10 -30 -8 -30 -8> 285 65<-120 -100> 370 100<144.5 260>
LayerCount: 2
Fore
SplineSet
470 190 m 0x00
 470 75 396 -3 260 -10 c 1xee80
 260 -30 l 1xef80
 316 -30 350 -65 350 -110 c 0
 350 -155 315 -190 255 -190 c 0
 230 -190 211 -185 196 -180 c 0
 188 -177 181 -174 175 -170 c 1
 191 -130 l 1
 200 -130 l 2
 199 -130 220 -145 245 -145 c 0
 270 -145 285 -130 285 -110 c 0
 285 -90 271 -75 240 -75 c 2xee80
 200 -75 l 1x9e80
 200 -8 l 1
 154 -5 116 5 89 17 c 0
 68 25 50 34 35 45 c 1xae80
 70 105 l 1
 80 105 l 1
 92 96 106 89 121 82 c 0
 148 71 185 60 230 60 c 0
 321 60 370 109 370 180 c 0
 370 340 45 300 45 520 c 0
 45 630 124 710 255 710 c 0
 320 710 368 697 401 682 c 0
 420 674 436 665 450 655 c 1
 415 595 l 1
 405 595 l 1
 395 603 383 610 369 617 c 0
 345 628 310 640 265 640 c 0
 196 640 145 589 145 530 c 0
 145 370 470 410 470 190 c 0x00
EndSplineSet
Substitution2: "'locl' Localized Forms in Latin lookup 8 subtable" Scommaaccent
Substitution2: "'locl' Localized Forms in Latin lookup 7 subtable" Scommaaccent
Substitution2: "'aalt' Access All Alternates lookup 0 subtable" Scommaaccent
EndChar

StartChar: scedilla
Encoding: 351 351 265
Width: 460
Flags: MW
HStem: -190 45<229.5 244.5 219.5 272> -75 45<187 275> -9 69<187 252.5 247 247> 440 70<209.5 262.5>
VStem: 45 100<320.5 392.5 320.5 407.5> 187 60<-30 -9 -30 -9 -30 -9> 272 65<-120 -100> 325 100<110 185>
LayerCount: 2
Fore
SplineSet
425 140 m 0x00
 425 56 372 -2 247 -9 c 1xfd
 247 -30 l 1xfe
 303 -30 337 -65 337 -110 c 0
 337 -155 302 -190 242 -190 c 0
 217 -190 198 -185 183 -180 c 0
 175 -177 168 -174 162 -170 c 1
 178 -130 l 1
 187 -130 l 2
 186 -130 207 -145 232 -145 c 0
 257 -145 272 -130 272 -110 c 0
 272 -90 258 -75 227 -75 c 2xfd
 187 -75 l 1xbd
 187 -9 l 1
 143 -5 107 5 82 17 c 0
 64 25 48 34 35 45 c 1
 70 105 l 1
 80 105 l 1
 90 96 102 89 115 82 c 0
 138 71 170 60 210 60 c 0
 295 60 325 90 325 130 c 0
 325 240 45 195 45 365 c 0
 45 450 104 510 235 510 c 0
 291 510 333 497 364 482 c 0
 381 474 397 465 410 455 c 1
 375 395 l 1
 365 395 l 1
 354 403 343 410 331 417 c 0
 310 428 280 440 245 440 c 0
 174 440 145 410 145 375 c 0
 145 266 425 309 425 140 c 0x00
EndSplineSet
Substitution2: "'locl' Localized Forms in Latin lookup 8 subtable" scommaaccent
Substitution2: "'locl' Localized Forms in Latin lookup 7 subtable" scommaaccent
Substitution2: "'aalt' Access All Alternates lookup 0 subtable" scommaaccent
EndChar

StartChar: Scaron
Encoding: 352 352 266
Width: 505
Flags: MW
HStem: -10 70<207.5 275.5 207.5 314.5> 640 70<230.5 287.5> 760 130<112 217 112 287>
VStem: 45 100<450 559.5 450 575> 370 100<144.5 260>
LayerCount: 2
Fore
SplineSet
217 760 m 1
 112 890 l 1
 177 890 l 1
 252 825 l 1
 327 890 l 1
 392 890 l 1
 287 760 l 1
 217 760 l 1
240 -10 m 0
 175 -10 124 2 89 17 c 0
 68 25 50 34 35 45 c 1
 70 105 l 1
 80 105 l 1
 92 96 106 89 121 82 c 0
 148 71 185 60 230 60 c 0
 321 60 370 109 370 180 c 0
 370 340 45 300 45 520 c 0
 45 630 124 710 255 710 c 0
 320 710 368 697 401 682 c 0
 420 674 436 665 450 655 c 1
 415 595 l 1
 405 595 l 1
 395 603 383 610 369 617 c 0
 345 628 310 640 265 640 c 0
 196 640 145 589 145 530 c 0
 145 370 470 410 470 190 c 0
 470 70 389 -10 240 -10 c 0
EndSplineSet
EndChar

StartChar: scaron
Encoding: 353 353 267
Width: 460
Flags: MW
HStem: -10 70<190 252.5 190 292.5> 440 70<209.5 262.5> 560 130<90 195 90 265>
VStem: 45 100<320.5 392.5 320.5 407.5> 325 100<110 185>
LayerCount: 2
Fore
SplineSet
195 560 m 1
 90 690 l 1
 155 690 l 1
 230 625 l 1
 305 690 l 1
 370 690 l 1
 265 560 l 1
 195 560 l 1
220 -10 m 0
 160 -10 113 2 82 17 c 0
 64 25 48 34 35 45 c 1
 70 105 l 1
 80 105 l 1
 90 96 102 89 115 82 c 0
 138 71 170 60 210 60 c 0
 295 60 325 90 325 130 c 0
 325 240 45 195 45 365 c 0
 45 450 104 510 235 510 c 0
 291 510 333 497 364 482 c 0
 381 474 397 465 410 455 c 1
 375 395 l 1
 365 395 l 1
 354 403 343 410 331 417 c 0
 310 428 280 440 245 440 c 0
 174 440 145 410 145 375 c 0
 145 266 425 309 425 140 c 0
 425 50 365 -10 220 -10 c 0
EndSplineSet
EndChar

StartChar: Tcaron
Encoding: 356 356 270
Width: 480
Flags: MW
HStem: 0 21G<190 190 190 290> 630 70<10 190 10 470 290 290 290 470> 760 130<100 205 100 275>
VStem: 190 100<0 630 0 630>
LayerCount: 2
Fore
SplineSet
205 760 m 1
 100 890 l 1
 165 890 l 1
 240 825 l 1
 315 890 l 1
 380 890 l 1
 275 760 l 1
 205 760 l 1
190 0 m 1
 190 630 l 1
 10 630 l 1
 10 700 l 1
 470 700 l 1
 470 630 l 1
 290 630 l 1
 290 0 l 1
 190 0 l 1
EndSplineSet
EndChar

StartChar: tcaron
Encoding: 357 357 271
Width: 480
Flags: MW
HStem: -10 70<247.5 280> 430 70<195 320 195 320> 510 110<397.5 410>
VStem: 95 100<150 430> 360 110<435 575.5 549.5 575.5 529.5 580.5>
LayerCount: 2
Fore
SplineSet
260 -10 m 0
 160 -10 95 54 95 150 c 2
 95 430 l 1
 20 430 l 1
 20 490 l 1
 150 620 l 1
 195 620 l 1
 195 500 l 1
 320 500 l 1
 320 430 l 1
 195 430 l 1
 195 150 l 2
 195 90 225 60 270 60 c 0
 293 60 313 69 329 80 c 0
 338 86 347 93 355 100 c 1
 365 100 l 1
 400 40 l 1
 388 31 375 22 360 15 c 0
 335 2 300 -10 260 -10 c 0
390 404 m 1
 360 435 l 1
 369 442 378 449 385 457 c 0
 397 472 410 490 410 510 c 1
 385 510 360 534 360 565 c 0
 360 596 385 620 410 620 c 0
 445 620 470 595 470 556 c 0
 470 503 450 465 430 440 c 0
 418 425 405 413 390 404 c 1
EndSplineSet
EndChar

StartChar: Umacron
Encoding: 362 362 272
Width: 620
Flags: MW
HStem: -10 70<272 348 272 382.5> 680 20G<85 185 185 185 435 535 535 535> 780 70<175 445 175 445>
VStem: 175 270<780 850 780 850>
LayerCount: 2
Fore
SplineSet
175 780 m 1
 175 850 l 1
 445 850 l 1
 445 780 l 1
 175 780 l 1
310 -10 m 0
 165 -10 85 69 85 220 c 2
 85 700 l 1
 185 700 l 1
 185 220 l 2
 185 109 234 60 310 60 c 0
 386 60 435 109 435 220 c 2
 435 700 l 1
 535 700 l 1
 535 220 l 2
 535 69 455 -10 310 -10 c 0
EndSplineSet
EndChar

StartChar: umacron
Encoding: 363 363 273
Width: 550
Flags: MW
HStem: -10 75<242 270.5> 0 21G<405 475 405 405> 480 20G<75 175 175 175 375 475 475 475> 581 70<140 410 140 410>
VStem: 75 100<160 500> 375 100<125 500 0 500>
LayerCount: 2
Fore
SplineSet
140 581 m 1x00
 140 651 l 1
 410 651 l 1
 410 581 l 1
 140 581 l 1x00
245 -10 m 0
 145 -10 75 60 75 160 c 2
 75 500 l 1
 175 500 l 1
 175 160 l 2
 175 104 214 65 270 65 c 0
 301 65 326 80 345 95 c 0
 356 104 366 114 375 125 c 1x7c
 375 500 l 1
 475 500 l 1
 475 0 l 1
 405 0 l 1
 395 60 l 1
 390 60 l 1xbc
 381 47 369 35 355 25 c 0
 331 6 296 -10 245 -10 c 0
EndSplineSet
EndChar

StartChar: Uring
Encoding: 366 366 274
Width: 620
Flags: MW
HStem: -10 70<272 348 272 382.5> 680 20G<85 185 185 185 435 535 535 535> 730 50<300 320 300 340> 870 50<300 320>
VStem: 85 100<220 700> 210 60<809.5 840.5 809.5 853> 350 60<809.5 840.5> 435 100<220 700>
LayerCount: 2
Fore
SplineSet
310 730 m 0
 250 730 210 769 210 825 c 0
 210 881 250 920 310 920 c 0
 370 920 410 881 410 825 c 0
 410 769 370 730 310 730 c 0
310 780 m 0
 330 780 350 794 350 825 c 0
 350 856 330 870 310 870 c 0
 290 870 270 856 270 825 c 0
 270 794 290 780 310 780 c 0
310 -10 m 0
 165 -10 85 69 85 220 c 2
 85 700 l 1
 185 700 l 1
 185 220 l 2
 185 109 234 60 310 60 c 0
 386 60 435 109 435 220 c 2
 435 700 l 1
 535 700 l 1
 535 220 l 2
 535 69 455 -10 310 -10 c 0
EndSplineSet
EndChar

StartChar: uring
Encoding: 367 367 275
Width: 550
Flags: MW
HStem: -10 75<242 270.5> 0 21G<405 475 405 405> 480 20G<75 175 175 175 375 475 475 475> 550 50<265 285 265 305> 690 50<265 285>
VStem: 75 100<160 500> 175 60<629.5 660.5 629.5 673> 315 60<629.5 660.5> 375 100<125 500 0 500>
LayerCount: 2
Fore
SplineSet
275 550 m 0x00
 215 550 175 589 175 645 c 0
 175 701 215 740 275 740 c 0
 335 740 375 701 375 645 c 0
 375 589 335 550 275 550 c 0x00
275 600 m 0
 295 600 315 614 315 645 c 0
 315 676 295 690 275 690 c 0
 255 690 235 676 235 645 c 0
 235 614 255 600 275 600 c 0
245 -10 m 0xbb
 145 -10 75 60 75 160 c 2
 75 500 l 1
 175 500 l 1
 175 160 l 2
 175 104 214 65 270 65 c 0
 301 65 326 80 345 95 c 0
 356 104 366 114 375 125 c 1x7c80
 375 500 l 1
 475 500 l 1
 475 0 l 1
 405 0 l 1
 395 60 l 1
 390 60 l 1xbc80
 381 47 369 35 355 25 c 0
 331 6 296 -10 245 -10 c 0xbb
EndSplineSet
EndChar

StartChar: Uhungarumlaut
Encoding: 368 368 276
Width: 620
Flags: MW
HStem: -10 70<272 348 272 382.5> 680 20G<85 185 185 185 435 535 535 535> 740 150<212 352 257 267 347 352 392 402 347 347>
VStem: 85 100<220 700> 435 100<220 700>
LayerCount: 2
Fore
SplineSet
212 740 m 1
 257 890 l 1
 352 890 l 1
 267 740 l 1
 212 740 l 1
347 740 m 1
 392 890 l 1
 487 890 l 1
 402 740 l 1
 347 740 l 1
310 -10 m 0
 165 -10 85 69 85 220 c 2
 85 700 l 1
 185 700 l 1
 185 220 l 2
 185 109 234 60 310 60 c 0
 386 60 435 109 435 220 c 2
 435 700 l 1
 535 700 l 1
 535 220 l 2
 535 69 455 -10 310 -10 c 0
EndSplineSet
EndChar

StartChar: uhungarumlaut
Encoding: 369 369 277
Width: 550
Flags: MW
HStem: -10 75<242 270.5> 0 21G<405 475 405 405> 480 20G<75 175 175 175 375 475 475 475> 541 150<177 317 222 232 312 317 357 367 312 312>
VStem: 75 100<160 500> 375 100<125 500 0 500>
LayerCount: 2
Fore
SplineSet
177 541 m 1x00
 222 691 l 1
 317 691 l 1
 232 541 l 1
 177 541 l 1x00
312 541 m 1
 357 691 l 1
 452 691 l 1
 367 541 l 1
 312 541 l 1
245 -10 m 0
 145 -10 75 60 75 160 c 2
 75 500 l 1
 175 500 l 1
 175 160 l 2
 175 104 214 65 270 65 c 0
 301 65 326 80 345 95 c 0
 356 104 366 114 375 125 c 1x7c
 375 500 l 1
 475 500 l 1
 475 0 l 1
 405 0 l 1
 395 60 l 1
 390 60 l 1xbc
 381 47 369 35 355 25 c 0
 331 6 296 -10 245 -10 c 0
EndSplineSet
EndChar

StartChar: Uogonek
Encoding: 370 370 278
Width: 620
Flags: MW
HStem: -155 55<330 337.5> -8 21G -8 68 680 20G<85 185 185 185 435 535 535 535>
VStem: 85 100<220 700> 235 70<-75 -68.5> 396 9<-130 -78> 435 100<220 700>
LayerCount: 2
Fore
SplineSet
435 700 m 1x00
 535 700 l 1
 535 220 l 2xdf
 535 80 467 2 342 -9 c 0
 338 -12 334 -15 330 -19 c 0
 317 -31 305 -48 305 -65 c 0
 305 -85 320 -100 340 -100 c 0
 370 -100 396 -78 396 -78 c 1
 405 -78 l 1
 405 -130 l 1
 399 -135 392 -140 384 -143 c 0xbd
 369 -150 350 -155 325 -155 c 0
 265 -155 235 -125 235 -80 c 0
 235 -57 247 -38 260 -23 c 0
 264 -18 269 -13 275 -8 c 1
 152 4 85 82 85 220 c 2
 85 700 l 1
 185 700 l 1
 185 220 l 2
 185 109 234 60 310 60 c 0xd9
 386 60 435 109 435 220 c 2
 435 700 l 1x00
EndSplineSet
EndChar

StartChar: uogonek
Encoding: 371 371 279
Width: 545
Flags: MW
HStem: -155 55<455 462.5> -10 75<242 270.5> 480 20G<75 175 175 175 375 475 475 475>
VStem: 75 100<160 500> 360 70<-75 -68.5> 375 100<125 500 0 500> 521 9<-130 -78>
LayerCount: 2
Fore
SplineSet
521 -78 m 1x00
 530 -78 l 1
 530 -130 l 1
 524 -135 517 -140 509 -143 c 0
 494 -150 475 -155 450 -155 c 0
 390 -155 360 -125 360 -80 c 0
 360 -57 372 -38 385 -23 c 0
 392 -15 401 -7 410 0 c 1
 405 0 l 1
 395 60 l 1
 390 60 l 1xfa
 381 47 369 35 355 25 c 0xf6
 331 6 296 -10 245 -10 c 0
 145 -10 75 60 75 160 c 2
 75 500 l 1
 175 500 l 1
 175 160 l 2
 175 104 214 65 270 65 c 0
 301 65 326 80 345 95 c 0
 356 104 366 114 375 125 c 1
 375 500 l 1
 475 500 l 1
 475 0 l 1
 480 0 l 1xfa
 471 -5 462 -12 455 -19 c 0
 442 -31 430 -48 430 -65 c 0xf6
 430 -85 445 -100 465 -100 c 0
 495 -100 521 -78 521 -78 c 1x00
EndSplineSet
EndChar

StartChar: Ydieresis
Encoding: 376 376 280
Width: 530
Flags: MW
HStem: 0 21G<215 215 215 315> 680 20G<0 105 105 105 440 530 530 530> 765 110<159 191 334 366>
VStem: 120 110<804 836> 295 110<804 836>
LayerCount: 2
Fore
SplineSet
175 765 m 0
 143 765 120 788 120 820 c 0
 120 852 143 875 175 875 c 0
 207 875 230 852 230 820 c 0
 230 788 207 765 175 765 c 0
350 765 m 0
 318 765 295 788 295 820 c 0
 295 852 318 875 350 875 c 0
 382 875 405 852 405 820 c 0
 405 788 382 765 350 765 c 0
215 0 m 1
 215 230 l 1
 0 700 l 1
 105 700 l 1
 250 365 l 2
 255 352 260 338 263 326 c 0
 265 319 267 312 268 305 c 1
 272 305 l 1
 273 312 275 319 277 326 c 0
 280 338 283 352 290 365 c 2
 440 700 l 1
 530 700 l 1
 315 230 l 1
 315 0 l 1
 215 0 l 1
EndSplineSet
EndChar

StartChar: Zacute
Encoding: 377 377 281
Width: 485
Flags: MW
HStem: 0 70<145 460 145 460> 630 70<25 335 25 455> 750 150<195 350 240 260>
VStem: 25 435<0 70 0 75 0 75>
LayerCount: 2
Fore
SplineSet
195 750 m 1
 240 900 l 1
 350 900 l 1
 260 750 l 1
 195 750 l 1
25 0 m 1
 25 75 l 1
 335 630 l 1
 25 630 l 1
 25 700 l 1
 455 700 l 1
 455 625 l 1
 145 70 l 1
 460 70 l 1
 460 0 l 1
 25 0 l 1
EndSplineSet
EndChar

StartChar: zacute
Encoding: 378 378 282
Width: 440
Flags: MW
HStem: 0 70<145 405 145 405> 430 70<35 290 35 400> 550 150<172 327 217 237>
VStem: 35 370<0 70 0 75 0 75 0 500>
LayerCount: 2
Fore
SplineSet
172 550 m 1
 217 700 l 1
 327 700 l 1
 237 550 l 1
 172 550 l 1
35 0 m 1
 35 75 l 1
 290 430 l 1
 35 430 l 1
 35 500 l 1
 400 500 l 1
 400 425 l 1
 145 70 l 1
 405 70 l 1
 405 0 l 1
 35 0 l 1
EndSplineSet
EndChar

StartChar: Zdotaccent
Encoding: 379 379 283
Width: 485
Flags: MW
HStem: 0 70<145 460 145 460> 630 70<25 335 25 455> 760 120<224.5 259.5>
VStem: 182 120<802.5 837.5>
LayerCount: 2
Fore
SplineSet
242 760 m 0
 207 760 182 785 182 820 c 0
 182 855 207 880 242 880 c 0
 277 880 302 855 302 820 c 0
 302 785 277 760 242 760 c 0
25 0 m 1
 25 75 l 1
 335 630 l 1
 25 630 l 1
 25 700 l 1
 455 700 l 1
 455 625 l 1
 145 70 l 1
 460 70 l 1
 460 0 l 1
 25 0 l 1
EndSplineSet
EndChar

StartChar: zdotaccent
Encoding: 380 380 284
Width: 440
Flags: MW
HStem: 0 70<145 405 145 405> 430 70<35 290 35 400> 560 120<202.5 237.5>
VStem: 160 120<602.5 637.5>
LayerCount: 2
Fore
SplineSet
220 560 m 0
 185 560 160 585 160 620 c 0
 160 655 185 680 220 680 c 0
 255 680 280 655 280 620 c 0
 280 585 255 560 220 560 c 0
35 0 m 1
 35 75 l 1
 290 430 l 1
 35 430 l 1
 35 500 l 1
 400 500 l 1
 400 425 l 1
 145 70 l 1
 405 70 l 1
 405 0 l 1
 35 0 l 1
EndSplineSet
EndChar

StartChar: Zcaron
Encoding: 381 381 285
Width: 485
Flags: MW
HStem: 0 70<145 460 145 460> 630 70<25 335 25 455> 760 130<102 207 102 277>
VStem: 25 435<0 70 0 75 0 75>
LayerCount: 2
Fore
SplineSet
207 760 m 1
 102 890 l 1
 167 890 l 1
 242 825 l 1
 317 890 l 1
 382 890 l 1
 277 760 l 1
 207 760 l 1
25 0 m 1
 25 75 l 1
 335 630 l 1
 25 630 l 1
 25 700 l 1
 455 700 l 1
 455 625 l 1
 145 70 l 1
 460 70 l 1
 460 0 l 1
 25 0 l 1
EndSplineSet
EndChar

StartChar: zcaron
Encoding: 382 382 286
Width: 440
Flags: MW
HStem: 0 70<145 405 145 405> 430 70<35 290 35 400> 560 130<80 185 80 255>
VStem: 35 370<0 70 0 75 0 75 0 500>
LayerCount: 2
Fore
SplineSet
185 560 m 1
 80 690 l 1
 145 690 l 1
 220 625 l 1
 295 690 l 1
 360 690 l 1
 255 560 l 1
 185 560 l 1
35 0 m 1
 35 75 l 1
 290 430 l 1
 35 430 l 1
 35 500 l 1
 400 500 l 1
 400 425 l 1
 145 70 l 1
 405 70 l 1
 405 0 l 1
 35 0 l 1
EndSplineSet
EndChar

StartChar: florin
Encoding: 402 402 287
Width: 391
Flags: MW
HStem: -200 70<-5.5 25.5 -5.5 58> 430 70<68 127 62 133 233 362> 640 70<297.5 331.5>
VStem: 135 100
LayerCount: 2
Fore
SplineSet
6 -200 m 0
 -25 -200 -47 -193 -64 -185 c 0
 -74 -181 -83 -176 -90 -170 c 1
 -59 -105 l 1
 -49 -105 l 1
 -44 -110 -39 -115 -34 -118 c 0
 -25 -125 -13 -130 2 -130 c 0
 49 -130 79 -100 84 -40 c 2
 127 430 l 1
 62 430 l 1
 68 500 l 1
 133 500 l 1
 137 550 l 2
 145 646 208 710 316 710 c 0
 359 710 394 697 418 682 c 0
 432 674 445 665 456 655 c 1
 415 595 l 1
 405 595 l 1
 397 603 388 610 379 617 c 0
 363 628 343 640 320 640 c 0
 275 640 241 610 237 550 c 2
 233 500 l 1
 368 500 l 1
 362 430 l 1
 227 430 l 1
 184 -40 l 2
 175 -136 110 -200 6 -200 c 0
EndSplineSet
EndChar

StartChar: Scommaaccent
Encoding: 536 536 288
Width: 505
Flags: MW
HStem: -164 110<242.5 255> -10 70<207.5 275.5 207.5 314.5> 640 70<230.5 287.5>
VStem: 45 100<450 559.5 450 575> 205 110<-239 -98.5 -124.5 -98.5 -144.5 -93.5> 370 100<144.5 260>
LayerCount: 2
Fore
SplineSet
240 -10 m 0
 175 -10 124 2 89 17 c 0
 68 25 50 34 35 45 c 1
 70 105 l 1
 80 105 l 1
 92 96 106 89 121 82 c 0
 148 71 185 60 230 60 c 0
 321 60 370 109 370 180 c 0
 370 340 45 300 45 520 c 0
 45 630 124 710 255 710 c 0
 320 710 368 697 401 682 c 0
 420 674 436 665 450 655 c 1
 415 595 l 1
 405 595 l 1
 395 603 383 610 369 617 c 0
 345 628 310 640 265 640 c 0
 196 640 145 589 145 530 c 0
 145 370 470 410 470 190 c 0
 470 70 389 -10 240 -10 c 0
235 -270 m 1
 205 -239 l 1
 214 -232 223 -225 230 -217 c 0
 242 -202 255 -184 255 -164 c 1
 230 -164 205 -140 205 -109 c 0
 205 -78 230 -54 255 -54 c 0
 290 -54 315 -79 315 -118 c 0
 315 -171 295 -209 275 -234 c 0
 263 -249 250 -261 235 -270 c 1
EndSplineSet
EndChar

StartChar: scommaaccent
Encoding: 537 537 289
Width: 460
Flags: MW
HStem: -164 110<222.5 235> -10 70<190 252.5 190 292.5> 440 70<209.5 262.5>
VStem: 45 100<320.5 392.5 320.5 407.5> 185 110<-239 -98.5 -124.5 -98.5 -144.5 -93.5> 325 100<110 185>
LayerCount: 2
Fore
SplineSet
220 -10 m 0
 160 -10 113 2 82 17 c 0
 64 25 48 34 35 45 c 1
 70 105 l 1
 80 105 l 1
 90 96 102 89 115 82 c 0
 138 71 170 60 210 60 c 0
 295 60 325 90 325 130 c 0
 325 240 45 195 45 365 c 0
 45 450 104 510 235 510 c 0
 291 510 333 497 364 482 c 0
 381 474 397 465 410 455 c 1
 375 395 l 1
 365 395 l 1
 354 403 343 410 331 417 c 0
 310 428 280 440 245 440 c 0
 174 440 145 410 145 375 c 0
 145 266 425 309 425 140 c 0
 425 50 365 -10 220 -10 c 0
215 -270 m 1
 185 -239 l 1
 194 -232 203 -225 210 -217 c 0
 222 -202 235 -184 235 -164 c 1
 210 -164 185 -140 185 -109 c 0
 185 -78 210 -54 235 -54 c 0
 270 -54 295 -79 295 -118 c 0
 295 -171 275 -209 255 -234 c 0
 243 -249 230 -261 215 -270 c 1
EndSplineSet
EndChar

StartChar: uni021A
Encoding: 538 538 290
Width: 480
Flags: MW
HStem: -169 110<222.5 235> 0 21G<190 190 190 290> 630 70<10 190 10 470 290 290 290 470>
VStem: 190 100<0 630 0 630>
LayerCount: 2
Fore
SplineSet
190 0 m 1
 190 630 l 1
 10 630 l 1
 10 700 l 1
 470 700 l 1
 470 630 l 1
 290 630 l 1
 290 0 l 1
 190 0 l 1
215 -275 m 1xf0
 185 -244 l 1
 194 -237 203 -230 210 -222 c 0
 222 -207 235 -189 235 -169 c 1
 210 -169 185 -145 185 -114 c 0
 185 -83 210 -59 235 -59 c 0
 270 -59 295 -84 295 -123 c 0
 295 -176 275 -214 255 -239 c 0
 243 -254 230 -266 215 -275 c 1xf0
EndSplineSet
EndChar

StartChar: uni021B
Encoding: 539 539 291
Width: 400
Flags: MW
HStem: -10 70<247.5 280> 430 70<195 320 195 320>
VStem: 95 100<150 430>
LayerCount: 2
Fore
SplineSet
260 -10 m 0
 160 -10 95 54 95 150 c 2
 95 430 l 1
 20 430 l 1
 20 490 l 1
 150 620 l 1
 195 620 l 1
 195 500 l 1
 320 500 l 1
 320 430 l 1
 195 430 l 1
 195 150 l 2
 195 90 225 60 270 60 c 0
 293 60 313 69 329 80 c 0
 338 86 347 93 355 100 c 1
 365 100 l 1
 400 40 l 1
 388 31 375 22 360 15 c 0
 335 2 300 -10 260 -10 c 0
220 -275 m 1xe0
 190 -244 l 1
 199 -237 208 -230 215 -222 c 0
 227 -207 240 -189 240 -169 c 1
 215 -169 190 -145 190 -114 c 0
 190 -83 215 -59 240 -59 c 0
 275 -59 300 -84 300 -123 c 0
 300 -176 280 -214 260 -239 c 0
 248 -254 235 -266 220 -275 c 1xe0
EndSplineSet
EndChar

StartChar: uni02BC
Encoding: 700 700 292
Width: 90
Flags: MW
HStem: 534 216<10 47.5>
VStem: -20 110<565 705.5 679.5 705.5 659.5 710.5>
LayerCount: 2
Fore
SplineSet
10 534 m 1
 -20 565 l 1
 -11 572 -2 579 5 587 c 0
 17 602 30 620 30 640 c 1
 5 640 -20 664 -20 695 c 0
 -20 726 5 750 30 750 c 0
 65 750 90 725 90 686 c 0xc0
 90 633 70 595 50 570 c 0
 38 555 25 543 10 534 c 1
EndSplineSet
EndChar

StartChar: circumflex
Encoding: 710 710 293
Width: 320
Flags: MW
HStem: 560 130<20 195 20 195 125 235 125 300>
VStem: 20 280<560 560>
LayerCount: 2
Fore
SplineSet
20 560 m 1
 125 690 l 1
 195 690 l 1
 300 560 l 1
 235 560 l 1
 160 625 l 1
 85 560 l 1
 20 560 l 1
EndSplineSet
EndChar

StartChar: caron
Encoding: 711 711 294
Width: 320
Flags: MW
HStem: 560 130<20 125 20 195>
VStem: 20 280<690 690>
LayerCount: 2
Fore
SplineSet
125 560 m 1
 20 690 l 1
 85 690 l 1
 160 625 l 1
 235 690 l 1
 300 690 l 1
 195 560 l 1
 125 560 l 1
EndSplineSet
EndChar

StartChar: breve
Encoding: 728 728 295
Width: 320
Flags: MW
HStem: 560 60<140 180 140 210>
VStem: 10 90<664.5 690 664.5 690> 220 90<664.5 690>
LayerCount: 2
Fore
SplineSet
160 560 m 0
 60 560 10 610 10 690 c 1
 100 690 l 1
 100 639 120 620 160 620 c 0
 200 620 220 639 220 690 c 1
 310 690 l 1
 310 610 260 560 160 560 c 0
EndSplineSet
EndChar

StartChar: dotaccent
Encoding: 729 729 296
Width: 140
Flags: MW
HStem: 560 120<52.5 87.5>
VStem: 10 120<602.5 637.5>
LayerCount: 2
Fore
SplineSet
70 560 m 0
 35 560 10 585 10 620 c 0
 10 655 35 680 70 680 c 0
 105 680 130 655 130 620 c 0
 130 585 105 560 70 560 c 0
EndSplineSet
EndChar

StartChar: ring
Encoding: 730 730 297
Width: 220
Flags: MW
HStem: 540 50<100 120 100 140> 680 50<100 120>
VStem: 10 60<619.5 650.5 619.5 663> 150 60<619.5 650.5>
LayerCount: 2
Fore
SplineSet
110 540 m 0
 50 540 10 579 10 635 c 0
 10 691 50 730 110 730 c 0
 170 730 210 691 210 635 c 0
 210 579 170 540 110 540 c 0
110 590 m 0
 130 590 150 604 150 635 c 0
 150 666 130 680 110 680 c 0
 90 680 70 666 70 635 c 0
 70 604 90 590 110 590 c 0
EndSplineSet
EndChar

StartChar: ogonek
Encoding: 731 731 298
Width: 190
Flags: MW
HStem: -155 55<105 112.5>
VStem: 10 70<-75 -68.5> 171 9<-130 -78>
LayerCount: 2
Fore
SplineSet
100 -155 m 0
 40 -155 10 -125 10 -80 c 0
 10 -57 22 -38 35 -23 c 0
 42 -15 51 -7 60 0 c 1
 130 0 l 1
 121 -5 112 -12 105 -19 c 0
 92 -31 80 -48 80 -65 c 0
 80 -85 95 -100 115 -100 c 0
 145 -100 171 -78 171 -78 c 1
 180 -78 l 1
 180 -130 l 1
 174 -135 167 -140 159 -143 c 0
 144 -150 125 -155 100 -155 c 0
EndSplineSet
EndChar

StartChar: tilde
Encoding: 732 732 299
Width: 295
Flags: MW
HStem: 580 70<175 190 175 219.5> 625 70<105 120>
VStem: 10 275<610 665>
LayerCount: 2
Fore
SplineSet
245 690 m 1x00
 285 665 l 1
 270 620 244 580 195 580 c 0x60
 145 580 135 625 105 625 c 0
 76 624 59 586 59 585 c 2
 50 585 l 1
 10 610 l 1
 26 655 49 695 100 695 c 0xa0
 150 695 160 650 190 650 c 0
 220 649 237 689 236 690 c 2
 245 690 l 1x00
EndSplineSet
EndChar

StartChar: hungarumlaut
Encoding: 733 733 300
Width: 295
Flags: MW
HStem: 550 150<10 150 55 65 145 150 190 200 145 145>
VStem: 10 275<550 700>
LayerCount: 2
Fore
SplineSet
10 550 m 1
 55 700 l 1
 150 700 l 1
 65 550 l 1
 10 550 l 1
145 550 m 1
 190 700 l 1
 285 700 l 1
 200 550 l 1
 145 550 l 1
EndSplineSet
EndChar

StartChar: gravecomb
Encoding: 768 768 301
Width: 0
Flags: MW
HStem: 550 150<-75 -75 -75 -55 -165 -10>
VStem: -165 155<550 700>
LayerCount: 2
Fore
SplineSet
-75 550 m 1
 -165 700 l 1
 -55 700 l 1
 -10 550 l 1
 -75 550 l 1
EndSplineSet
EndChar

StartChar: acutecomb
Encoding: 769 769 302
Width: 0
Flags: MW
HStem: 550 150<-165 -10 -120 -100>
VStem: -165 155<550 700>
LayerCount: 2
Fore
SplineSet
-165 550 m 1
 -120 700 l 1
 -10 700 l 1
 -100 550 l 1
 -165 550 l 1
EndSplineSet
EndChar

StartChar: uni0302
Encoding: 770 770 303
Width: 0
Flags: MW
HStem: 560 130<-300 -125 -300 -125 -195 -85 -195 -20>
VStem: -300 280<560 560>
LayerCount: 2
Fore
SplineSet
-300 560 m 1
 -195 690 l 1
 -125 690 l 1
 -20 560 l 1
 -85 560 l 1
 -160 625 l 1
 -235 560 l 1
 -300 560 l 1
EndSplineSet
EndChar

StartChar: tildecomb
Encoding: 771 771 304
Width: 0
Flags: MW
HStem: 580 70<-120 -105 -120 -75.5> 625 70<-190 -175>
VStem: -285 275<610 665>
LayerCount: 2
Fore
SplineSet
-50 690 m 1x00
 -10 665 l 1
 -25 620 -51 580 -100 580 c 0x60
 -150 580 -160 625 -190 625 c 0
 -219 624 -236 586 -236 585 c 2
 -245 585 l 1
 -285 610 l 1
 -269 655 -246 695 -195 695 c 0xa0
 -145 695 -135 650 -105 650 c 0
 -75 649 -58 689 -59 690 c 2
 -50 690 l 1x00
EndSplineSet
EndChar

StartChar: uni0304
Encoding: 772 772 305
Width: 0
Flags: MW
HStem: 590 70<-290 -20 -290 -20>
VStem: -290 270<590 660 590 660>
LayerCount: 2
Fore
SplineSet
-290 590 m 1
 -290 660 l 1
 -20 660 l 1
 -20 590 l 1
 -290 590 l 1
EndSplineSet
EndChar

StartChar: uni0306
Encoding: 774 774 306
Width: 0
Flags: MW
HStem: 560 60<-180 -140 -180 -110>
VStem: -310 90<664.5 690 664.5 690> -100 90<664.5 690>
LayerCount: 2
Fore
SplineSet
-160 560 m 0
 -260 560 -310 610 -310 690 c 1
 -220 690 l 1
 -220 639 -200 620 -160 620 c 0
 -120 620 -100 639 -100 690 c 1
 -10 690 l 1
 -10 610 -60 560 -160 560 c 0
EndSplineSet
EndChar

StartChar: uni0307
Encoding: 775 775 307
Width: 0
Flags: MW
HStem: 560 120<-87.5 -52.5>
VStem: -130 120<602.5 637.5>
LayerCount: 2
Fore
SplineSet
-70 560 m 0
 -105 560 -130 585 -130 620 c 0
 -130 655 -105 680 -70 680 c 0
 -35 680 -10 655 -10 620 c 0
 -10 585 -35 560 -70 560 c 0
EndSplineSet
EndChar

StartChar: uni0308
Encoding: 776 776 308
Width: 0
Flags: MW
HStem: 565 110<-256 -224 -81 -49>
VStem: -295 110<604 636> -120 110<604 636>
LayerCount: 2
Fore
SplineSet
-240 565 m 0
 -272 565 -295 588 -295 620 c 0
 -295 652 -272 675 -240 675 c 0
 -208 675 -185 652 -185 620 c 0
 -185 588 -208 565 -240 565 c 0
-65 565 m 0
 -97 565 -120 588 -120 620 c 0
 -120 652 -97 675 -65 675 c 0
 -33 675 -10 652 -10 620 c 0
 -10 588 -33 565 -65 565 c 0
EndSplineSet
EndChar

StartChar: uni030A
Encoding: 778 778 309
Width: 0
Flags: MW
HStem: 540 50<-120 -100 -120 -80> 680 50<-120 -100>
VStem: -210 60<619.5 650.5 619.5 663> -70 60<619.5 650.5>
LayerCount: 2
Fore
SplineSet
-110 540 m 0
 -170 540 -210 579 -210 635 c 0
 -210 691 -170 730 -110 730 c 0
 -50 730 -10 691 -10 635 c 0
 -10 579 -50 540 -110 540 c 0
-110 590 m 0
 -90 590 -70 604 -70 635 c 0
 -70 666 -90 680 -110 680 c 0
 -130 680 -150 666 -150 635 c 0
 -150 604 -130 590 -110 590 c 0
EndSplineSet
EndChar

StartChar: uni030B
Encoding: 779 779 310
Width: 0
Flags: MW
HStem: 550 150<-285 -145 -240 -230 -150 -145 -105 -95 -150 -150>
VStem: -285 275<550 700>
LayerCount: 2
Fore
SplineSet
-285 550 m 1
 -240 700 l 1
 -145 700 l 1
 -230 550 l 1
 -285 550 l 1
-150 550 m 1
 -105 700 l 1
 -10 700 l 1
 -95 550 l 1
 -150 550 l 1
EndSplineSet
EndChar

StartChar: uni030C
Encoding: 780 780 311
Width: 0
Flags: MW
HStem: 560 130<-300 -195 -300 -125>
VStem: -300 280<690 690>
LayerCount: 2
Fore
SplineSet
-195 560 m 1
 -300 690 l 1
 -235 690 l 1
 -160 625 l 1
 -85 690 l 1
 -20 690 l 1
 -125 560 l 1
 -195 560 l 1
EndSplineSet
EndChar

StartChar: uni0326
Encoding: 806 806 312
Width: 0
Flags: MW
HStem: -236 216<-90 -52.5>
VStem: -120 110<-205 -64.5 -90.5 -64.5 -110.5 -59.5>
LayerCount: 2
Fore
SplineSet
-90 -236 m 1
 -120 -205 l 1
 -111 -198 -102 -191 -95 -183 c 0
 -83 -168 -70 -150 -70 -130 c 1
 -95 -130 -120 -106 -120 -75 c 0
 -120 -44 -95 -20 -70 -20 c 0
 -35 -20 -10 -45 -10 -84 c 0xc0
 -10 -137 -30 -175 -50 -200 c 0
 -62 -215 -75 -227 -90 -236 c 1
EndSplineSet
EndChar

StartChar: uni0327
Encoding: 807 807 313
Width: 0
Flags: MW
HStem: -190 45<-117.5 -102.5 -127.5 -75> -75 95<-160 -120 -160 -100>
VStem: -160 60<-30 20 -30 20 -30 20> -75 65<-120 -100>
LayerCount: 2
Fore
SplineSet
-105 -190 m 0
 -130 -190 -149 -185 -164 -180 c 0
 -172 -177 -179 -174 -185 -170 c 1
 -169 -130 l 1
 -160 -130 l 2
 -161 -130 -140 -145 -115 -145 c 0
 -90 -145 -75 -130 -75 -110 c 0
 -75 -90 -89 -75 -120 -75 c 2
 -160 -75 l 1
 -160 20 l 1
 -100 20 l 1
 -100 -30 l 1
 -44 -30 -10 -65 -10 -110 c 0
 -10 -155 -45 -190 -105 -190 c 0
EndSplineSet
EndChar

StartChar: uni0328
Encoding: 808 808 314
Width: 0
Flags: MW
HStem: -155 55<-85 -77.5>
VStem: -180 70<-75 -68.5> -19 9<-130 -78>
LayerCount: 2
Fore
SplineSet
-90 -155 m 0
 -150 -155 -180 -125 -180 -80 c 0
 -180 -57 -168 -38 -155 -23 c 0
 -148 -15 -139 -7 -130 0 c 1
 -60 0 l 1
 -69 -5 -78 -12 -85 -19 c 0
 -98 -31 -110 -48 -110 -65 c 0
 -110 -85 -95 -100 -75 -100 c 0
 -45 -100 -19 -78 -19 -78 c 1
 -10 -78 l 1
 -10 -130 l 1
 -16 -135 -23 -140 -31 -143 c 0
 -46 -150 -65 -155 -90 -155 c 0
EndSplineSet
EndChar

StartChar: uni0335
Encoding: 821 821 315
Width: 0
Flags: MW
HStem: 300 70<-370 -90 -370 -90>
VStem: -370 280<300 370 300 370>
LayerCount: 2
Fore
SplineSet
-370 300 m 1
 -370 370 l 1
 -90 370 l 1
 -90 300 l 1
 -370 300 l 1
EndSplineSet
EndChar

StartChar: uni0400
Encoding: 1024 1024 316
Width: 510
Flags: MW
HStem: 0 70<190 480 190 480> 330 70<190 420 190 420> 630 70<190 480 190 190> 750 150<259 259 259 279 169 324>
VStem: 90 100<70 330 400 630>
LayerCount: 2
Fore
SplineSet
259 750 m 1
 169 900 l 1
 279 900 l 1
 324 750 l 1
 259 750 l 1
90 0 m 1
 90 700 l 1
 480 700 l 1
 480 630 l 1
 190 630 l 1
 190 400 l 1
 420 400 l 1
 420 330 l 1
 190 330 l 1
 190 70 l 1
 480 70 l 1
 480 0 l 1
 90 0 l 1
EndSplineSet
EndChar

StartChar: uni0401
Encoding: 1025 1025 317
Width: 510
Flags: MW
HStem: 0 70<190 480 190 480> 330 70<190 420 190 420> 630 70<190 480 190 190> 765 110<193 225 368 400>
VStem: 154 110<804 836> 329 110<804 836>
LayerCount: 2
Fore
SplineSet
209 765 m 0
 177 765 154 788 154 820 c 0
 154 852 177 875 209 875 c 0
 241 875 264 852 264 820 c 0
 264 788 241 765 209 765 c 0
384 765 m 0
 352 765 329 788 329 820 c 0
 329 852 352 875 384 875 c 0
 416 875 439 852 439 820 c 0
 439 788 416 765 384 765 c 0
90 0 m 1
 90 700 l 1
 480 700 l 1
 480 630 l 1
 190 630 l 1
 190 400 l 1
 420 400 l 1
 420 330 l 1
 190 330 l 1
 190 70 l 1
 480 70 l 1
 480 0 l 1
 90 0 l 1
EndSplineSet
EndChar

StartChar: uni0402
Encoding: 1026 1026 318
Width: 640
Flags: MW
HStem: -30 70<423.5 437.5 410 480.5> 0 21G<140 240 140 140> 368 70 379 70 629 70
VStem: 140 100<0 365 0 435 435 630> 490 100<130 255>
LayerCount: 2
Fore
SplineSet
435 -30 m 0x00
 412 -30 392 -27 376 -23 c 0
 367 -20 358 -18 350 -15 c 1
 360 50 l 1
 370 50 l 2
 375 48 380 46 385 45 c 0
 395 42 405 40 415 40 c 0
 460 40 490 70 490 130 c 2
 490 255 l 2
 490 331 440 380 355 380 c 0x6e
 322 380 294 376 273 372 c 2
 240 365 l 1
 240 0 l 1
 140 0 l 1x9e
 140 630 l 1
 0 630 l 1
 0 700 l 1
 420 700 l 1
 420 630 l 1
 240 630 l 1
 240 435 l 1
 280 442 l 2
 305 446 340 450 380 450 c 0
 511 450 590 370 590 255 c 2
 590 130 l 2
 590 34 526 -30 435 -30 c 0x00
EndSplineSet
EndChar

StartChar: uni0403
Encoding: 1027 1027 319
Width: 490
Flags: MW
HStem: 0 21G<90 90 90 190> 630 70<190 480 190 190> 750 150<275 430 320 340>
VStem: 90 100<0 630 0 700 0 700>
LayerCount: 2
Fore
SplineSet
275 750 m 1
 320 900 l 1
 430 900 l 1
 340 750 l 1
 275 750 l 1
90 0 m 1
 90 700 l 1
 480 700 l 1
 480 630 l 1
 190 630 l 1
 190 0 l 1
 90 0 l 1
EndSplineSet
EndChar

StartChar: uni0404
Encoding: 1028 1028 320
Width: 515
Flags: MW
HStem: -10 70<277.5 342.5 277.5 343> 320 70<156 390 156 390 155 390> 640 70<273 332.5>
VStem: 55 101<390 390 390 480>
LayerCount: 2
Fore
SplineSet
315 -10 m 0
 155 -10 55 90 55 350 c 0
 55 610 156 710 305 710 c 0
 361 710 403 697 434 682 c 0
 451 674 467 665 480 655 c 1
 445 595 l 1
 435 595 l 1
 424 603 413 610 401 617 c 0
 380 628 350 640 315 640 c 0
 231 640 164 579 156 390 c 1
 390 390 l 1
 390 320 l 1
 155 320 l 1
 160 124 230 60 325 60 c 0
 360 60 390 71 411 82 c 0
 423 89 434 96 445 105 c 1
 455 105 l 1
 490 45 l 1
 477 34 461 25 444 17 c 0
 413 2 371 -10 315 -10 c 0
EndSplineSet
EndChar

StartChar: uni0405
Encoding: 1029 1029 321
Width: 505
Flags: MW
HStem: -10 70<207.5 275.5 207.5 314.5> 640 70<230.5 287.5>
VStem: 45 100<450 559.5 450 575> 370 100<144.5 260>
LayerCount: 2
Fore
SplineSet
240 -10 m 0
 175 -10 124 2 89 17 c 0
 68 25 50 34 35 45 c 1
 70 105 l 1
 80 105 l 1
 92 96 106 89 121 82 c 0
 148 71 185 60 230 60 c 0
 321 60 370 109 370 180 c 0
 370 340 45 300 45 520 c 0
 45 630 124 710 255 710 c 0
 320 710 368 697 401 682 c 0
 420 674 436 665 450 655 c 1
 415 595 l 1
 405 595 l 1
 395 603 383 610 369 617 c 0
 345 628 310 640 265 640 c 0
 196 640 145 589 145 530 c 0
 145 370 470 410 470 190 c 0
 470 70 389 -10 240 -10 c 0
EndSplineSet
EndChar

StartChar: uni0406
Encoding: 1030 1030 322
Width: 280
Flags: MW
HStem: 0 21G<90 90 90 190> 680 20G<90 190 190 190>
VStem: 90 100<0 700 0 700>
LayerCount: 2
Fore
SplineSet
90 0 m 1
 90 700 l 1
 190 700 l 1
 190 0 l 1
 90 0 l 1
EndSplineSet
EndChar

StartChar: uni0407
Encoding: 1031 1031 323
Width: 280
Flags: MW
HStem: 0 21G<90 90 90 190> 680 20G<90 190 190 190> 765 110<36 68 211 243>
VStem: -3 110<804 836> 172 110<804 836>
LayerCount: 2
Fore
SplineSet
52 765 m 0
 20 765 -3 788 -3 820 c 0
 -3 852 20 875 52 875 c 0
 84 875 107 852 107 820 c 0
 107 788 84 765 52 765 c 0
227 765 m 0
 195 765 172 788 172 820 c 0
 172 852 195 875 227 875 c 0
 259 875 282 852 282 820 c 0
 282 788 259 765 227 765 c 0
90 0 m 1
 90 700 l 1
 190 700 l 1
 190 0 l 1
 90 0 l 1
EndSplineSet
EndChar

StartChar: uni0408
Encoding: 1032 1032 324
Width: 425
Flags: MW
HStem: -10 70<115 163 113.5 203> 680 20G<240 340 340 340>
VStem: 240 100<190 700>
LayerCount: 2
Fore
SplineSet
135 -10 m 0
 95 -10 61 1 37 12 c 0
 23 19 11 26 0 35 c 1
 30 100 l 1
 40 100 l 1
 48 93 57 86 66 80 c 0
 82 69 102 60 125 60 c 0
 201 60 240 99 240 190 c 2
 240 700 l 1
 340 700 l 1
 340 190 l 2
 340 59 271 -10 135 -10 c 0
EndSplineSet
EndChar

StartChar: uni0409
Encoding: 1033 1033 325
Width: 881
Flags: MW
HStem: -10 21G<57.5 103> 370 70<511 601 511 601> 630 70<225 410 225 225>
VStem: 410 101<70 70 70 370 440 630 630 630> 746 100<170 270>
LayerCount: 2
Fore
SplineSet
65 -10 m 0
 50 -10 37 -8 26 -5 c 0
 20 -4 15 -2 10 0 c 1
 15 65 l 1
 25 65 l 1
 31 62 l 2
 36 61 41 60 45 60 c 0
 70 60 96 85 100 160 c 2
 130 700 l 1
 511 700 l 1
 511 440 l 1
 601 440 l 2
 768 440 846 361 846 220 c 0
 846 79 768 0 601 0 c 2
 410 0 l 1xf8
 410 630 l 1
 225 630 l 1
 200 160 l 2
 193 44 141 -10 65 -10 c 0
511 70 m 1
 601 70 l 2
 698 70 746 120 746 220 c 0
 746 320 698 370 601 370 c 2
 511 370 l 1
 511 70 l 1
EndSplineSet
EndChar

StartChar: uni040A
Encoding: 1034 1034 326
Width: 900
Flags: MW
HStem: 0 70<530 620 530 620> 350 70<190 430 190 430 530 620> 680 20G<90 190 190 190 430 530 530 530>
VStem: 90 100<0 350 420 700> 430 100<70 70 70 350 420 700> 765 100<164.5 255.5>
LayerCount: 2
Fore
SplineSet
90 0 m 1
 90 700 l 1
 190 700 l 1
 190 420 l 1
 430 420 l 1
 430 700 l 1
 530 700 l 1
 530 420 l 1
 620 420 l 2
 785 420 865 339 865 210 c 0
 865 79 785 0 620 0 c 2
 430 0 l 1
 430 350 l 1
 190 350 l 1
 190 0 l 1
 90 0 l 1
530 70 m 1
 620 70 l 2
 716 70 765 119 765 210 c 0
 765 301 716 350 620 350 c 2
 530 350 l 1
 530 70 l 1
EndSplineSet
EndChar

StartChar: uni040B
Encoding: 1035 1035 327
Width: 650
Flags: MW
HStem: 0 21G<140 140 140 240 490 490 490 590> 368 70 379 70 629 70
VStem: 140 100<0 365 435 630> 490 100<0 255 0 293>
LayerCount: 2
Fore
SplineSet
140 0 m 1x00
 140 630 l 1
 0 630 l 1
 0 700 l 1
 420 700 l 1
 420 630 l 1
 240 630 l 1
 240 435 l 1
 280 442 l 2
 305 446 340 450 380 450 c 0
 511 450 590 370 590 255 c 2
 590 0 l 1
 490 0 l 1
 490 255 l 2
 490 331 440 380 355 380 c 0xdc
 322 380 294 376 273 372 c 2
 240 365 l 1xbc
 240 0 l 1
 140 0 l 1x00
EndSplineSet
EndChar

StartChar: uni040C
Encoding: 1036 1036 328
Width: 585
Flags: MW
HStem: -10 70<467.5 527> 0 21G<90 190 90 90 560 560> 325 70<190 250 250 260 190 250> 640 70<452.5 512.5> 680 20G<90 190 190 190 545 545> 750 150<263 418 308 328>
VStem: 90 100<0 325 0 395 395 700>
LayerCount: 2
Fore
SplineSet
263 750 m 1x00
 308 900 l 1
 418 900 l 1
 328 750 l 1
 263 750 l 1x00
500 -10 m 0x6e
 435 -10 398 30 385 90 c 2x6e
 350 250 l 2
 339 295 311 325 260 325 c 2
 190 325 l 1
 190 0 l 1
 90 0 l 1
 90 700 l 1
 190 700 l 1x76
 190 395 l 1
 250 395 l 2
 306 395 337 425 345 470 c 2
 370 610 l 2
 381 670 420 710 485 710 c 0
 505 710 519 708 530 705 c 2x6e
 545 700 l 1xb6
 535 635 l 1
 530 635 l 2
 529 636 527 636 524 637 c 0
 520 638 515 640 510 640 c 0
 490 640 475 626 470 595 c 2
 445 455 l 2
 438 415 413 392 390 380 c 0
 377 373 362 368 345 365 c 1
 361 361 376 355 390 347 c 0
 414 332 439 308 450 265 c 2
 485 105 l 2
 492 75 505 60 525 60 c 0
 529 60 534 61 539 62 c 2
 545 65 l 1
 550 65 l 1x6e
 560 0 l 1xae
 556 -2 551 -4 545 -5 c 0
 534 -8 519 -10 500 -10 c 0x6e
EndSplineSet
EndChar

StartChar: uni040D
Encoding: 1037 1037 329
Width: 630
Flags: MW
HStem: 0 21G<90 90 90 190 440 440 440 540> 530 170<440 444> 680 20G<90 190 190 190 440 540 540 540> 750 150<277 277 277 297 187 342>
VStem: 90 100<247.5 255 255 700> 440 100<0 445 445 452.5 530 530 0 700>
LayerCount: 2
Fore
SplineSet
277 750 m 1x00
 187 900 l 1
 297 900 l 1
 342 750 l 1
 277 750 l 1x00
90 0 m 1
 90 700 l 1
 190 700 l 1
 190 255 l 2
 190 240 189 218 188 201 c 2
 186 170 l 1
 190 170 l 1
 199 201 l 2
 206 218 212 240 220 255 c 2xdc
 440 700 l 1
 540 700 l 1
 540 0 l 1
 440 0 l 1
 440 445 l 2
 440 460 441 480 442 499 c 2
 444 530 l 1
 440 530 l 1
 431 499 l 2
 424 480 417 460 410 445 c 2xbc
 190 0 l 1
 90 0 l 1
EndSplineSet
EndChar

StartChar: uni040E
Encoding: 1038 1038 330
Width: 536
Flags: MW
HStem: -15 70<149.5 176 146.5 208.5> 185 75<216 287 216 287> 680 20G<10 115 115 115 426 526 526 526> 750 60<248 288 248 318>
VStem: 118 90<854.5 880 854.5 880> 328 90<854.5 880>
LayerCount: 2
Fore
SplineSet
268 750 m 0
 168 750 118 800 118 880 c 1
 208 880 l 1
 208 829 228 810 268 810 c 0
 308 810 328 829 328 880 c 1
 418 880 l 1
 418 800 368 750 268 750 c 0
166 -15 m 0
 133 -15 108 -8 89 0 c 0
 78 4 69 9 61 15 c 1
 86 80 l 1
 96 80 l 1
 101 75 106 70 113 67 c 0
 124 60 137 55 156 55 c 0
 196 55 228 85 241 125 c 2
 261 185 l 1
 216 185 l 1
 10 700 l 1
 115 700 l 1
 261 335 l 2
 266 322 272 304 276 288 c 2
 283 260 l 1
 287 260 l 1
 288 269 290 279 293 288 c 2
 306 335 l 1
 426 700 l 1
 526 700 l 1
 341 125 l 2
 317 50 251 -15 166 -15 c 0
EndSplineSet
EndChar

